<svg xmlns="http://www.w3.org/2000/svg" viewBox="0 0 16 16" class="pdsicon"><path d="M0 .667C0 .298.298 0 .667 0h14c.368 0 .666.298.666.667v8a.667.667 0 1 1-1.333 0V1.333H1.333V14h7.334a.667.667 0 0 1 0 1.333h-8A.667.667 0 0 1 0 14.667v-14Z"/><path d="M11.805 6.862c.26.26.26.682 0 .943L8.47 11.138a.667.667 0 0 1-.871.062L5.396 9.547l-1.591 1.591a.667.667 0 0 1-.943-.943l2-2a.667.667 0 0 1 .871-.062l2.204 1.653 2.925-2.924c.26-.26.682-.26.943 0Z"/><path fill-rule="evenodd" d="M6 2.667a2 2 0 1 0 0 4 2 2 0 0 0 0-4Zm-.667 2a.667.667 0 1 1 1.334 0 .667.667 0 0 1-1.334 0Z"/><path d="M13.333 10.667c.368 0 .667.298.667.666v1.334h1.333a.667.667 0 1 1 0 1.333H14v1.333a.667.667 0 0 1-1.333 0V14h-1.334a.667.667 0 0 1 0-1.333h1.334v-1.334c0-.368.298-.666.666-.666Z"/></svg>