<svg width="16" height="16" viewBox="0 0 16 16" fill="none" xmlns="http://www.w3.org/2000/svg">
<g clip-path="url(#clip0_3_3724)">
<path d="M8 4C8.36819 4 8.66667 4.29848 8.66667 4.66667V7.33333H11.3333C11.7015 7.33333 12 7.63181 12 8C12 8.36819 11.7015 8.66667 11.3333 8.66667H8.66667V11.3333C8.66667 11.7015 8.36819 12 8 12C7.63181 12 7.33333 11.7015 7.33333 11.3333V8.66667H4.66667C4.29848 8.66667 4 8.36819 4 8C4 7.63181 4.29848 7.33333 4.66667 7.33333H7.33333V4.66667C7.33333 4.29848 7.63181 4 8 4Z" fill="#202327"/>
<path fill-rule="evenodd" clip-rule="evenodd" d="M8 0C3.58172 0 0 3.58172 0 8C0 12.4183 3.58172 16 8 16C12.4183 16 16 12.4183 16 8C16 3.58172 12.4183 0 8 0ZM1.33333 8C1.33333 4.3181 4.3181 1.33333 8 1.33333C11.6819 1.33333 14.6667 4.3181 14.6667 8C14.6667 11.6819 11.6819 14.6667 8 14.6667C4.3181 14.6667 1.33333 11.6819 1.33333 8Z" fill="#202327"/>
</g>
<defs>
<clipPath id="clip0_3_3724">
<rect width="16" height="16" fill="white"/>
</clipPath>
</defs>
</svg>
