<svg width="16" height="16" viewBox="0 0 16 16" fill="none" xmlns="http://www.w3.org/2000/svg">
<path fill-rule="evenodd" clip-rule="evenodd" d="M8 2C7.65311 2 7.3719 2.28121 7.3719 2.6281V7.3719H2.6281C2.28121 7.3719 2 7.65311 2 8C2 8.34689 2.28121 8.6281 2.6281 8.6281H7.3719V13.3719C7.3719 13.7188 7.65311 14 8 14C8.34689 14 8.6281 13.7188 8.6281 13.3719V8.6281H13.3719C13.7188 8.6281 14 8.34689 14 8C14 7.65311 13.7188 7.3719 13.3719 7.3719H8.6281V2.6281C8.6281 2.28121 8.34689 2 8 2Z" fill="#202327"/>
</svg>
