<svg xmlns="http://www.w3.org/2000/svg" viewBox="0 0 16 16" class="pdsicon"><path fill-rule="evenodd" d="M5.714 2.287a.571.571 0 0 1 .549.414l.62 2.168a2.857 2.857 0 0 0 1.962 1.963l2.168.62a.571.571 0 0 1 0 1.098l-2.168.62a2.857 2.857 0 0 0-1.963 1.962l-.62 2.168a.571.571 0 0 1-1.098 0l-.62-2.168a2.857 2.857 0 0 0-1.962-1.963L.414 8.55a.571.571 0 0 1 0-1.099l2.168-.619a2.857 2.857 0 0 0 1.963-1.963l.62-2.168a.571.571 0 0 1 .549-.414ZM12.57 0a.571.571 0 0 1 .555.433l.197.79c.18.715.739 1.274 1.455 1.454l.789.197a.572.572 0 0 1 0 1.11l-.79.196a2.003 2.003 0 0 0-1.454 1.455l-.197.79a.572.572 0 0 1-1.11 0l-.196-.79a2 2 0 0 0-1.455-1.455l-.79-.197a.571.571 0 0 1 0-1.11l.79-.196a2 2 0 0 0 1.455-1.455l.197-.79a.571.571 0 0 1 .554-.432Zm-1.143 10.285a.571.571 0 0 1 .543.391l.3.901c.114.34.381.61.722.723l.902.3a.571.571 0 0 1 0 1.084l-.902.3c-.34.115-.608.382-.722.723l-.3.901a.571.571 0 0 1-1.084 0l-.301-.9a1.144 1.144 0 0 0-.722-.723l-.902-.301a.571.571 0 0 1 0-1.083l.902-.301c.34-.115.608-.381.722-.723l.3-.9a.57.57 0 0 1 .543-.392Z"/></svg>