<svg xmlns="http://www.w3.org/2000/svg" viewBox="0 0 16 16" class="sageicon"><path fill-rule="evenodd" d="M12 4c-.1 0-.3-.1-.4-.1-.1-.1-.1-.2-.1-.4 0-.3-.1-.5-.3-.7-.2-.2-.4-.3-.7-.3-.1 0-.3-.1-.4-.1 0-.1-.1-.3-.1-.4 0-.1.1-.3.1-.4.1-.1.2-.1.4-.1.3 0 .5-.1.7-.3.2-.2.3-.4.3-.7 0-.1.1-.3.1-.4.1 0 .3-.1.4-.1.1 0 .3.1.4.1.1.1.1.2.1.4 0 .3.1.5.3.7.2.2.4.3.7.3.1 0 .3.1.4.1 0 .1.1.3.1.4 0 .1-.1.3-.1.4-.1.1-.2.1-.4.1-.3 0-.5.1-.7.3-.2.2-.3.4-.3.7 0 .1-.1.3-.1.4-.1 0-.3.1-.4.1Zm-6.8.4c.1.1.2.1.3.1.1 0 .2 0 .3-.1.1-.1.1-.2.1-.3 0-.2.1-.4.2-.5.1-.1.3-.2.5-.2.1 0 .2 0 .3-.1.1-.1.1-.2.1-.3 0-.1 0-.2-.1-.3-.1 0-.2-.1-.3-.1-.2 0-.4-.1-.5-.2-.1-.1-.2-.3-.2-.5 0-.1 0-.2-.1-.3-.1-.1-.2-.1-.3-.1-.1 0-.2 0-.3.1 0 .1-.1.2-.1.3 0 .2-.1.4-.2.5-.1.1-.3.2-.5.2-.1 0-.2 0-.3.1-.1.1-.1.2-.1.3 0 .1 0 .2.1.3.1.1.2.1.3.1.2 0 .4.1.5.2.1.1.2.3.2.5 0 .1.1.2.1.3Zm5.2 2.7L8.5 5.2c-.1-.1-.2-.2-.3-.2-.1 0-.3.1-.4.2l-.9.9c-.1.1-.1.2 0 .3l2.3 2.2c.1.1.3.1.4 0l.9-.9c.1-.1.1-.2.1-.3 0-.1-.1-.3-.2-.3Zm-4.5 0c.1-.1.2-.1.3 0l2.2 2.2c.1.1.1.2 0 .3l-3.8 3.8c-.1.1-.2.1-.2.1L2 14c-.3.1-.6-.2-.6-.6l.6-2.3c0-.1 0-.2.1-.2l3.8-3.8ZM1.5 16H11c.1 0 .3-.1.4-.1.1-.1.1-.2.1-.3 0-.1-.1-.2-.1-.3-.1-.2-.2-.3-.4-.3H1.5c-.1 0-.3.1-.4.1 0 .2-.1.3-.1.4 0 .1.1.2.1.3.1.1.3.2.4.2Zm11.4-4.6c.1.1.2.1.3.1.1 0 .2 0 .3-.1.1-.1.1-.2.1-.3 0-.2.1-.5.3-.6.2-.1.4-.3.6-.3.1 0 .2 0 .3-.1.2-.1.2-.2.2-.3 0-.1 0-.2-.1-.3-.1-.1-.2-.1-.3-.1-.2 0-.5-.1-.6-.3-.2-.2-.3-.4-.3-.6 0-.1 0-.2-.1-.3-.1-.2-.2-.2-.4-.2s-.2 0-.3.1c-.1.1-.1.2-.1.3 0 .2-.1.5-.3.6-.2.2-.4.3-.6.3-.1 0-.2 0-.3.1-.1.1-.1.2-.1.3 0 .1 0 .2.1.3.1.1.2.1.3.1.2 0 .5.1.6.3.1.2.3.4.3.6 0 .2.1.3.1.4Z"/></svg>