<svg xmlns="http://www.w3.org/2000/svg" viewBox="0 0 16 16" class="sageicon"><path fill-rule="evenodd" d="M12 4c-.1 0-.3-.1-.4-.1-.1-.1-.1-.2-.1-.4 0-.3-.1-.5-.3-.7-.2-.2-.4-.3-.7-.3-.1 0-.3-.1-.4-.1 0-.1-.1-.3-.1-.4 0-.1.1-.3.1-.4.1-.1.2-.1.4-.1.3 0 .5-.1.7-.3.2-.2.3-.4.3-.7 0-.1.1-.3.1-.4.1 0 .3-.1.4-.1.1 0 .3.1.4.1.1.1.1.2.1.4 0 .3.1.5.3.7.2.2.4.3.7.3.1 0 .3.1.4.1 0 .1.1.3.1.4 0 .1-.1.3-.1.4-.1.1-.2.1-.4.1-.3 0-.5.1-.7.3-.2.2-.3.4-.3.7 0 .1-.1.3-.1.4-.1 0-.3.1-.4.1Zm-6.8.4c.1.1.2.1.3.1.1 0 .2 0 .3-.1.1-.1.1-.2.1-.3 0-.2.1-.4.2-.5.1-.1.3-.2.5-.2.1 0 .2 0 .3-.1.1-.1.1-.2.1-.3 0-.1 0-.2-.1-.3-.1 0-.2-.1-.3-.1-.2 0-.4-.1-.5-.2-.1-.1-.2-.3-.2-.5 0-.1 0-.2-.1-.3-.1-.1-.2-.1-.3-.1-.1 0-.2 0-.3.1 0 .1-.1.2-.1.3 0 .2-.1.4-.2.5-.1.1-.3.2-.5.2-.1 0-.2 0-.3.1-.1.1-.1.2-.1.3 0 .1 0 .2.1.3.1.1.2.1.3.1.2 0 .4.1.5.2.1.1.2.3.2.5 0 .1.1.2.1.3ZM2 14.1l2.4-.5c.1 0 .2-.1.2-.1l5.7-5.7c.2-.2.2-.5 0-.7l-1.8-2c-.2-.1-.5-.1-.7 0l-5.7 5.7c-.1.1-.1.2-.1.3l-.5 2.4c0 .2 0 .3.1.4.1.1.2.2.4.2Zm6.2-8 1.2 1.2-.7.8-1.3-1.2.8-.8Zm-5.3 5.4 3.9-3.9L8 8.8l-3.9 3.9-1.5.3.3-1.5ZM11 15H1.5c-.3 0-.5.3-.5.5 0 .3.2.5.5.5H11c.3 0 .5-.2.5-.5 0-.2-.2-.5-.5-.5Zm1.9-3.6c.1.1.2.1.3.1.1 0 .2 0 .3-.1.1-.1.1-.2.1-.3 0-.2.1-.5.3-.6.2-.1.4-.3.6-.3.1 0 .2 0 .3-.1.2-.1.2-.2.2-.3 0-.1 0-.2-.1-.3-.1-.1-.2-.1-.3-.1-.2 0-.5-.1-.6-.3-.2-.2-.3-.4-.3-.6 0-.1 0-.2-.1-.3-.1-.2-.2-.2-.4-.2s-.2 0-.3.1c-.1.1-.1.2-.1.3 0 .2-.1.5-.3.6-.2.2-.4.3-.6.3-.1 0-.2 0-.3.1-.1.1-.1.2-.1.3 0 .1 0 .2.1.3.1.1.2.1.3.1.2 0 .5.1.6.3.1.2.3.4.3.6 0 .2.1.3.1.4Z"/></svg>