<svg width="16" height="16" viewBox="0 0 16 16" fill="none" xmlns="http://www.w3.org/2000/svg">
<path fill-rule="evenodd" clip-rule="evenodd" d="M0.666667 2C0.298477 2 0 2.29848 0 2.66667C0 3.03486 0.298477 3.33333 0.666667 3.33333H15.3333C15.7015 3.33333 16 3.03486 16 2.66667C16 2.29848 15.7015 2 15.3333 2H0.666667ZM7.33333 6C6.96514 6 6.66667 6.29848 6.66667 6.66667C6.66667 7.03486 6.96514 7.33333 7.33333 7.33333H15.3333C15.7015 7.33333 16 7.03486 16 6.66667C16 6.29848 15.7015 6 15.3333 6H7.33333ZM0 10.6667C0 10.2985 0.298477 10 0.666667 10H15.3333C15.7015 10 16 10.2985 16 10.6667C16 11.0349 15.7015 11.3333 15.3333 11.3333H0.666667C0.298477 11.3333 0 11.0349 0 10.6667ZM7.33333 14C6.96514 14 6.66667 14.2985 6.66667 14.6667C6.66667 15.0349 6.96514 15.3333 7.33333 15.3333H15.3333C15.7015 15.3333 16 15.0349 16 14.6667C16 14.2985 15.7015 14 15.3333 14H7.33333Z" fill="#202327"/>
</svg>
