<svg width="16" height="16" viewBox="0 0 16 16" fill="none" xmlns="http://www.w3.org/2000/svg">
<path fill-rule="evenodd" clip-rule="evenodd" d="M0.666667 2C0.298477 2 0 2.29848 0 2.66667C0 3.03486 0.298477 3.33333 0.666667 3.33333H15.3333C15.7015 3.33333 16 3.03486 16 2.66667C16 2.29848 15.7015 2 15.3333 2H0.666667ZM0.666667 6C0.298477 6 0 6.29848 0 6.66667C0 7.03486 0.298477 7.33333 0.666667 7.33333H15.3333C15.7015 7.33333 16 7.03486 16 6.66667C16 6.29848 15.7015 6 15.3333 6H0.666667ZM0 10.6667C0 10.2985 0.298477 10 0.666667 10H15.3333C15.7015 10 16 10.2985 16 10.6667C16 11.0349 15.7015 11.3333 15.3333 11.3333H0.666667C0.298477 11.3333 0 11.0349 0 10.6667ZM0.666667 14C0.298477 14 0 14.2985 0 14.6667C0 15.0349 0.298477 15.3333 0.666667 15.3333H15.3333C15.7015 15.3333 16 15.0349 16 14.6667C16 14.2985 15.7015 14 15.3333 14H0.666667Z" fill="#202327"/>
</svg>
