<svg width="16" height="16" viewBox="0 0 16 16" fill="none" xmlns="http://www.w3.org/2000/svg">
<path fill-rule="evenodd" clip-rule="evenodd" d="M0.666667 1.33334C0.298477 1.33334 0 1.63182 0 2.00001C0 2.3682 0.298477 2.66668 0.666667 2.66668H15.3333C15.7015 2.66668 16 2.3682 16 2.00001C16 1.63182 15.7015 1.33334 15.3333 1.33334H0.666667ZM4 5.33334C3.63181 5.33334 3.33333 5.63182 3.33333 6.00001C3.33333 6.3682 3.63181 6.66668 4 6.66668H12C12.3682 6.66668 12.6667 6.3682 12.6667 6.00001C12.6667 5.63182 12.3682 5.33334 12 5.33334H4ZM0 10C0 9.63182 0.298477 9.33334 0.666667 9.33334H15.3333C15.7015 9.33334 16 9.63182 16 10C16 10.3682 15.7015 10.6667 15.3333 10.6667H0.666667C0.298477 10.6667 0 10.3682 0 10ZM4 13.3333C3.63181 13.3333 3.33333 13.6318 3.33333 14C3.33333 14.3682 3.63181 14.6667 4 14.6667H12C12.3682 14.6667 12.6667 14.3682 12.6667 14C12.6667 13.6318 12.3682 13.3333 12 13.3333H4Z" fill="#202327"/>
</svg>
