<svg width="16" height="16" viewBox="0 0 16 16" fill="none" xmlns="http://www.w3.org/2000/svg">
<path fill-rule="evenodd" clip-rule="evenodd" d="M6 1.99999C6 1.63181 6.29848 1.33333 6.66667 1.33333H9.33333C9.70152 1.33333 10 1.63181 10 1.99999V14C10 14.3682 9.70152 14.6667 9.33333 14.6667H6.66667C6.29848 14.6667 6 14.3682 6 14V1.99999ZM7.33333 2.66666V13.3333H8.66667V2.66666H7.33333Z" fill="#202327"/>
<path fill-rule="evenodd" clip-rule="evenodd" d="M0 9.33333C0 8.96514 0.298477 8.66666 0.666667 8.66666H3.33333C3.70152 8.66666 4 8.96514 4 9.33333V14C4 14.3682 3.70152 14.6667 3.33333 14.6667H0.666667C0.298477 14.6667 0 14.3682 0 14V9.33333ZM1.33333 9.99999V13.3333H2.66667V9.99999H1.33333Z" fill="#202327"/>
<path fill-rule="evenodd" clip-rule="evenodd" d="M12 5.99999C12 5.6318 12.2985 5.33333 12.6667 5.33333H15.3333C15.7015 5.33333 16 5.6318 16 5.99999V14C16 14.3682 15.7015 14.6667 15.3333 14.6667H12.6667C12.2985 14.6667 12 14.3682 12 14V5.99999ZM13.3333 6.66666V13.3333H14.6667V6.66666H13.3333Z" fill="#202327"/>
</svg>
