<svg xmlns="http://www.w3.org/2000/svg" viewBox="0 0 16 16" class="pdsicon"><path d="M5.7 16c-1.4 0-2.3-1.2-3-2.2C1 11.1.6 7.9 1.9 5.9c.8-1.3 2.2-2.1 3.5-2.1.7 0 1.2.2 1.7.4.4.1.7.2 1 .2.3 0 .5-.1.9-.2.5-.2 1-.4 1.8-.4 1.2 0 2.4.6 3.2 1.7l.5.6-.7.4c-.8.5-1.3 1.4-1.2 2.3.1 1 .7 1.8 1.6 2.1l.7.3-.3.7c-.3.8-.5 1.1-1 1.8-.8 1.2-1.7 2.3-3 2.3-.6 0-1-.2-1.3-.3-.3-.1-.6-.3-1.1-.3-.5 0-.8.1-1.1.3-.4.1-.8.3-1.4.3ZM5.4 5.2c-.9 0-1.8.6-2.4 1.5-.8 1.2-.8 3.9.8 6.3.5.8 1.2 1.6 1.9 1.6.3 0 .5-.1.7-.2.4-.2.9-.4 1.7-.4.8 0 1.3.2 1.7.4.3.1.4.2.7.2.8 0 1.6-1.3 1.9-1.7.3-.4.4-.7.6-1-1-.6-1.7-1.7-1.8-3-.1-1.2.4-2.3 1.2-3-.5-.4-1.1-.7-1.7-.7-.6 0-1 .1-1.4.3-.2.2-.6.3-1.2.3s-1-.2-1.4-.3c-.4-.2-.8-.3-1.3-.3ZM10 2.2c.4-.6.8-1.4.6-2.2-.7 0-1.5.5-2 1.1-.5.5-.8 1.3-.7 2.1.8 0 1.6-.4 2.1-1Z"/></svg>