<svg xmlns="http://www.w3.org/2000/svg" viewBox="0 0 16 16" class="pdsicon"><path fill-rule="evenodd" d="M1.593 1.448a.312.312 0 0 0-.085.22V11.69h12.984V1.67a.312.312 0 0 0-.086-.221.177.177 0 0 0-.126-.06h-1.932c-.417 0-.754-.31-.754-.694 0-.383.337-.694.754-.694h1.932C15.293 0 16 .808 16 1.668v12.664c0 .86-.707 1.668-1.72 1.668H1.72A1.693 1.693 0 0 1 0 14.332V1.668C0 .808.707 0 1.72 0h1.932c.417 0 .754.31.754.694 0 .383-.337.694-.754.694H1.72a.177.177 0 0 0-.127.06Zm12.9 11.63H1.507v1.254c0 .097.038.173.085.22.047.047.092.06.127.06h12.56c.035 0 .08-.013.127-.06a.312.312 0 0 0 .085-.22v-1.254ZM5.796.694c0-.383.337-.694.754-.694h2.898c.417 0 .754.31.754.694v4.177h1.179c.29 0 .553.152.679.393a.65.65 0 0 1-.09.734L8.588 9.894a.78.78 0 0 1-.589.261.78.78 0 0 1-.589-.26L4.03 5.997a.65.65 0 0 1-.09-.734.762.762 0 0 1 .678-.393h1.179V.694Zm1.508.694v4.177c0 .383-.338.694-.754.694h-.365L8 8.349l1.814-2.09H9.45c-.416 0-.754-.311-.754-.694V1.388h-1.39Z"/></svg>