<svg xmlns="http://www.w3.org/2000/svg" viewBox="0 0 16 16" class="pdsicon"><path fill-rule="evenodd" d="M4.667.667c.368 0 .666.298.666.666v9.334h9.334a.667.667 0 1 1 0 1.333h-10A.667.667 0 0 1 4 11.333v-10c0-.368.298-.666.667-.666Z"/><path fill-rule="evenodd" d="M10.862 7.529c.26-.26.682-.26.943 0l3.333 3.333c.26.26.26.682 0 .943l-3.333 3.333a.667.667 0 0 1-.943-.943l2.862-2.862-2.862-2.862a.667.667 0 0 1 0-.942ZM4.195.862c.26-.26.683-.26.943 0l3.333 3.333a.667.667 0 1 1-.942.943L4.667 2.276 1.805 5.138a.667.667 0 0 1-.943-.943L4.195.862Z"/></svg>