<svg width="16" height="16" viewBox="0 0 16 16" fill="none" xmlns="http://www.w3.org/2000/svg">
<g clip-path="url(#clip0_4_514)">
<path fill-rule="evenodd" clip-rule="evenodd" d="M5.93781 2.36736C7.15107 1.92332 8.47525 1.88276 9.71341 2.25171C10.9516 2.62067 12.0376 3.37942 12.8099 4.41513C13.5822 5.45079 13.9996 6.70825 14 8.00014V8.66662C14 9.02024 13.8595 9.35938 13.6094 9.60943C13.3594 9.85948 13.0203 9.99995 12.6666 9.99995C12.313 9.99995 11.9739 9.85948 11.7238 9.60943C11.4738 9.35938 11.3333 9.02024 11.3333 8.66662V4.66662H9.99996V5.33307C9.44285 4.91461 8.75036 4.66665 7.99996 4.66665C6.15901 4.66665 4.66663 6.15903 4.66663 7.99998C4.66663 9.84093 6.15901 11.3333 7.99996 11.3333C8.99203 11.3333 9.88287 10.8999 10.4935 10.2121C10.5791 10.3325 10.6752 10.4464 10.781 10.5522C11.2811 11.0523 11.9594 11.3333 12.6666 11.3333C13.3739 11.3333 14.0521 11.0523 14.5522 10.5522C15.0523 10.0521 15.3333 9.37386 15.3333 8.66662V7.99976C15.3328 6.4207 14.8227 4.88395 13.8788 3.61808C12.9348 2.35221 11.6075 1.42485 10.0942 0.973905C8.58087 0.522963 6.96242 0.572535 5.47955 1.11525C3.99668 1.65796 2.72859 2.66483 1.86389 3.98609C0.999183 5.30736 0.584057 6.87245 0.68025 8.44858C0.776443 10.0247 1.37882 11.5277 2.39778 12.734C3.41674 13.9403 4.79786 14.7855 6.33573 15.1438C7.8736 15.5022 9.48606 15.3546 10.9333 14.723L11.5443 14.4563L11.011 13.2343L10.4 13.5009C9.21586 14.0177 7.89657 14.1385 6.63832 13.8453C5.38006 13.5521 4.25005 12.8606 3.41636 11.8736C2.58266 10.8866 2.08981 9.65692 2.01111 8.36736C1.9324 7.07779 2.27205 5.79727 2.97954 4.71623C3.68702 3.6352 4.72455 2.8114 5.93781 2.36736ZM5.99996 7.99998C5.99996 6.89541 6.89539 5.99998 7.99996 5.99998C9.10453 5.99998 9.99996 6.89541 9.99996 7.99998C9.99996 9.10455 9.10453 9.99998 7.99996 9.99998C6.89539 9.99998 5.99996 9.10455 5.99996 7.99998Z" fill="#202327"/>
</g>
<defs>
<clipPath id="clip0_4_514">
<rect width="16" height="16" fill="white"/>
</clipPath>
</defs>
</svg>
