<svg xmlns="http://www.w3.org/2000/svg" viewBox="0 0 16 16" class="pdsicon"><path fill-rule="evenodd" d="M11.662 2.605c-.94-.94-2.384-.94-3.324 0l-5.2 5.2c-1.406 1.406-1.406 3.784 0 5.19 1.406 1.407 3.784 1.407 5.19 0l5.867-5.866a.667.667 0 1 1 .943.942l-5.867 5.867c-1.927 1.927-5.149 1.927-7.076 0-1.927-1.927-1.927-5.15 0-7.076l5.2-5.2a3.645 3.645 0 0 1 5.21 0 3.645 3.645 0 0 1 0 5.21l-.004.003-4.796 4.73-.002.002c-.909.906-2.408.947-3.287-.015-.896-.909-.933-2.399.024-3.275L8.529 4.33a.667.667 0 1 1 .942.942l-4 4a.665.665 0 0 1-.025.025c-.358.322-.395.945.025 1.366a.683.683 0 0 1 .025.025c.322.358.945.396 1.366-.025l.003-.003 4.799-4.732c.938-.94.937-2.383-.002-3.322Z"/></svg>