<svg xmlns="http://www.w3.org/2000/svg" viewBox="0 0 16 16" class="sageicon"><path fill-rule="evenodd" d="M8 .667c.368 0 .667.298.667.666v14a.667.667 0 1 1-1.334 0v-14c0-.368.299-.666.667-.666Z"/><path fill-rule="evenodd" d="M3.333 6c.369 0 .667.298.667.667v4a2 2 0 0 0 2 2h2A.667.667 0 1 1 8 14H6a3.333 3.333 0 0 1-3.333-3.333v-4c0-.369.298-.667.666-.667Z"/><path fill-rule="evenodd" d="M12.667 4c.368 0 .666.298.666.667V8A3.333 3.333 0 0 1 10 11.333H8A.667.667 0 1 1 8 10h2a2 2 0 0 0 2-2V4.667c0-.369.299-.667.667-.667ZM7.529.862c.26-.26.682-.26.942 0l2 2a.667.667 0 0 1-.942.943L8 2.276 6.471 3.805a.667.667 0 1 1-.942-.943l2-2ZM2.862 6.195c.26-.26.682-.26.943 0l2 2a.667.667 0 1 1-.943.943L3.333 7.61 1.805 9.14a.667.667 0 0 1-.943-.944l2-2Z"/><path fill-rule="evenodd" d="M12.195 4.195c.26-.26.683-.26.943 0l2 2a.667.667 0 0 1-.943.943L12.667 5.61l-1.529 1.53a.667.667 0 1 1-.943-.944l2-2Z"/></svg>