<svg width="16" height="16" viewBox="0 0 16 16" fill="none" xmlns="http://www.w3.org/2000/svg">
<g clip-path="url(#clip0_3_3712)">
<path fill-rule="evenodd" clip-rule="evenodd" d="M1.33333 8C1.33333 4.3181 4.3181 1.33333 8 1.33333C9.60097 1.33333 11.0701 1.89766 12.2194 2.83825L2.83825 12.2194C1.89766 11.0701 1.33333 9.60097 1.33333 8ZM2.22303 13.5342C2.2515 13.5833 2.28677 13.6296 2.32883 13.6716C2.37091 13.7137 2.41722 13.749 2.46638 13.7775C3.90333 15.1541 5.85288 16 8 16C12.4183 16 16 12.4183 16 8C16 5.85288 15.1541 3.90333 13.7775 2.46638C13.749 2.41722 13.7137 2.37091 13.6716 2.32883C13.6296 2.28677 13.5833 2.2515 13.5342 2.22303C12.0972 0.846065 10.1474 0 8 0C3.58172 0 0 3.58172 0 8C0 10.1474 0.846065 12.0972 2.22303 13.5342ZM13.1622 3.78111C14.1025 4.93032 14.6667 6.39928 14.6667 8C14.6667 11.6819 11.6819 14.6667 8 14.6667C6.39928 14.6667 4.93032 14.1025 3.78111 13.1622L13.1622 3.78111Z" fill="#202327"/>
</g>
<defs>
<clipPath id="clip0_3_3712">
<rect width="16" height="16" fill="white"/>
</clipPath>
</defs>
</svg>
