<svg xmlns="http://www.w3.org/2000/svg" viewBox="0 0 17 16" class="sageicon"><path d="M15.7 4.4 8.4.4C8.2.3 8 .3 7.8.4l-7.3 4c-.4.1-.5.4-.5.6v2c0 .4.3.7.7.7h14.7c.3 0 .6-.3.6-.7V5c0-.2-.1-.5-.3-.6Zm-1 1.9H1.3v-.9L8 1.8l6.7 3.6v.9ZM2.7 13V9c0-.4-.3-.7-.7-.7-.4 0-.7.3-.7.7v4c0 .4.3.7.7.7.4 0 .7-.3.7-.7ZM6.7 13V9c0-.4-.3-.7-.7-.7-.4 0-.7.3-.7.7v4c0 .4.3.7.7.7.4 0 .7-.3.7-.7ZM10.7 13V9c0-.4-.3-.7-.7-.7-.4 0-.7.3-.7.7v4c0 .4.3.7.7.7.4 0 .7-.3.7-.7ZM14.7 13V9c0-.4-.3-.7-.7-.7-.4 0-.7.3-.7.7v4c0 .4.3.7.7.7.4 0 .7-.3.7-.7ZM15.3 14.3H.7c-.4 0-.7.3-.7.7 0 .4.3.7.7.7h14.7c.4 0 .7-.3.7-.7 0-.4-.4-.7-.8-.7Z"/><path d="M8 5a.7.7 0 1 0 0-1.4A.7.7 0 0 0 8 5Z"/></svg>