<svg width="16" height="16" viewBox="0 0 16 16" fill="none" xmlns="http://www.w3.org/2000/svg">
<g clip-path="url(#clip0_3_3335)">
<path d="M15.7 4.4L8.4 0.399997C8.2 0.299997 8 0.299997 7.8 0.399997L0.5 4.4C0.1 4.5 0 4.8 0 5V7C0 7.4 0.3 7.7 0.7 7.7H15.4C15.7 7.7 16 7.4 16 7V5C16 4.8 15.9 4.5 15.7 4.4ZM14.7 6.3H1.3V5.4L8 1.8L14.7 5.4V6.3Z" fill="#202327"/>
<path d="M2.70005 13V9C2.70005 8.6 2.40005 8.3 2.00005 8.3C1.60005 8.3 1.30005 8.6 1.30005 9V13C1.30005 13.4 1.60005 13.7 2.00005 13.7C2.40005 13.7 2.70005 13.4 2.70005 13Z" fill="#202327"/>
<path d="M6.70005 13V9C6.70005 8.6 6.40005 8.3 6.00005 8.3C5.60005 8.3 5.30005 8.6 5.30005 9V13C5.30005 13.4 5.60005 13.7 6.00005 13.7C6.40005 13.7 6.70005 13.4 6.70005 13Z" fill="#202327"/>
<path d="M10.7 13V9C10.7 8.6 10.4 8.3 10 8.3C9.60005 8.3 9.30005 8.6 9.30005 9V13C9.30005 13.4 9.60005 13.7 10 13.7C10.4 13.7 10.7 13.4 10.7 13Z" fill="#202327"/>
<path d="M14.7 13V9C14.7 8.6 14.4 8.3 14 8.3C13.6 8.3 13.3 8.6 13.3 9V13C13.3 13.4 13.6 13.7 14 13.7C14.4 13.7 14.7 13.4 14.7 13Z" fill="#202327"/>
<path d="M15.3 14.3H0.7C0.3 14.3 0 14.6 0 15C0 15.4 0.3 15.7 0.7 15.7H15.4C15.8 15.7 16.1 15.4 16.1 15C16.1 14.6 15.7 14.3 15.3 14.3Z" fill="#202327"/>
<path d="M8.00005 5C8.38665 5 8.70005 4.6866 8.70005 4.3C8.70005 3.9134 8.38665 3.6 8.00005 3.6C7.61345 3.6 7.30005 3.9134 7.30005 4.3C7.30005 4.6866 7.61345 5 8.00005 5Z" fill="#202327"/>
</g>
<defs>
<clipPath id="clip0_3_3335">
<rect width="16" height="16" fill="white"/>
</clipPath>
</defs>
</svg>
