<svg xmlns="http://www.w3.org/2000/svg" viewBox="0 0 16 16" class="sageicon"><path fill-rule="evenodd" d="M8 0a5.333 5.333 0 0 0-5.333 5.333v2c0 .857-.372 1.386-.834 1.91l-.173.192a7.698 7.698 0 0 0-.557.66c-.231.325-.436.73-.436 1.238 0 .566.329 1.006.725 1.316.396.31.934.555 1.553.746C4.189 13.78 5.929 14 8 14c2.071 0 3.81-.22 5.055-.605.62-.191 1.157-.436 1.553-.746.396-.31.725-.75.725-1.316 0-.508-.205-.913-.436-1.237-.161-.225-.371-.457-.557-.661l-.174-.193c-.461-.523-.833-1.052-.833-1.909v-2A5.333 5.333 0 0 0 8 0ZM5.172 2.505A4 4 0 0 1 12 5.333v2c0 1.344.629 2.181 1.167 2.791.086.099.165.185.237.264.165.182.296.326.408.483.143.2.188.337.188.462 0 .003.002.097-.214.266-.218.171-.585.356-1.125.522-1.072.332-2.666.546-4.661.546-1.995 0-3.59-.214-4.661-.546-.54-.166-.907-.351-1.125-.522-.216-.17-.214-.263-.214-.266 0-.125.045-.261.188-.462.112-.157.243-.3.408-.482.072-.08.15-.166.237-.265C3.371 9.514 4 8.677 4 7.334v-2a4 4 0 0 1 1.172-2.83ZM6.097 14.6c.596.044 1.229.067 1.903.067.674 0 1.307-.023 1.903-.067a1.995 1.995 0 0 1-3.806 0Z"/></svg>