<svg width="16" height="16" viewBox="0 0 16 16" fill="none" xmlns="http://www.w3.org/2000/svg">
<path fill-rule="evenodd" clip-rule="evenodd" d="M1.33331 0.666667C1.33331 0.298477 1.63179 0 1.99998 0H3.33331H9.33331C11.5425 0 13.3333 1.79086 13.3333 4C13.3333 5.23282 12.7756 6.33537 11.8987 7.06913C13.5297 7.79647 14.6666 9.43213 14.6666 11.3333C14.6666 13.9107 12.5773 16 9.99999 16H1.99998C1.63179 16 1.33331 15.7015 1.33331 15.3333C1.33331 14.9651 1.63179 14.6667 1.99998 14.6667H2.66665V7.33333V1.33333H1.99998C1.63179 1.33333 1.33331 1.03486 1.33331 0.666667ZM3.99998 6.66667H9.33331C10.8061 6.66667 12 5.47276 12 4C12 2.52724 10.8061 1.33333 9.33331 1.33333H3.99998V6.66667ZM3.99998 8V14.6667H9.99999C11.8409 14.6667 13.3333 13.1743 13.3333 11.3333C13.3333 9.49238 11.8409 8 9.99998 8H9.33331H3.99998Z" fill="#202327"/>
</svg>
