<svg xmlns="http://www.w3.org/2000/svg" viewBox="0 0 16 16" class="sageicon"><path fill-rule="evenodd" d="M11.056 1.46a.667.667 0 0 1 .277.54v10.667a.667.667 0 0 1-.877.632l-3.123-1.04V14a.667.667 0 0 1-.85.641l-4.666-1.333a.667.667 0 0 1-.484-.641v-2.409l-.877-.292A.667.667 0 0 1 0 9.333v-4c0-.287.184-.541.456-.632l10-3.333a.667.667 0 0 1 .6.091Zm-4.193 9.236a.76.76 0 0 1 .03.01L10 11.742V2.925L1.333 5.814v3.039l5.53 1.843ZM6 13.116v-1.302l-3.333-1.111v1.46L6 13.117Zm8-6.45A.667.667 0 1 0 14 8h1.333a.667.667 0 1 0 0-1.333H14Zm.908-3.337a.667.667 0 0 1-.237.912l-1.133.667a.667.667 0 1 1-.676-1.15l1.133-.666a.667.667 0 0 1 .913.237Zm-1.37 6.43a.667.667 0 1 0-.676 1.149l1.133.667a.667.667 0 1 0 .676-1.15l-1.133-.666Z"/></svg>