<svg xmlns="http://www.w3.org/2000/svg" viewBox="0 0 16 16" class="sageicon"><path fill-rule="evenodd" d="M5.333.667A.667.667 0 1 0 4 .667V2H.667A.667.667 0 0 0 0 2.667v12c0 .368.298.666.667.666H6A.667.667 0 1 0 6 14H1.333V6h13.334v1.333a.667.667 0 1 0 1.333 0V2.667A.667.667 0 0 0 15.333 2H12V.667a.667.667 0 0 0-1.333 0V2H5.333V.667Zm9.334 4V3.333H1.333v1.334h13.334Z"/><path d="M12 10.667a.667.667 0 0 0-1.333 0V12c0 .368.298.667.666.667h1.334a.667.667 0 0 0 0-1.334H12v-.666Z"/><path fill-rule="evenodd" d="M11.333 8a4 4 0 1 0 0 8 4 4 0 0 0 0-8Zm-2.666 4A2.667 2.667 0 1 1 14 12a2.667 2.667 0 0 1-5.333 0Z"/></svg>