<svg xmlns="http://www.w3.org/2000/svg" viewBox="0 0 16 16" class="pdsicon"><path fill-rule="evenodd" d="M4 0c.368 0 .667.298.667.667v.666h6.666V.667a.667.667 0 0 1 1.334 0v.666H14a2 2 0 0 1 2 2v10a2 2 0 0 1-2 2H2a2 2 0 0 1-2-2v-10a2 2 0 0 1 2-2h1.333V.667C3.333.298 3.632 0 4 0Zm7.333 2.667H4.667a.667.667 0 1 1-1.334 0H2a.667.667 0 0 0-.667.666v1.334h13.334V3.333A.667.667 0 0 0 14 2.667h-1.333a.667.667 0 0 1-1.334 0ZM14.667 6v7.333A.667.667 0 0 1 14 14H2a.667.667 0 0 1-.667-.667V6h13.334Z"/></svg>