<svg xmlns="http://www.w3.org/2000/svg" viewBox="0 0 16 16" class="pdsicon"><path d="M3.333 8a.667.667 0 0 0-.666.667v.666c0 .369.298.667.666.667h1.334a.667.667 0 0 0 .666-.667v-.666A.667.667 0 0 0 4.667 8H3.333ZM7.333 8a.667.667 0 0 0-.666.667v.666c0 .369.298.667.666.667h1.334a.667.667 0 0 0 .666-.667v-.666A.667.667 0 0 0 8.667 8H7.333ZM2.667 12c0-.368.298-.667.666-.667h1.334c.368 0 .666.299.666.667v.667a.667.667 0 0 1-.666.666H3.333a.667.667 0 0 1-.666-.666V12ZM7.333 11.333a.667.667 0 0 0-.666.667v.667c0 .368.298.666.666.666h1.334a.667.667 0 0 0 .666-.666V12a.667.667 0 0 0-.666-.667H7.333ZM10.667 8.667c0-.369.298-.667.666-.667h1.334c.368 0 .666.298.666.667v.666a.667.667 0 0 1-.666.667h-1.334a.667.667 0 0 1-.666-.667v-.666Z"/><path fill-rule="evenodd" d="M12 1.333a.667.667 0 0 0-1.333 0v1.334H5.333V1.333a.667.667 0 0 0-1.333 0v1.334H.667A.667.667 0 0 0 0 3.333v12c0 .368.298.667.667.667h14.666a.667.667 0 0 0 .667-.667v-12a.667.667 0 0 0-.667-.666H12V1.333Zm2.667 4V4H1.333v1.333h13.334ZM1.333 6.667h13.334v8H1.333v-8Z"/></svg>