<svg width="16" height="16" viewBox="0 0 16 16" fill="none" xmlns="http://www.w3.org/2000/svg">
<g clip-path="url(#clip0_3_3334)">
<path d="M3.33333 8.00001C2.96514 8.00001 2.66667 8.29848 2.66667 8.66667V9.33334C2.66667 9.70153 2.96514 10 3.33333 10H4.66667C5.03486 10 5.33333 9.70153 5.33333 9.33334V8.66667C5.33333 8.29848 5.03486 8.00001 4.66667 8.00001H3.33333Z" fill="#202327"/>
<path d="M7.33333 8.00001C6.96514 8.00001 6.66667 8.29848 6.66667 8.66667V9.33334C6.66667 9.70153 6.96514 10 7.33333 10H8.66667C9.03486 10 9.33333 9.70153 9.33333 9.33334V8.66667C9.33333 8.29848 9.03486 8.00001 8.66667 8.00001H7.33333Z" fill="#202327"/>
<path d="M2.66667 12C2.66667 11.6318 2.96514 11.3333 3.33333 11.3333H4.66667C5.03486 11.3333 5.33333 11.6318 5.33333 12V12.6667C5.33333 13.0349 5.03486 13.3333 4.66667 13.3333H3.33333C2.96514 13.3333 2.66667 13.0349 2.66667 12.6667V12Z" fill="#202327"/>
<path d="M7.33333 11.3333C6.96514 11.3333 6.66667 11.6318 6.66667 12V12.6667C6.66667 13.0349 6.96514 13.3333 7.33333 13.3333H8.66667C9.03486 13.3333 9.33333 13.0349 9.33333 12.6667V12C9.33333 11.6318 9.03486 11.3333 8.66667 11.3333H7.33333Z" fill="#202327"/>
<path d="M10.6667 8.66667C10.6667 8.29848 10.9651 8.00001 11.3333 8.00001H12.6667C13.0349 8.00001 13.3333 8.29848 13.3333 8.66667V9.33334C13.3333 9.70153 13.0349 10 12.6667 10H11.3333C10.9651 10 10.6667 9.70153 10.6667 9.33334V8.66667Z" fill="#202327"/>
<path fill-rule="evenodd" clip-rule="evenodd" d="M12 1.33334C12 0.965149 11.7015 0.666672 11.3333 0.666672C10.9651 0.666672 10.6667 0.965149 10.6667 1.33334V2.66667H5.33333V1.33334C5.33333 0.965149 5.03486 0.666672 4.66667 0.666672C4.29848 0.666672 4 0.965149 4 1.33334V2.66667H0.666667C0.298477 2.66667 0 2.96515 0 3.33334V15.3333C0 15.7015 0.298477 16 0.666667 16H15.3333C15.7015 16 16 15.7015 16 15.3333V3.33334C16 2.96515 15.7015 2.66667 15.3333 2.66667H12V1.33334ZM14.6667 5.33334V4.00001H1.33333V5.33334H14.6667ZM1.33333 6.66667H14.6667V14.6667H1.33333V6.66667Z" fill="#202327"/>
</g>
<defs>
<clipPath id="clip0_3_3334">
<rect width="16" height="16" fill="white"/>
</clipPath>
</defs>
</svg>
