<svg width="16" height="16" viewBox="0 0 16 16" fill="none" xmlns="http://www.w3.org/2000/svg">
<path fill-rule="evenodd" clip-rule="evenodd" d="M1.66667 3.33333C1.57826 3.33333 1.49348 3.36845 1.43096 3.43096C1.36845 3.49348 1.33333 3.57826 1.33333 3.66667V12.3333C1.33333 12.4217 1.36845 12.5065 1.43096 12.569C1.49348 12.6315 1.57826 12.6667 1.66667 12.6667H14.3333C14.4217 12.6667 14.5065 12.6315 14.569 12.569C14.6315 12.5065 14.6667 12.4217 14.6667 12.3333V3.66667C14.6667 3.57826 14.6315 3.49348 14.569 3.43096C14.5065 3.36845 14.4217 3.33333 14.3333 3.33333H1.66667ZM0.488155 2.48816C0.800716 2.17559 1.22464 2 1.66667 2H14.3333C14.7754 2 15.1993 2.17559 15.5118 2.48816C15.8244 2.80072 16 3.22464 16 3.66667V12.3333C16 12.7754 15.8244 13.1993 15.5118 13.5118C15.1993 13.8244 14.7754 14 14.3333 14H1.66667C1.22464 14 0.800715 13.8244 0.488155 13.5118C0.175595 13.1993 0 12.7754 0 12.3333V3.66667C0 3.22464 0.175595 2.80072 0.488155 2.48816ZM8.00001 10.0818C7.54348 10.4477 6.96398 10.6666 6.33335 10.6666C4.86059 10.6666 3.66669 9.47274 3.66669 7.99998C3.66669 6.52722 4.86059 5.33331 6.33335 5.33331C6.96398 5.33331 7.54348 5.55222 8.00001 5.91818C8.45654 5.55222 9.03604 5.33331 9.66667 5.33331C11.1394 5.33331 12.3333 6.52722 12.3333 7.99998C12.3333 9.47274 11.1394 10.6666 9.66667 10.6666C9.03604 10.6666 8.45654 10.4477 8.00001 10.0818Z" fill="#202327"/>
</svg>
