<svg width="16" height="16" viewBox="0 0 16 16" fill="none" xmlns="http://www.w3.org/2000/svg">
<path fill-rule="evenodd" clip-rule="evenodd" d="M1.43096 3.43096C1.49348 3.36845 1.57826 3.33333 1.66667 3.33333H14.3333C14.4217 3.33333 14.5065 3.36845 14.569 3.43096C14.6315 3.49348 14.6667 3.57826 14.6667 3.66667V12.3333C14.6667 12.4217 14.6315 12.5065 14.569 12.569C14.5065 12.6315 14.4217 12.6667 14.3333 12.6667H1.66667C1.57826 12.6667 1.49348 12.6315 1.43096 12.569C1.36845 12.5065 1.33333 12.4217 1.33333 12.3333V3.66667C1.33333 3.57826 1.36845 3.49348 1.43096 3.43096ZM1.66667 2C1.22464 2 0.800716 2.17559 0.488155 2.48816C0.175595 2.80072 0 3.22464 0 3.66667V12.3333C0 12.7754 0.175595 13.1993 0.488155 13.5118C0.800715 13.8244 1.22464 14 1.66667 14H14.3333C14.7754 14 15.1993 13.8244 15.5118 13.5118C15.8244 13.1993 16 12.7754 16 12.3333V3.66667C16 3.22464 15.8244 2.80072 15.5118 2.48816C15.1993 2.17559 14.7754 2 14.3333 2H1.66667ZM12.4969 6.64703C13.2376 6.64703 13.6249 7.27803 13.6249 8.07803C13.6249 8.12119 13.6228 8.19337 13.6211 8.25464L13.6211 8.25471L13.6211 8.25479C13.6197 8.29993 13.6186 8.33912 13.6186 8.35636H12.0906C12.1249 8.72503 12.3936 8.83136 12.6969 8.83136C12.9626 8.83634 13.2255 8.77735 13.4636 8.65936V9.28436C13.1972 9.42593 12.8985 9.49588 12.5969 9.48736C11.8343 9.48736 11.3029 9.0127 11.3029 8.07203C11.3029 7.27803 11.7563 6.64703 12.4969 6.64703ZM12.4936 7.28136C12.2969 7.28136 12.0813 7.42803 12.0813 7.78136H12.8876C12.8876 7.42803 12.6843 7.28136 12.4936 7.28136ZM9.48427 6.8907C9.64937 6.73341 9.86892 6.6461 10.0969 6.64703C10.6436 6.64703 11.1593 7.1407 11.1626 8.04603C11.1626 9.0367 10.6529 9.48636 10.0936 9.48636C9.89218 9.48613 9.69695 9.4167 9.54061 9.2897L9.53761 10.174L8.75627 10.3407V6.69703H9.44361L9.48427 6.8907ZM9.70854 8.76768C9.77226 8.79308 9.8408 8.80413 9.90928 8.80003C10.1969 8.80003 10.3906 8.48736 10.3906 8.0687C10.3906 7.65936 10.1936 7.3407 9.90928 7.3407C9.83982 7.33673 9.77036 7.34842 9.70603 7.3749C9.6417 7.40138 9.58414 7.44198 9.53761 7.4937L9.54061 8.65303C9.58748 8.70312 9.64481 8.74227 9.70854 8.76768ZM8.46561 6.2937L7.68127 6.46236V5.82503L8.46561 5.65936V6.2937ZM7.68127 6.70001H8.46561V9.43435H7.68127V6.70001ZM6.79062 6.69997L6.84062 6.93131C6.90351 6.8215 7.00361 6.73782 7.12282 6.69539C7.24204 6.65296 7.3725 6.65459 7.49062 6.69997V7.41864C7.38671 7.3836 7.27471 7.38036 7.16895 7.40934C7.0632 7.43832 6.96849 7.4982 6.89695 7.58131V9.43331H6.11562V6.69997H6.79062ZM4.51562 6.18431L5.27795 6.02197L5.27495 6.69997H5.86862V7.36664H5.27495V8.47597C5.27495 8.93831 5.76862 8.79464 5.86862 8.75397V9.38731C5.69696 9.46393 5.50974 9.49932 5.32195 9.49064C5.21526 9.49398 5.10901 9.47553 5.00968 9.43642C4.91036 9.39731 4.82005 9.33836 4.74427 9.26318C4.6685 9.188 4.60884 9.09815 4.56896 8.99914C4.52907 8.90013 4.50979 8.79402 4.51229 8.68731L4.51562 6.18431ZM3.43329 7.32497C3.26662 7.32497 3.16662 7.37197 3.16662 7.49364C3.16662 7.62668 3.33852 7.68521 3.55189 7.75787C3.89983 7.87635 4.35806 8.03237 4.36095 8.61031C4.36095 9.16964 3.91395 9.49164 3.26429 9.49164C2.97072 9.49073 2.6804 9.43017 2.41095 9.31364V8.56964C2.67224 8.71784 2.96434 8.80341 3.26429 8.81964C3.43929 8.81964 3.56429 8.77297 3.56429 8.62897C3.56429 8.48167 3.37779 8.41432 3.15263 8.33301C2.80965 8.20914 2.37695 8.05288 2.37695 7.53231C2.37695 6.97897 2.79995 6.64797 3.43329 6.64797C3.69847 6.64545 3.96163 6.69423 4.20829 6.79164V7.52497C3.96893 7.39918 3.70362 7.33072 3.43329 7.32497Z" fill="#202327"/>
</svg>
