<svg xmlns="http://www.w3.org/2000/svg" viewBox="0 0 16 16" class="sageicon"><path fill-rule="evenodd" d="M1.333 3.667c0-.184.15-.334.334-.334h12.666c.184 0 .334.15.334.334v8.666c0 .184-.15.334-.334.334H1.667a.333.333 0 0 1-.334-.334V3.667ZM1.667 2C.747 2 0 2.746 0 3.667v8.666C0 13.253.746 14 1.667 14h12.666c.92 0 1.667-.746 1.667-1.667V3.667C16 2.747 15.254 2 14.333 2H1.667ZM8 8c0 .62-.426 1.137-1 1.286V6.714c.574.149 1 .667 1 1.286Zm1.333-2.667H6.667a2.667 2.667 0 0 0 0 5.334h2.666a2.667 2.667 0 0 0 0-5.334ZM6.667 10c-1.103 0-2-.897-2-2s.897-2 2-2 2 .897 2 2-.897 2-2 2ZM5.333 8c0-.62.427-1.137 1-1.286v2.572c-.573-.149-1-.667-1-1.286Z"/></svg>