<svg xmlns="http://www.w3.org/2000/svg" viewBox="0 0 16 16" class="sageicon"><path fill-rule="evenodd" d="M1.667 3.333a.333.333 0 0 0-.334.334v8.666c0 .184.15.334.334.334h12.666c.184 0 .334-.15.334-.334V3.667a.333.333 0 0 0-.334-.334H1.667ZM0 3.667C0 2.747.746 2 1.667 2h12.666C15.253 2 16 2.746 16 3.667v8.666c0 .92-.746 1.667-1.667 1.667H1.667C.747 14 0 13.254 0 12.333V3.667Zm10.579 5.735a4.302 4.302 0 0 1-.39.728c-.253.385-.61.865-1.053.869-.182.002-.3-.053-.43-.112-.149-.068-.31-.142-.597-.14-.285 0-.45.074-.6.142A.963.963 0 0 1 7.07 11c-.442-.004-.78-.437-1.033-.823-.708-1.078-.782-2.342-.346-3.015.31-.478.8-.757 1.26-.757.246 0 .444.07.632.138.171.06.335.119.52.119.17 0 .311-.053.464-.111.184-.07.387-.146.683-.146.41 0 .843.223 1.153.608-1.014.555-.849 2.002.175 2.389ZM9.132 5c.054.365-.095.721-.292.974-.211.27-.575.48-.926.47-.064-.35.101-.709.3-.95.22-.267.596-.472.918-.494Z"/></svg>