<svg width="16" height="16" viewBox="0 0 16 16" fill="none" xmlns="http://www.w3.org/2000/svg">
<path fill-rule="evenodd" clip-rule="evenodd" d="M1.66667 3.33333C1.48252 3.33333 1.33333 3.48252 1.33333 3.66667V12.3333C1.33333 12.5175 1.48252 12.6667 1.66667 12.6667H14.3333C14.5175 12.6667 14.6667 12.5175 14.6667 12.3333V3.66667C14.6667 3.48252 14.5175 3.33333 14.3333 3.33333H1.66667ZM0 3.66667C0 2.74614 0.746144 2 1.66667 2H14.3333C15.2539 2 16 2.74614 16 3.66667V12.3333C16 13.2539 15.2539 14 14.3333 14H1.66667C0.746144 14 0 13.2539 0 12.3333V3.66667ZM10.5787 9.402C10.4377 9.71433 10.3703 9.85366 10.1887 10.1297C9.93568 10.515 9.57868 10.995 9.13635 10.999C8.95443 11.0007 8.83508 10.946 8.70645 10.8871C8.5572 10.8188 8.39547 10.7447 8.10901 10.7463C7.82425 10.7479 7.65979 10.8212 7.50853 10.8886C7.37649 10.9474 7.25451 11.0017 7.07135 11C6.62901 10.996 6.29101 10.5627 6.03768 10.177C5.32968 9.09933 5.25568 7.83466 5.69235 7.16233C6.00268 6.68433 6.49235 6.405 6.95268 6.405C7.19812 6.405 7.39584 6.47548 7.58419 6.54263C7.75549 6.60369 7.91903 6.662 8.10368 6.662C8.27454 6.662 8.41505 6.60886 8.56836 6.55088C8.75243 6.48126 8.95497 6.40466 9.25068 6.40466C9.66035 6.40466 10.0943 6.62766 10.4037 7.013C9.39035 7.56833 9.55501 9.015 10.5787 9.402ZM9.13168 5C9.18602 5.36467 9.03668 5.72133 8.83968 5.974C8.62868 6.24467 8.26535 6.45433 7.91435 6.44333C7.85035 6.09433 8.01502 5.73533 8.21435 5.49333C8.43402 5.22667 8.81002 5.022 9.13168 5Z" fill="#202327"/>
</svg>
