<svg xmlns="http://www.w3.org/2000/svg" viewBox="0 0 16 16" class="sageicon"><path fill-rule="evenodd" d="M1.667 3.333a.333.333 0 0 0-.334.334v8.666c0 .184.15.334.334.334h12.666c.184 0 .334-.15.334-.334V3.667a.333.333 0 0 0-.334-.334H1.667ZM0 3.667C0 2.747.746 2 1.667 2h12.666C15.253 2 16 2.746 16 3.667v8.666c0 .92-.746 1.667-1.667 1.667H1.667C.747 14 0 13.254 0 12.333V3.667ZM10.097 6.4h-.933a.13.13 0 0 0-.128.11l-.377 2.393a.078.078 0 0 0 .077.09h.479a.091.091 0 0 0 .09-.077l.106-.679a.13.13 0 0 1 .128-.109h.296c.614 0 .97-.298 1.062-.887.042-.258.002-.461-.119-.603-.133-.155-.368-.238-.68-.238Zm.108.874c-.051.335-.307.335-.554.335H9.51l.099-.625a.078.078 0 0 1 .077-.066h.042c.187 0 .349-.001.432.096.049.058.064.143.045.26Zm-7.698-.874h.933c.312 0 .547.083.68.239.121.141.161.344.12.602-.093.59-.448.887-1.063.887h-.295a.13.13 0 0 0-.128.11l-.102.645a.13.13 0 0 1-.128.11h-.446a.078.078 0 0 1-.077-.09L2.38 6.51a.13.13 0 0 1 .128-.109Zm.486 1.21c.248 0 .504 0 .555-.336.018-.117.003-.202-.046-.26-.082-.096-.241-.096-.41-.096h-.064a.078.078 0 0 0-.077.066l-.099.625h.141Zm3.237-.346h-.447a.078.078 0 0 0-.077.065l-.02.125-.008-.011c-.046-.07-.146-.221-.551-.221-.494 0-.916.374-.998.899a.845.845 0 0 0 .167.686c.136.16.33.228.563.228.398 0 .618-.256.618-.256l-.02.124a.078.078 0 0 0 .077.09h.403a.13.13 0 0 0 .128-.109l.242-1.53a.078.078 0 0 0-.077-.09Zm-.623.87a.498.498 0 0 1-.504.426c-.13 0-.234-.041-.3-.12a.38.38 0 0 1-.07-.314.5.5 0 0 1 .5-.43c.128 0 .23.042.299.121.068.08.095.193.075.317Zm6.833-.87h.447c.048 0 .085.042.077.09l-.242 1.53a.13.13 0 0 1-.128.11h-.402a.078.078 0 0 1-.077-.09l.02-.125s-.221.256-.619.256c-.232 0-.427-.067-.563-.228a.845.845 0 0 1-.166-.686c.082-.525.504-.9.997-.9.405 0 .505.151.552.221l.008.012.02-.125a.078.078 0 0 1 .076-.065Zm-.68 1.296a.498.498 0 0 0 .504-.426.387.387 0 0 0-.075-.317.376.376 0 0 0-.298-.121.5.5 0 0 0-.501.43.38.38 0 0 0 .07.314c.067.079.17.12.3.12ZM8.61 7.265h-.449a.13.13 0 0 0-.107.057l-.62.912-.263-.877a.13.13 0 0 0-.124-.092h-.442a.078.078 0 0 0-.073.103l.494 1.452-.465.656a.078.078 0 0 0 .063.123h.449a.13.13 0 0 0 .107-.056l1.494-2.156a.078.078 0 0 0-.064-.122Zm4.421 1.64.383-2.438a.077.077 0 0 1 .077-.065h.431c.048 0 .084.042.077.09l-.378 2.393a.13.13 0 0 1-.128.11h-.385a.078.078 0 0 1-.077-.09Z"/></svg>