<svg width="16" height="16" viewBox="0 0 16 16" fill="none" xmlns="http://www.w3.org/2000/svg">
<path fill-rule="evenodd" clip-rule="evenodd" d="M14.4 2H1.73333C0.666667 2 0 2.66667 0 3.66667V12.2667C0 13.3333 0.666667 14 1.66667 14H14.2667C15.2667 14 15.9333 13.3333 15.9333 12.4V3.73333C16 2.66667 15.3333 2 14.4 2ZM1.4 5.33333H8.06667H14.7333V6H1.4V5.33333ZM1.66667 3.4H14.3333C14.5333 3.4 14.6667 3.53333 14.6667 3.73333V4H1.33333V3.66667C1.4 3.46667 1.46667 3.4 1.66667 3.4ZM1.73333 12.6C1.53333 12.6 1.4 12.4667 1.4 12.2667V7.33333H14.7333V12.3333C14.6667 12.5333 14.6 12.6 14.4 12.6H1.73333ZM6.66669 10H3.33335C2.93335 10 2.66669 10.2667 2.66669 10.6667C2.66669 11.0667 2.93335 11.3333 3.33335 11.3333H6.66669C7.06669 11.3333 7.33335 11.0667 7.33335 10.6667C7.33335 10.2667 7.06669 10 6.66669 10ZM12 10H12.6666C13.0666 10 13.3333 10.2667 13.3333 10.6667C13.3333 11.0667 13.0666 11.3333 12.6666 11.3333H12C11.6 11.3333 11.3333 11.0667 11.3333 10.6667C11.3333 10.2667 11.6 10 12 10Z" fill="#202327"/>
</svg>
