<svg width="16" height="16" viewBox="0 0 16 16" fill="none" xmlns="http://www.w3.org/2000/svg">
<path fill-rule="evenodd" clip-rule="evenodd" d="M1.66667 3.33333C1.48252 3.33333 1.33333 3.48252 1.33333 3.66667V12.3333C1.33333 12.5175 1.48252 12.6667 1.66667 12.6667H14.3333C14.5175 12.6667 14.6667 12.5175 14.6667 12.3333V3.66667C14.6667 3.48252 14.5175 3.33333 14.3333 3.33333H1.66667ZM0 3.66667C0 2.74614 0.746144 2 1.66667 2H14.3333C15.2539 2 16 2.74614 16 3.66667V12.3333C16 13.2539 15.2539 14 14.3333 14H1.66667C0.746144 14 0 13.2539 0 12.3333V3.66667ZM6.41268 9.6H7.28235L7.82668 6.408H6.95668L6.41268 9.6ZM9.09263 7.294C9.09063 7.44334 9.27696 7.542 9.58096 7.68967C10.083 7.91734 10.3146 8.19367 10.3123 8.55667C10.3056 9.21934 9.71196 9.64734 8.7973 9.64734C8.40696 9.64334 8.0313 9.566 7.82796 9.477L7.94996 8.76234C8.3003 8.921 8.49496 8.98067 8.88096 8.98067C9.1313 8.98067 9.39963 8.883 9.40163 8.669C9.4033 8.52934 9.2893 8.42934 8.95063 8.273C8.62063 8.12034 8.1833 7.86434 8.1883 7.40567C8.1933 6.78534 8.79896 6.35234 9.65863 6.35234C9.99596 6.35234 10.266 6.42167 10.4383 6.48634L10.3203 7.17834C10.0943 7.07167 9.86963 7.015 9.59096 7.01934C9.2503 7.01934 9.09263 7.16134 9.09263 7.294ZM12.669 6.41101H11.9967C11.7884 6.41101 11.6327 6.46801 11.541 6.67568L10.249 9.60101H11.1627C11.1627 9.60101 11.312 9.20768 11.346 9.12134L11.8483 9.12195L12.4604 9.12268C12.4864 9.23434 12.5664 9.60101 12.5664 9.60101H13.3737L12.669 6.41101ZM11.5964 8.46868C11.6324 8.37668 11.9874 7.46501 12.0584 7.27168C12.07 7.32607 12.0793 7.36987 12.087 7.40579C12.1094 7.51058 12.1175 7.54818 12.1256 7.58575C12.1302 7.60673 12.1348 7.62769 12.142 7.66033C12.1621 7.75189 12.2024 7.93534 12.3187 8.46868H11.5964ZM4.83096 8.58699L5.68296 6.41033V6.40999H6.60463L5.23496 9.59599L4.31429 9.59699L3.54063 6.82466C3.27296 6.67666 2.96796 6.55732 2.62663 6.47466L2.63763 6.40833H4.04096C4.22996 6.41533 4.38263 6.47566 4.43529 6.67766L4.74029 8.14466L4.83096 8.58699Z" fill="#202327"/>
</svg>
