<svg width="16" height="16" viewBox="0 0 16 16" fill="none" xmlns="http://www.w3.org/2000/svg">
<path fill-rule="evenodd" clip-rule="evenodd" d="M1.66667 3.33333C1.48252 3.33333 1.33333 3.48252 1.33333 3.66667V12.3333C1.33333 12.5175 1.48252 12.6667 1.66667 12.6667H14.3333C14.5175 12.6667 14.6667 12.5175 14.6667 12.3333V3.66667C14.6667 3.48252 14.5175 3.33333 14.3333 3.33333H1.66667ZM0 3.66667C0 2.74614 0.746144 2 1.66667 2H14.3333C15.2539 2 16 2.74614 16 3.66667V12.3333C16 13.2539 15.2539 14 14.3333 14H1.66667C0.746144 14 0 13.2539 0 12.3333V3.66667ZM10.0973 6.401H9.16399C9.10033 6.401 9.04599 6.44733 9.03599 6.51033L8.65866 8.90367C8.65133 8.951 8.68766 8.99367 8.73566 8.99367H9.21466C9.25933 8.99367 9.29733 8.961 9.30433 8.917L9.41132 8.23833C9.42132 8.17533 9.47566 8.129 9.53932 8.129H9.83466C10.4493 8.129 10.8043 7.83134 10.897 7.24167C10.9387 6.98367 10.8987 6.781 10.778 6.63933C10.645 6.48367 10.4097 6.401 10.0973 6.401ZM10.205 7.27533C10.154 7.61033 9.89799 7.61033 9.65066 7.61033H9.50999L9.60866 6.98467C9.61466 6.947 9.64732 6.919 9.68566 6.919L9.72806 6.91892C9.91526 6.91839 10.0769 6.91793 10.16 7.015C10.209 7.07267 10.2237 7.15767 10.205 7.27533ZM2.50664 6.401H3.43998C3.75231 6.401 3.98731 6.48367 4.12064 6.63967C4.24131 6.78133 4.28131 6.984 4.23964 7.242C4.14698 7.83167 3.79198 8.12933 3.17731 8.12933H2.88198C2.81831 8.12933 2.76398 8.17567 2.75398 8.23867L2.65198 8.88433C2.64198 8.94733 2.58764 8.99367 2.52398 8.99367H2.07831C2.03031 8.99367 1.99398 8.951 2.00131 8.90367L2.37864 6.51033C2.38864 6.44733 2.44298 6.401 2.50664 6.401ZM2.99331 7.61033C3.24064 7.61033 3.49664 7.61033 3.54764 7.27533C3.56631 7.15767 3.55131 7.07267 3.50231 7.015C3.42031 6.919 3.26098 6.919 3.09264 6.919H3.02798C2.98964 6.919 2.95698 6.947 2.95098 6.98467L2.85231 7.61033H2.99331ZM6.22999 7.26466H5.78299C5.74465 7.26466 5.71199 7.29266 5.70599 7.33032L5.68632 7.45532L5.6784 7.4435C5.63197 7.37345 5.53205 7.22266 5.12699 7.22266C4.63332 7.22266 4.21132 7.59699 4.12932 8.12166C4.08665 8.38332 4.14732 8.63366 4.29565 8.80832C4.43199 8.96866 4.62665 9.03566 4.85865 9.03566C5.25665 9.03566 5.47732 8.77999 5.47732 8.77999L5.45732 8.90432C5.44999 8.95166 5.48632 8.99432 5.53432 8.99432H5.93699C6.00065 8.99432 6.05499 8.94799 6.06499 8.88499L6.30665 7.35499C6.31399 7.30732 6.27765 7.26466 6.22999 7.26466ZM5.60699 8.13466C5.56399 8.38999 5.36099 8.56132 5.10265 8.56132C4.97299 8.56132 4.86932 8.51966 4.80265 8.44066C4.73665 8.36232 4.71165 8.25099 4.73265 8.12666C4.77299 7.87366 4.97899 7.69666 5.23365 7.69666C5.36065 7.69666 5.46365 7.73866 5.53165 7.81832C5.59965 7.89866 5.62665 8.01099 5.60699 8.13466ZM12.4403 7.26466H12.8873C12.935 7.26466 12.9717 7.30732 12.964 7.35499L12.7223 8.88499C12.7123 8.94799 12.658 8.99432 12.5943 8.99432H12.1917C12.1437 8.99432 12.1073 8.95166 12.1147 8.90432L12.1347 8.77999C12.1347 8.77999 11.914 9.03566 11.516 9.03566C11.284 9.03566 11.0893 8.96866 10.953 8.80832C10.8047 8.63366 10.744 8.38332 10.7867 8.12166C10.8687 7.59699 11.2907 7.22266 11.7843 7.22266C12.1894 7.22266 12.2893 7.37345 12.3357 7.4435L12.3437 7.45532L12.3633 7.33032C12.3693 7.29266 12.402 7.26466 12.4403 7.26466ZM11.76 8.56132C12.0183 8.56132 12.221 8.38999 12.2643 8.13466C12.284 8.01099 12.257 7.89866 12.189 7.81832C12.121 7.73866 12.018 7.69666 11.891 7.69666C11.6363 7.69666 11.4303 7.87366 11.39 8.12666C11.369 8.25099 11.394 8.36232 11.46 8.44066C11.5267 8.51966 11.6303 8.56132 11.76 8.56132ZM8.61034 7.26465H8.161C8.118 7.26465 8.078 7.28598 8.05367 7.32165L7.434 8.23431L7.17134 7.35732C7.155 7.30232 7.10434 7.26465 7.047 7.26465H6.60534C6.552 7.26465 6.51434 7.31698 6.53167 7.36765L7.02634 8.81965L6.561 9.47632C6.52434 9.52798 6.56134 9.59898 6.62434 9.59898H7.073C7.11567 9.59898 7.15534 9.57798 7.17967 9.54331L8.67367 7.38698C8.71 7.33498 8.673 7.26465 8.61034 7.26465ZM13.031 8.90435L13.414 6.46702C13.42 6.42902 13.4526 6.40102 13.4906 6.40168H13.922C13.97 6.40168 14.0063 6.44435 13.999 6.49168L13.6213 8.88502C13.6113 8.94802 13.557 8.99435 13.4933 8.99435H13.108C13.06 8.99435 13.0236 8.95168 13.031 8.90435Z" fill="#202327"/>
</svg>
