<svg width="16" height="16" viewBox="0 0 16 16" fill="none" xmlns="http://www.w3.org/2000/svg">
<path fill-rule="evenodd" clip-rule="evenodd" d="M1.66667 3.33333C1.48252 3.33333 1.33333 3.48252 1.33333 3.66667V8V12.3333C1.33333 12.5175 1.48252 12.6667 1.66667 12.6667H14.3333C14.5175 12.6667 14.6667 12.5175 14.6667 12.3333V3.66667C14.6667 3.48252 14.5175 3.33333 14.3333 3.33333H1.66667ZM0 3.66667C0 2.74614 0.746144 2 1.66667 2H14.3333C15.2539 2 16 2.74614 16 3.66667V12.3333C16 13.2539 15.2539 14 14.3333 14H1.66667C0.746144 14 0 13.2539 0 12.3333V3.66667ZM5.66665 9C5.48265 9 5.33331 8.85067 5.33331 8.66667V7.33333C5.33331 7.14933 5.48265 7 5.66665 7C5.85065 7 5.99998 7.14933 5.99998 7.33333V8.66667C5.99998 8.85067 5.85065 9 5.66665 9ZM10 8.66667C10 8.85067 10.1493 9 10.3333 9C10.5173 9 10.6667 8.85067 10.6667 8.66667V7.33333C10.6667 7.14933 10.5173 7 10.3333 7C10.1493 7 10 7.14933 10 7.33333V8.66667ZM6.33331 7V9.66667C6.33331 9.85067 6.48265 10 6.66665 10H6.99998V10.6667C6.99998 10.8507 7.14931 11 7.33331 11C7.51731 11 7.66665 10.8507 7.66665 10.6667V10H8.33331V10.6667C8.33331 10.8507 8.48265 11 8.66665 11C8.85065 11 8.99998 10.8507 8.99998 10.6667V10H9.33331C9.51731 10 9.66665 9.85067 9.66665 9.66667V7H6.33331ZM9.05431 5.38566C9.42531 5.69133 9.66665 6.14833 9.66665 6.66666H6.33331C6.33331 6.14833 6.57465 5.69133 6.94565 5.38566L6.52798 4.759C6.47698 4.68266 6.49765 4.579 6.57431 4.528C6.65065 4.477 6.75431 4.49766 6.80531 4.57433L7.22298 5.20066C7.45598 5.07666 7.71765 5 7.99998 5C8.28231 5 8.54398 5.07666 8.77698 5.20066L9.19465 4.57433C9.24498 4.49733 9.34865 4.477 9.42565 4.528C9.50231 4.579 9.52298 4.68266 9.47198 4.759L9.05431 5.38566Z" fill="#202327"/>
</svg>
