<svg width="16" height="16" viewBox="0 0 16 16" fill="none" xmlns="http://www.w3.org/2000/svg">
<path fill-rule="evenodd" clip-rule="evenodd" d="M1.33333 3.66667C1.33333 3.48252 1.48252 3.33333 1.66667 3.33333H14.3333C14.5175 3.33333 14.6667 3.48252 14.6667 3.66667V12.3333C14.6667 12.5175 14.5175 12.6667 14.3333 12.6667H1.66667C1.48252 12.6667 1.33333 12.5175 1.33333 12.3333V3.66667ZM1.66667 2C0.746144 2 0 2.74614 0 3.66667V12.3333C0 13.2539 0.746144 14 1.66667 14H14.3333C15.2539 14 16 13.2539 16 12.3333V3.66667C16 2.74614 15.2539 2 14.3333 2H1.66667ZM4.28763 8.14298H3.51096L3.89929 7.19065L4.28763 8.14298ZM12.3436 6.33331H14.3333L12.926 7.99998L14.1876 9.66665H12.198L11.7613 9.14298L11.276 9.66665H7.39329V9.23798L7.24763 9.66665H6.27696L6.13129 9.28565V9.66665H4.23863L4.04463 9.14298H3.55929L3.36529 9.66665H1.66663L3.07396 6.33331H4.52996L4.72396 6.71431V6.33331H6.42263L6.81096 7.19031L7.19929 6.33331H11.4213L11.8583 6.85698L12.3436 6.33331ZM7.92696 9.19031H8.46096H8.50896V6.80931H7.58696L6.90763 8.42831L6.17963 6.80931H5.25763V9.04731L4.33563 6.80931H3.51063L2.49163 9.19031H3.12263L3.31663 8.66665H4.48129L4.67529 9.19031H5.79163V7.33331L6.61663 9.19031H7.10196L7.92696 7.33331V9.19031ZM12.5376 9.19031H13.2656L12.2463 7.99998L13.3136 6.80931H12.6343L11.9063 7.57131L11.227 6.80931H8.99463V9.19031H11.1786L11.9066 8.38065L12.5376 9.19031ZM9.52863 7.71431V7.28565H10.9363L11.5186 7.95231L10.8876 8.66665H9.52863V8.19065H10.742V7.71431H9.52863Z" fill="#202327"/>
</svg>
