<svg xmlns="http://www.w3.org/2000/svg" viewBox="0 0 16 16" class="sageicon"><path fill-rule="evenodd" d="M2 0C.898 0 0 .898 0 2v8.667c0 1.101.898 2 2 2h4.667v-1.334H2a.67.67 0 0 1-.667-.666V7.333H16V2c0-1.102-.899-2-2-2H2Zm12.667 2.667V2A.67.67 0 0 0 14 1.333H2A.67.67 0 0 0 1.333 2v.667h13.334ZM1.333 4v2h13.334V4H1.333ZM12 10c-.931 0-1.715.637-1.937 1.5l-1.291-.333a3.334 3.334 0 0 1 5.736-1.362l.972-.706L15.195 12l-2.847-.626 1.074-.78A1.993 1.993 0 0 0 12 10Zm0 4.667c.931 0 1.715-.637 1.937-1.5l1.291.332a3.334 3.334 0 0 1-5.736 1.363l-.972.705.285-2.9 2.847.626-1.074.78c.363.367.866.594 1.422.594Z"/></svg>