<svg xmlns="http://www.w3.org/2000/svg" viewBox="0 0 16 16" class="pdsicon"><path fill-rule="evenodd" d="M1.333 3.667c0-.184.15-.334.334-.334h12.666c.184 0 .334.15.334.334v8.666c0 .184-.15.334-.334.334H1.667a.333.333 0 0 1-.334-.334V3.667ZM1.667 2C.747 2 0 2.746 0 3.667v8.666C0 13.253.746 14 1.667 14h12.666c.92 0 1.667-.746 1.667-1.667V3.667C16 2.747 15.254 2 14.333 2H1.667Zm2.62 6.143h-.776l.388-.952.389.952Zm8.057-1.81h1.99L12.925 8l1.262 1.667h-1.99l-.437-.524-.485.524H7.393v-.429l-.145.429h-.971l-.146-.381v.38H4.24l-.194-.523h-.486l-.194.524H1.667l1.407-3.334H4.53l.194.381v-.38h1.699l.388.856.388-.857h4.222l.437.524.486-.524ZM7.927 9.19H8.509V6.81h-.922l-.68 1.618L6.18 6.81h-.922v2.238L4.336 6.81H3.51L2.49 9.19h.632l.194-.523H4.48l.194.523h1.117V7.333l.825 1.857h.485l.825-1.857V9.19Zm4.61 0h.729L12.246 8l1.068-1.19h-.68l-.728.761-.679-.762H8.995V9.19h2.184l.728-.81.63.81ZM9.53 7.714v-.428h1.407l.583.666-.631.715h-1.36V8.19h1.214v-.477H9.529Z"/></svg>