<svg xmlns="http://www.w3.org/2000/svg" viewBox="0 0 16 16" class="pdsicon"><path fill-rule="evenodd" d="M1.667 3.333a.333.333 0 0 0-.334.334v8.666c0 .184.15.334.334.334h12.666c.184 0 .334-.15.334-.334V3.667a.333.333 0 0 0-.334-.334H1.667ZM0 3.667C0 2.747.746 2 1.667 2h12.666C15.253 2 16 2.746 16 3.667v8.666c0 .92-.746 1.667-1.667 1.667H1.667C.747 14 0 13.254 0 12.333V3.667Zm8.343 3.337c-.563 0-1.02.44-1.02.984 0 .578.437 1.01 1.02 1.01a.998.998 0 0 0 1.018-.999c0-.557-.445-.995-1.018-.995ZM2 7.04h.549c.605 0 1.027.393 1.027.958 0 .282-.13.555-.347.735-.184.153-.393.222-.684.222H2V7.04Zm.474 1.59c.241 0 .393-.046.511-.152a.658.658 0 0 0 .206-.483.646.646 0 0 0-.205-.476c-.125-.111-.27-.155-.512-.155h-.1V8.63h.1ZM4.12 7.04h-.372v1.915h.372V7.04Zm.624.493c0 .104.065.159.29.241.425.155.552.293.551.598 0 .37-.273.629-.66.629-.285 0-.491-.113-.663-.365l.24-.233c.087.167.23.256.408.256.167 0 .29-.115.29-.27a.228.228 0 0 0-.111-.198 1.416 1.416 0 0 0-.259-.109c-.35-.127-.47-.262-.47-.526 0-.312.258-.548.597-.548.209 0 .401.072.562.213l-.195.255c-.098-.11-.19-.154-.302-.154-.161 0-.278.091-.278.211Zm.959.465c0 .563.442 1 1.01 1 .16 0 .298-.032.468-.112v-.44c-.15.15-.281.21-.451.21-.376 0-.643-.273-.643-.66 0-.367.275-.658.626-.658.177 0 .312.063.467.215v-.439a1.006 1.006 0 0 0-1.478.884Zm3.992-.958.51 1.286.518-1.286h.404L10.3 9.003h-.2L9.288 7.04h.407Zm1.602 1.915h1.058V8.63h-.685v-.516h.66v-.325h-.66v-.425h.685V7.04h-1.058v1.915Zm1.86-1.915c.43 0 .676.206.676.565 0 .293-.154.485-.435.542l.602.807h-.46l-.515-.77h-.049v.77h-.374V7.04h.554Zm-.18.88h.108c.239 0 .364-.103.364-.294 0-.186-.125-.284-.358-.284h-.115v.579Z"/></svg>