<svg width="16" height="16" viewBox="0 0 16 16" fill="none" xmlns="http://www.w3.org/2000/svg">
<path fill-rule="evenodd" clip-rule="evenodd" d="M1.66667 3.33333C1.48252 3.33333 1.33333 3.48252 1.33333 3.66667V12.3333C1.33333 12.5175 1.48252 12.6667 1.66667 12.6667H14.3333C14.5175 12.6667 14.6667 12.5175 14.6667 12.3333V3.66667C14.6667 3.48252 14.5175 3.33333 14.3333 3.33333H1.66667ZM0 3.66667C0 2.74614 0.746144 2 1.66667 2H14.3333C15.2539 2 16 2.74614 16 3.66667V12.3333C16 13.2539 15.2539 14 14.3333 14H1.66667C0.746144 14 0 13.2539 0 12.3333V3.66667ZM8.34305 7.00433C7.77972 7.00433 7.32239 7.44433 7.32239 7.988C7.32239 8.566 7.75972 8.99733 8.34305 8.99733C8.91239 8.99733 9.36106 8.55967 9.36106 7.999C9.36139 7.44167 8.91572 7.00433 8.34305 7.00433ZM2 7.04034H2.54867C3.154 7.04034 3.576 7.43268 3.57633 7.99801C3.57633 8.28034 3.44667 8.55301 3.22867 8.73334C3.045 8.88568 2.83567 8.95468 2.54533 8.95468H2V7.04034ZM2.47367 8.63034C2.71533 8.63034 2.86667 8.58401 2.98533 8.47801C3.114 8.36368 3.191 8.17968 3.19133 7.99534C3.19133 7.81168 3.114 7.63401 2.98567 7.51901C2.861 7.40768 2.71567 7.36434 2.474 7.36434H2.37367V8.63034H2.47367ZM4.12029 7.04034H3.74829V8.95468H4.12029V7.04034ZM4.74363 7.53336C4.74363 7.6367 4.8093 7.6917 5.03396 7.77403C5.45896 7.92936 5.58563 8.06736 5.5853 8.37203C5.5853 8.74169 5.3123 9.00103 4.92463 9.00103C4.6403 9.00103 4.43396 8.88836 4.26196 8.63636L4.50263 8.40303C4.58863 8.57003 4.7323 8.65903 4.90996 8.65903C5.07696 8.65903 5.2003 8.54436 5.2003 8.3887C5.2003 8.3087 5.1633 8.2397 5.08863 8.19136C5.05063 8.1677 4.9763 8.13303 4.82996 8.08203C4.47963 7.9547 4.35963 7.82036 4.35963 7.5557C4.35963 7.24403 4.61796 7.00836 4.95663 7.00836C5.16596 7.00836 5.3583 7.0797 5.51863 7.22103L5.3243 7.4757C5.2263 7.36636 5.13396 7.3217 5.0223 7.3217C4.86096 7.3217 4.74363 7.41303 4.74363 7.53336ZM5.70264 7.99801C5.70264 8.56101 6.14464 8.99734 6.7133 8.99734C6.87364 8.99734 7.0113 8.96568 7.18064 8.88568V8.44568C7.03097 8.59601 6.89964 8.65534 6.72964 8.65534C6.35364 8.65534 6.0873 8.38334 6.0873 7.99534C6.0873 7.62868 6.3623 7.33801 6.71297 7.33801C6.88997 7.33801 7.0253 7.40068 7.1803 7.55334V7.11401C7.01664 7.03134 6.8823 6.99701 6.72064 6.99701C6.15564 6.99701 5.70264 7.44168 5.70264 7.99801ZM9.6953 7.04034L10.2056 8.32568L10.7233 7.04034H11.1273L10.3 9.00301H10.0996L9.28796 7.04034H9.6953ZM11.2966 8.95468H12.3553V8.63034H11.6703V8.11368H12.3293V7.78934H11.6703V7.36434H12.3553V7.04034H11.2966V8.95468ZM13.1564 7.03998C13.5874 7.03998 13.8334 7.24631 13.8334 7.60498C13.8334 7.89798 13.679 8.09031 13.3977 8.14731L14 8.95431H13.5404L13.0247 8.18464H12.976V8.95431H12.6017V7.03998H13.1564ZM12.9764 7.92064H13.0847C13.324 7.92064 13.449 7.81731 13.449 7.62598C13.449 7.43964 13.324 7.34164 13.0907 7.34164H12.9764V7.92064Z" fill="#202327"/>
</svg>
