<svg xmlns="http://www.w3.org/2000/svg" viewBox="0 0 16 16" class="pdsicon"><path fill-rule="evenodd" d="M1.667 3.333a.333.333 0 0 0-.334.334v8.666c0 .184.15.334.334.334h12.666c.184 0 .334-.15.334-.334V3.667a.333.333 0 0 0-.334-.334H1.667ZM0 3.667C0 2.747.746 2 1.667 2h12.666C15.253 2 16 2.746 16 3.667v8.666c0 .92-.746 1.667-1.667 1.667H1.667C.747 14 0 13.254 0 12.333V3.667ZM6.413 9.6h.87l.544-3.192h-.87L6.413 9.6Zm2.68-2.306c-.002.15.184.248.488.396.502.227.734.504.731.867-.006.662-.6 1.09-1.515 1.09-.39-.004-.766-.081-.969-.17l.122-.715c.35.159.545.219.931.219.25 0 .519-.098.52-.312.002-.14-.112-.24-.45-.396-.33-.153-.768-.409-.763-.867.005-.62.611-1.054 1.47-1.054.338 0 .608.07.78.134l-.118.692a1.573 1.573 0 0 0-.729-.159c-.34 0-.498.142-.498.275Zm3.576-.883h-.672c-.209 0-.364.057-.456.265L10.249 9.6h.914l.183-.48h.502l.612.002c.026.111.106.478.106.478h.808l-.705-3.19Zm-1.073 2.058c.036-.092.391-1.004.462-1.197l.029.134a90.073 90.073 0 0 0 .055.254l.177.809h-.723Zm-6.765.118.852-2.177h.922l-1.37 3.186-.92.001-.774-2.772a3.667 3.667 0 0 0-.914-.35l.01-.067h1.404c.189.007.342.068.394.27l.305 1.467.091.442Z"/></svg>