<svg width="16" height="16" viewBox="0 0 16 16" fill="none" xmlns="http://www.w3.org/2000/svg">
<path fill-rule="evenodd" clip-rule="evenodd" d="M1.33333 3.66667C1.33333 3.48252 1.48252 3.33333 1.66667 3.33333H14.3333C14.5175 3.33333 14.6667 3.48252 14.6667 3.66667V12.3333C14.6667 12.5175 14.5175 12.6667 14.3333 12.6667H1.66667C1.48252 12.6667 1.33333 12.5175 1.33333 12.3333V3.66667ZM1.66667 2C0.746144 2 0 2.74614 0 3.66667V12.3333C0 13.2539 0.746144 14 1.66667 14H14.3333C15.2539 14 16 13.2539 16 12.3333V3.66667C16 2.74614 15.2539 2 14.3333 2H1.66667ZM8 7.99999C8 8.61932 7.57367 9.13699 7 9.28599V6.71399C7.57367 6.86299 8 7.38066 8 7.99999ZM9.33333 5.33331H6.66667C5.194 5.33331 4 6.52731 4 7.99998C4 9.47265 5.194 10.6666 6.66667 10.6666H9.33333C10.806 10.6666 12 9.47265 12 7.99998C12 6.52731 10.806 5.33331 9.33333 5.33331ZM6.66667 9.99998C5.56367 9.99998 4.66667 9.10298 4.66667 7.99998C4.66667 6.89698 5.56367 5.99998 6.66667 5.99998C7.76967 5.99998 8.66667 6.89698 8.66667 7.99998C8.66667 9.10298 7.76967 9.99998 6.66667 9.99998ZM5.33331 7.99999C5.33331 7.38066 5.75965 6.86299 6.33331 6.71399V9.28599C5.75965 9.13699 5.33331 8.61932 5.33331 7.99999Z" fill="#202327"/>
</svg>
