<svg xmlns="http://www.w3.org/2000/svg" viewBox="0 0 16 16" class="sageicon"><path fill-rule="evenodd" d="M1.333 3.667c0-.184.15-.334.334-.334h12.666c.184 0 .334.15.334.334v8.666c0 .184-.15.334-.334.334H1.667a.333.333 0 0 1-.334-.334V3.667ZM1.667 2C.747 2 0 2.746 0 3.667v8.666C0 13.253.746 14 1.667 14h12.666c.92 0 1.667-.746 1.667-1.667V3.667C16 2.747 15.254 2 14.333 2H1.667ZM8.07 7.463h2.917c.278 2.462-1.245 3.557-2.93 3.557-.497 0-.987-.119-1.427-.347a3.04 3.04 0 0 1-1.097-.964 2.969 2.969 0 0 1-.325-2.792 3.01 3.01 0 0 1 .848-1.183 3.1 3.1 0 0 1 2.78-.634c.48.125.923.364 1.289.695l-.909.853a1.816 1.816 0 0 0-1.628-.356c-.28.074-.539.213-.753.407a1.754 1.754 0 0 0-.258 2.333 1.827 1.827 0 0 0 1.48.757c.75 0 1.402-.274 1.666-1.095H8.07V7.463Z"/></svg>