<svg xmlns="http://www.w3.org/2000/svg" viewBox="0 0 16 16" class="sageicon"><path fill-rule="evenodd" d="M1.431 3.431a.333.333 0 0 1 .236-.098h12.666a.333.333 0 0 1 .334.334v8.666a.333.333 0 0 1-.334.334H1.667a.333.333 0 0 1-.334-.334V3.667c0-.089.035-.174.098-.236ZM1.667 2A1.667 1.667 0 0 0 0 3.667v8.666A1.666 1.666 0 0 0 1.667 14h12.666A1.666 1.666 0 0 0 16 12.333V3.667A1.667 1.667 0 0 0 14.333 2H1.667Zm10.83 4.647c.74 0 1.128.631 1.128 1.431l-.004.177a4.62 4.62 0 0 0-.002.101H12.09c.034.369.303.475.606.475.266.005.529-.054.767-.172v.625a1.742 1.742 0 0 1-.867.203c-.763 0-1.294-.474-1.294-1.415 0-.794.453-1.425 1.194-1.425Zm-.003.634c-.197 0-.413.147-.413.5h.807c0-.353-.204-.5-.394-.5Zm-3.01-.39a.883.883 0 0 1 .613-.244c.547 0 1.062.494 1.066 1.399 0 .99-.51 1.44-1.07 1.44a.879.879 0 0 1-.552-.196l-.003.884-.782.167V6.697h.688l.04.194Zm.225 1.877a.467.467 0 0 0 .2.032c.288 0 .482-.313.482-.731 0-.41-.197-.728-.482-.728a.464.464 0 0 0-.371.153l.003 1.159c.046.05.104.09.168.115ZM8.466 6.294l-.785.168v-.637l.785-.166v.635ZM7.68 6.7h.785v2.734H7.68V6.7Zm-.89 0 .05.231a.53.53 0 0 1 .65-.231v.719a.551.551 0 0 0-.594.162v1.852h-.781V6.7h.675Zm-2.275-.516.762-.162-.003.678h.594v.667h-.594v1.109c0 .462.494.319.594.278v.633a1.205 1.205 0 0 1-.547.104.785.785 0 0 1-.81-.804l.004-2.503ZM3.433 7.325c-.166 0-.266.047-.266.169 0 .133.172.191.385.264.348.118.806.274.809.852 0 .56-.447.882-1.097.882-.293-.001-.584-.062-.853-.178V8.57c.261.148.553.233.853.25.175 0 .3-.047.3-.191 0-.147-.186-.215-.411-.296-.343-.124-.776-.28-.776-.8 0-.554.423-.885 1.056-.885.265-.003.529.046.775.144v.733a1.746 1.746 0 0 0-.775-.2Z"/></svg>