<svg xmlns="http://www.w3.org/2000/svg" viewBox="0 0 16 16" class="sageicon"><path fill-rule="evenodd" d="M.667 0a.667.667 0 0 0 0 1.333h1.416l1.256 9.422a.667.667 0 0 0 .661.578h9.333a.667.667 0 0 0 .654-.536l.782-3.91a4 4 0 1 0-6.714-3.553h-4.36L3.327.578A.667.667 0 0 0 2.667 0h-2Zm7.388 4.667H3.873L4.583 10h8.204l.438-2.191a4.001 4.001 0 0 1-5.17-3.142Zm5.676 1.362-.009.007a2.667 2.667 0 1 1 .009-.007Zm-9.064 7.304a.667.667 0 1 0 0 1.334.667.667 0 0 0 0-1.334Zm-2 .667a2 2 0 1 1 4 0 2 2 0 0 1-4 0Zm10-.667a.667.667 0 1 0 0 1.334.667.667 0 0 0 0-1.334Zm-2 .667a2 2 0 1 1 4 0 2 2 0 0 1-4 0ZM12 2c.368 0 .667.298.667.667v.666h.666a.667.667 0 1 1 0 1.334h-.666v.666a.667.667 0 0 1-1.334 0v-.666h-.666a.667.667 0 1 1 0-1.334h.666v-.666c0-.369.299-.667.667-.667Z"/></svg>