<svg xmlns="http://www.w3.org/2000/svg" viewBox="0 0 16 16" class="pdsicon"><path fill-rule="evenodd" d="M16 8c0-1.6-1.1-3-2.7-3.3v-4c0-.4-.3-.7-.6-.7H.7C.3 0 0 .3 0 .7v12.7c0 .3.3.6.7.6H8c.4 0 .7-.3.7-.7 0-.4-.3-.7-.7-.7H1.3V1.3H12v3.4C10.5 5 9.3 6.4 9.3 8c0 .7.3 1.4.7 2v4.7c0 .2.1.4.3.5.2.1.4.2.6.1l1.8-.6 1.8.6c.2.1.4 0 .6-.1.2-.1.3-.3.3-.5V10c.3-.6.6-1.3.6-2Zm-3.3-2c1.1 0 2 .9 2 2s-.9 2-2 2-2-.9-2-2 .9-2 2-2Zm.2 7.4h-.4l-1.1.4v-2.7c.4.2.9.3 1.3.3.5 0 .9-.1 1.3-.3v2.7l-1.1-.4Z"/><path fill-rule="evenodd" d="M10 4c0-.4-.3-.7-.7-.7h-6c-.3 0-.6.3-.6.7 0 .4.3.7.7.7h6c.3 0 .6-.3.6-.7ZM7.3 6h-4c-.3 0-.6.3-.6.7 0 .3.3.6.6.6h4c.4 0 .7-.3.7-.6 0-.4-.3-.7-.7-.7ZM7.3 8.7h-4c-.3 0-.6.3-.6.6 0 .4.3.7.6.7h4c.4 0 .7-.3.7-.7 0-.3-.3-.6-.7-.6Z"/></svg>