<svg width="16" height="16" viewBox="0 0 16 16" fill="none" xmlns="http://www.w3.org/2000/svg">
<path d="M8 0C3.58 0 0 3.58 0 8C0 12.42 3.58 16 8 16C12.42 16 16 12.42 16 8C16 3.58 12.42 0 8 0ZM12.4733 5.80667L7.14 11.14C6.88 11.4 6.46 11.4 6.2 11.14L3.53333 8.47333C3.27333 8.21333 3.27333 7.79333 3.53333 7.53333C3.79333 7.27333 4.21333 7.27333 4.47333 7.53333L6.66667 9.72667L11.5267 4.86667C11.7867 4.60667 12.2067 4.60667 12.4667 4.86667C12.7333 5.12 12.7333 5.54667 12.4733 5.80667Z" fill="#202327"/>
</svg>
