<svg width="16" height="16" viewBox="0 0 16 16" fill="none" xmlns="http://www.w3.org/2000/svg">
<g clip-path="url(#clip0_4_389)">
<path fill-rule="evenodd" clip-rule="evenodd" d="M16 8C16 12.4183 12.4183 16 8 16C3.58172 16 0 12.4183 0 8C0 3.58172 3.58172 0 8 0C12.4183 0 16 3.58172 16 8ZM14.6666 8.00002C14.6666 11.6819 11.6819 14.6667 7.99995 14.6667C4.31806 14.6667 1.33329 11.6819 1.33329 8.00002C1.33329 4.31812 4.31806 1.33335 7.99995 1.33335C11.6819 1.33335 14.6666 4.31812 14.6666 8.00002ZM7.84095 4.24235H9.17807V11.9999H7.77277V5.60977H7.72732L5.91292 6.76887V5.48099L7.84095 4.24235Z" fill="#202327"/>
</g>
<defs>
<clipPath id="clip0_4_389">
<rect width="16" height="16" fill="white"/>
</clipPath>
</defs>
</svg>
