<svg xmlns="http://www.w3.org/2000/svg" viewBox="0 0 16 16" class="sageicon"><path fill-rule="evenodd" d="M16 8A8 8 0 1 1 0 8a8 8 0 0 1 16 0Zm-1.333 0A6.667 6.667 0 1 1 1.333 8a6.667 6.667 0 0 1 13.334 0ZM10.65 9.338c0 1.461-1.085 2.517-2.64 2.517-1.436 0-2.503-.88-2.538-2.1h1.292c.047.602.582 1.022 1.246 1.022.787 0 1.354-.585 1.35-1.407.004-.833-.578-1.43-1.386-1.433-.441-.003-.908.18-1.156.453l-1.203-.198L6 4.4h4.266v1.113H7.102l-.212 1.95h.043c.273-.323.8-.56 1.397-.56 1.336 0 2.32 1.02 2.32 2.435Z"/></svg>