<svg xmlns="http://www.w3.org/2000/svg" viewBox="0 0 16 16" class="pdsicon"><path fill-rule="evenodd" d="M16 8A8 8 0 1 1 0 8a8 8 0 0 1 16 0Zm-1.333 0A6.667 6.667 0 1 1 1.333 8a6.667 6.667 0 0 1 13.334 0Zm-3.86 1.652c.004 1.242-1.141 2.143-2.714 2.143-1.551 0-2.661-.858-2.697-2.1h1.35c.033.6.604.984 1.343.984.787 0 1.35-.446 1.347-1.096.003-.664-.55-1.13-1.48-1.13h-.65V7.424h.65c.762 0 1.293-.427 1.29-1.07.003-.618-.453-1.034-1.139-1.034-.678 0-1.253.384-1.275 1.002H5.55C5.58 5.09 6.685 4.24 8.114 4.24c1.47 0 2.424.916 2.42 2.036.004.826-.53 1.419-1.328 1.59v.058c1.03.148 1.605.808 1.602 1.728Z"/></svg>