<svg xmlns="http://www.w3.org/2000/svg" viewBox="0 0 16 16" class="sageicon"><path fill-rule="evenodd" d="M16 8A8 8 0 1 1 0 8a8 8 0 0 1 16 0Zm-1.333 0A6.667 6.667 0 1 1 1.333 8a6.667 6.667 0 0 1 13.334 0Zm-4.009 1.34c.004 1.454-1.063 2.546-2.65 2.535-1.411-.007-2.812-.872-2.808-3.57 0-2.513 1.117-3.985 2.884-3.985 1.39 0 2.348.894 2.506 2.083H9.28c-.137-.564-.564-.93-1.196-.93-1.02 0-1.588.94-1.591 2.488h.05c.352-.632 1.049-1.016 1.839-1.016 1.289 0 2.28 1.005 2.276 2.395Zm-4.022.04c.004.768.579 1.418 1.365 1.418.78 0 1.368-.625 1.365-1.43.003-.79-.568-1.407-1.347-1.407-.78 0-1.375.647-1.383 1.419Z"/></svg>