<svg xmlns="http://www.w3.org/2000/svg" viewBox="0 0 16 16" class="sageicon"><path fill-rule="evenodd" d="M16 8A8 8 0 1 1 0 8a8 8 0 0 1 16 0Zm-1.333 0A6.667 6.667 0 1 1 1.333 8a6.667 6.667 0 0 1 13.334 0Zm-3.918 1.723c-.004 1.196-1.142 2.072-2.733 2.072-1.605 0-2.74-.876-2.736-2.072a1.851 1.851 0 0 1 1.537-1.831v-.05c-.758-.165-1.268-.833-1.264-1.63C5.549 5.076 6.591 4.24 8.016 4.24c1.415 0 2.457.84 2.46 1.971-.004.798-.52 1.466-1.264 1.63v.051a1.872 1.872 0 0 1 1.537 1.831ZM6.652 9.63c-.007.679.531 1.138 1.364 1.138.823 0 1.358-.46 1.365-1.138-.007-.7-.582-1.203-1.365-1.203-.793 0-1.371.5-1.364 1.203Zm.2-3.293c-.006.64.482 1.081 1.164 1.081.672 0 1.157-.438 1.164-1.08-.007-.633-.478-1.057-1.164-1.057-.696 0-1.17.424-1.163 1.056Z"/></svg>