<svg xmlns="http://www.w3.org/2000/svg" viewBox="0 0 16 16" class="pdsicon"><path fill-rule="evenodd" d="M16 8A8 8 0 1 1 0 8a8 8 0 0 1 16 0Zm-1.333 0A6.667 6.667 0 1 1 1.333 8a6.667 6.667 0 0 1 13.334 0ZM5.36 6.68c0-1.435 1.06-2.53 2.654-2.52 1.41.007 2.804.873 2.808 3.551.003 2.532-1.12 4.004-2.884 4.004-1.393 0-2.355-.887-2.506-2.104h1.31c.133.585.56.952 1.196.952 1.017 0 1.587-.938 1.591-2.51h-.05c-.356.632-1.045 1.016-1.839 1.016-1.289 0-2.276-1.002-2.28-2.388Zm4.022-.039c0-.75-.578-1.404-1.365-1.404-.779 0-1.364.625-1.364 1.415.003.787.567 1.404 1.35 1.404.776 0 1.382-.653 1.379-1.415Z"/></svg>