<svg width="16" height="16" viewBox="0 0 16 16" fill="none" xmlns="http://www.w3.org/2000/svg">
<g clip-path="url(#clip0_3_3768)">
<path d="M8.66667 4C8.66667 3.63181 8.36819 3.33333 8 3.33333C7.63181 3.33333 7.33333 3.63181 7.33333 4V8C7.33333 8.36819 7.63181 8.66667 8 8.66667H12C12.3682 8.66667 12.6667 8.36819 12.6667 8C12.6667 7.63181 12.3682 7.33333 12 7.33333H8.66667V4Z" fill="#202327"/>
<path fill-rule="evenodd" clip-rule="evenodd" d="M8 0C3.58172 0 0 3.58172 0 8C0 12.4183 3.58172 16 8 16C12.4183 16 16 12.4183 16 8C16 3.58172 12.4183 0 8 0ZM1.33333 8C1.33333 4.3181 4.3181 1.33333 8 1.33333C11.6819 1.33333 14.6667 4.3181 14.6667 8C14.6667 11.6819 11.6819 14.6667 8 14.6667C4.3181 14.6667 1.33333 11.6819 1.33333 8Z" fill="#202327"/>
</g>
<defs>
<clipPath id="clip0_3_3768">
<rect width="16" height="16" fill="white"/>
</clipPath>
</defs>
</svg>
