<svg xmlns="http://www.w3.org/2000/svg" viewBox="0 0 16 16" class="pdsicon"><path fill-rule="evenodd" d="M0 3.333c0-.368.298-.666.667-.666h14.666c.368 0 .667.298.667.666v9.334a.667.667 0 0 1-.667.666H.667A.667.667 0 0 1 0 12.667V3.333ZM1.333 4v8h13.334V4H1.333Zm3.998 2.822a.917.917 0 0 0-.366.399c-.11.239-.165.5-.16.764v.058c-.024.36.083.715.3 1.003a.994.994 0 0 0 .763.289.67.67 0 0 1 .052-.002c.272.005.544-.04.8-.133a.667.667 0 0 1 .453 1.254c-.401.145-.824.217-1.25.213a2.328 2.328 0 0 1-1.847-.772 2.835 2.835 0 0 1-.604-1.909 3.062 3.062 0 0 1 .285-1.329l.001-.003a2.25 2.25 0 0 1 .914-.991l.01-.006a2.612 2.612 0 0 1 1.314-.324 3.12 3.12 0 0 1 1.39.318A.667.667 0 0 1 6.8 6.85a1.787 1.787 0 0 0-.825-.183 1.279 1.279 0 0 0-.644.156Zm4.401.399a.921.921 0 0 1 .367-.4 1.277 1.277 0 0 1 .667-.154c.277-.003.552.06.801.182a.667.667 0 1 0 .587-1.198 3.115 3.115 0 0 0-1.39-.318 2.61 2.61 0 0 0-1.314.324l-.01.006c-.399.23-.717.575-.914.99l-.002.004c-.193.416-.29.87-.284 1.328a2.832 2.832 0 0 0 .64 1.955 2.327 2.327 0 0 0 1.811.727c.426.004.85-.068 1.25-.213a.667.667 0 1 0-.452-1.254 2.256 2.256 0 0 1-.802.133c-.017 0-.035 0-.053.002a.993.993 0 0 1-.764-.289 1.499 1.499 0 0 1-.298-1.001c.001-.02.002-.04.001-.06a1.729 1.729 0 0 1 .16-.764Z"/></svg>