<svg width="16" height="16" viewBox="0 0 16 16" fill="none" xmlns="http://www.w3.org/2000/svg">
<g clip-path="url(#clip0_4_312)">
<path fill-rule="evenodd" clip-rule="evenodd" d="M5.33333 10.6667H2.66667C2.3 10.6667 2 10.3667 2 10C2 9.63333 2.3 9.33333 2.66667 9.33333H3.53333L6.70667 0.44C6.8 0.18 7.05333 0 7.33333 0H8.66667C8.94667 0 9.2 0.18 9.29333 0.44L12.4667 9.33333H13.3333C13.7 9.33333 14 9.63333 14 10C14 10.3667 13.7 10.6667 13.3333 10.6667H10.6667C10.3 10.6667 10 10.3667 10 10C10 9.63333 10.3 9.33333 10.6667 9.33333H11.06L10.1067 6.66667H5.9L4.94667 9.33333H5.33333C5.7 9.33333 6 9.63333 6 10C6 10.3667 5.7 10.6667 5.33333 10.6667ZM8.19333 1.33333H7.8L6.37333 5.33333H9.62L8.19333 1.33333ZM0.666667 12H15.3333C15.7 12 16 12.3 16 12.6667V15.3333C16 15.7 15.7 16 15.3333 16H0.666667C0.3 16 0 15.7 0 15.3333V12.6667C0 12.3 0.3 12 0.666667 12ZM1.33333 14.6667H14.6667V13.3333H1.33333V14.6667Z" fill="#202327"/>
</g>
<defs>
<clipPath id="clip0_4_312">
<rect width="16" height="16" fill="white"/>
</clipPath>
</defs>
</svg>
