<svg xmlns="http://www.w3.org/2000/svg" viewBox="0 0 16 16" class="sageicon"><path fill-rule="evenodd" d="M5.333 10.667H2.667A.669.669 0 0 1 2 10c0-.367.3-.667.667-.667h.866L6.707.44A.67.67 0 0 1 7.333 0h1.334c.28 0 .533.18.626.44l3.174 8.893h.866c.367 0 .667.3.667.667 0 .367-.3.667-.667.667h-2.666A.669.669 0 0 1 10 10c0-.367.3-.667.667-.667h.393l-.953-2.666H5.9l-.953 2.666h.386c.367 0 .667.3.667.667 0 .367-.3.667-.667.667Zm2.86-9.334H7.8l-1.427 4H9.62l-1.427-4ZM.667 12h14.666c.367 0 .667.3.667.667v2.666c0 .367-.3.667-.667.667H.667A.669.669 0 0 1 0 15.333v-2.666C0 12.3.3 12 .667 12Zm.666 2.667h13.334v-1.334H1.333v1.334Z"/></svg>