<svg xmlns="http://www.w3.org/2000/svg" viewBox="0 0 16 16" class="sageicon"><path fill-rule="evenodd" d="M14.667.667c.368 0 .666.298.666.666v13.334a.667.667 0 0 1-.666.666H12a.667.667 0 0 1-.667-.666V1.333c0-.368.299-.666.667-.666h2.667ZM14 2h-1.333v12H14V2ZM9.333.667c.368 0 .667.298.667.666v13.334a.667.667 0 0 1-.667.666H6.667A.667.667 0 0 1 6 14.667V1.333c0-.368.298-.666.667-.666h2.666ZM8.667 2H7.333v12h1.334V2Zm-4-.667A.667.667 0 0 0 4 .667H1.333a.667.667 0 0 0-.666.666v13.334c0 .368.298.666.666.666H4a.667.667 0 0 0 .667-.666V1.333ZM2 2h1.333v12H2V2Z"/></svg>