<svg xmlns="http://www.w3.org/2000/svg" viewBox="0 0 16 16" class="sageicon"><path fill-rule="evenodd" d="M0 7.333C0 3.513 3.697.667 8 .667s8 2.846 8 6.666c0 1.568-.667 2.975-1.702 4.102l.364 3.155a.667.667 0 0 1-.913.694l-3.723-1.514C9.358 13.943 8.694 14 8 14c-4.303 0-8-2.846-8-6.667ZM8 2C4.17 2 1.333 4.487 1.333 7.333S4.17 12.667 8 12.667c.692 0 1.29-.063 1.875-.239a.667.667 0 0 1 .443.021l2.89 1.176-.27-2.349a.667.667 0 0 1 .19-.547c.97-.97 1.539-2.142 1.539-3.396C14.667 4.487 11.83 2 8 2Z"/></svg>