<svg xmlns="http://www.w3.org/2000/svg" viewBox="0 0 16 16" class="pdsicon"><path fill-rule="evenodd" d="M1.333 4.667a2 2 0 0 1 2-2h6a2 2 0 0 1 2 2v2.666a2 2 0 0 1-2 2H6.667a.667.667 0 1 0 0 1.334h2.666a3.334 3.334 0 0 0 3.334-3.334V4.667a3.333 3.333 0 0 0-3.334-3.334h-6A3.333 3.333 0 0 0 0 4.667v2.666c0 .996.438 1.891 1.129 2.501a.667.667 0 0 0 .882-1 1.994 1.994 0 0 1-.678-1.5V4.666Zm3.334 4a2 2 0 0 1 2-2h2.666a.667.667 0 0 0 0-1.334H6.667a3.333 3.333 0 0 0-3.334 3.334v2.666a3.333 3.333 0 0 0 3.334 3.334h6A3.333 3.333 0 0 0 16 11.333V8.667c0-.996-.438-1.891-1.129-2.501a.667.667 0 0 0-.882 1c.416.367.678.903.678 1.5v2.667a2 2 0 0 1-2 2h-6a2 2 0 0 1-2-2V8.667Z"/></svg>