<svg xmlns="http://www.w3.org/2000/svg" viewBox="0 0 16 16" class="pdsicon"><path fill-rule="evenodd" d="M9.333 7.333c0-.368.299-.666.667-.666h2.667a.667.667 0 1 1 0 1.333H10a.667.667 0 0 1-.667-.667ZM9.333 10c0-.368.299-.667.667-.667h2.667a.667.667 0 1 1 0 1.334H10A.667.667 0 0 1 9.333 10Z"/><path d="M3.333 11.333c-.368 0-.677-.306-.557-.654a2 2 0 0 1 1.89-1.346H6a2 2 0 0 1 1.89 1.346c.12.348-.188.654-.557.654h-4Z"/><path fill-rule="evenodd" d="M0 2.667c0-.737.597-1.334 1.333-1.334h1.334c.387 0 .698.169.92.36.22.187.38.42.494.626a.666.666 0 0 0 1.171 0 2.25 2.25 0 0 1 .494-.626c.222-.191.534-.36.92-.36h2.667c.387 0 .699.169.921.36.219.187.38.42.494.626a.666.666 0 0 0 1.171 0 2.25 2.25 0 0 1 .494-.626c.222-.191.533-.36.92-.36h1.334c.736 0 1.333.597 1.333 1.334v10.666c0 .737-.597 1.334-1.333 1.334H1.333A1.333 1.333 0 0 1 0 13.333V2.667Zm2.663 0h-1.33v10.666h13.334V2.667h-1.33a.201.201 0 0 0-.056.038.935.935 0 0 0-.192.254 2 2 0 0 1-3.51 0 .935.935 0 0 0-.193-.254.201.201 0 0 0-.057-.038H6.671a.201.201 0 0 0-.057.038.935.935 0 0 0-.192.254 2 2 0 0 1-3.51 0 .935.935 0 0 0-.193-.254.2.2 0 0 0-.056-.038Zm-.004-.001h.003-.003Zm4.015 0h-.002.002Zm2.652 0h.002-.002Zm4.015 0h-.003.003Z"/><path d="M5.333 8.667a1.333 1.333 0 1 0 0-2.667 1.333 1.333 0 0 0 0 2.667Z"/></svg>