<svg width="16" height="16" viewBox="0 0 16 16" fill="none" xmlns="http://www.w3.org/2000/svg">
<g clip-path="url(#clip0_3_1669)">
<path fill-rule="evenodd" clip-rule="evenodd" d="M0 8C0 3.58867 3.58867 0 8 0C12.4113 0 16 3.58867 16 8C16 12.4113 12.4113 16 8 16C3.58867 16 0 12.4113 0 8ZM9.33333 10.6667C10.7987 10.6667 12.0227 11.6207 12.4653 12.936C13.8133 11.7153 14.6667 9.95733 14.6667 8C14.6667 4.324 11.676 1.33333 8 1.33333C4.324 1.33333 1.33333 4.324 1.33333 8C1.33333 9.958 2.18733 11.716 3.536 12.9367C3.97867 11.6213 5.20133 10.6667 6.66667 10.6667H9.33333ZM5.33333 6C5.33333 4.52733 6.52733 3.33333 8 3.33333C9.47267 3.33333 10.6667 4.52733 10.6667 6V6.66667C10.6667 8.13933 9.47267 9.33333 8 9.33333C6.52733 9.33333 5.33333 8.13933 5.33333 6.66667V6Z" fill="#202327"/>
</g>
<defs>
<clipPath id="clip0_3_1669">
<rect width="16" height="16" fill="white"/>
</clipPath>
</defs>
</svg>
