<svg xmlns="http://www.w3.org/2000/svg" viewBox="0 0 16 16" class="sageicon"><path d="M16 8c0-4.413-3.587-8-8-8S0 3.587 0 8a7.98 7.98 0 0 0 2.853 6.113l.034.034A7.97 7.97 0 0 0 8 16a7.97 7.97 0 0 0 5.113-1.853l.034-.034A7.98 7.98 0 0 0 16 8ZM1.333 8c0-3.673 2.994-6.667 6.667-6.667 3.673 0 6.667 2.994 6.667 6.667 0 1.6-.567 3.067-1.514 4.22a2.642 2.642 0 0 0-1.166-1.373l-1.387-.794A3.27 3.27 0 0 0 11.333 8V6.667a3.335 3.335 0 0 0-6.666 0V8c0 .78.28 1.487.726 2.053l-1.38.794a2.667 2.667 0 0 0-1.166 1.373A6.624 6.624 0 0 1 1.333 8ZM6 8V6.667c0-1.1.9-2 2-2s2 .9 2 2V8c0 1.1-.9 2-2 2s-2-.9-2-2Zm-2 5.32v-.16c0-.48.26-.92.673-1.16l1.82-1.047c.454.234.96.38 1.507.38.547 0 1.047-.14 1.5-.373L11.327 12c.413.24.673.68.673 1.16v.16a6.628 6.628 0 0 1-4 1.347c-1.5 0-2.887-.507-4-1.347Z"/></svg>