<svg width="16" height="16" viewBox="0 0 16 16" fill="none" xmlns="http://www.w3.org/2000/svg">
<g clip-path="url(#clip0_3_1667)">
<path d="M16 8C16 3.58667 12.4133 0 8 0C3.58667 0 0 3.58667 0 8C0 10.4533 1.11333 12.6467 2.85333 14.1133C2.86667 14.1267 2.87333 14.1333 2.88667 14.1467C4.27333 15.3 6.05333 16 8 16C9.94667 16 11.7267 15.3 13.1133 14.1467C13.1267 14.1333 13.1333 14.1267 13.1467 14.1133C14.8867 12.6467 16 10.4533 16 8ZM1.33333 8C1.33333 4.32667 4.32667 1.33333 8 1.33333C11.6733 1.33333 14.6667 4.32667 14.6667 8C14.6667 9.6 14.1 11.0667 13.1533 12.22C12.94 11.6467 12.5333 11.16 11.9867 10.8467L10.6 10.0533C11.0533 9.48667 11.3333 8.78 11.3333 8V6.66667C11.3333 4.82667 9.84 3.33333 8 3.33333C6.16 3.33333 4.66667 4.82667 4.66667 6.66667V8C4.66667 8.78 4.94667 9.48667 5.39333 10.0533L4.01333 10.8467C3.46667 11.16 3.06 11.6533 2.84667 12.22C1.9 11.0667 1.33333 9.6 1.33333 8ZM6 8V6.66667C6 5.56667 6.9 4.66667 8 4.66667C9.1 4.66667 10 5.56667 10 6.66667V8C10 9.1 9.1 10 8 10C6.9 10 6 9.1 6 8ZM4 13.32V13.16C4 12.68 4.26 12.24 4.67333 12L6.49333 10.9533C6.94667 11.1867 7.45333 11.3333 8 11.3333C8.54667 11.3333 9.04667 11.1933 9.5 10.96L11.3267 12C11.74 12.24 12 12.68 12 13.16V13.32C10.8867 14.16 9.5 14.6667 8 14.6667C6.5 14.6667 5.11333 14.16 4 13.32Z" fill="#202327"/>
</g>
<defs>
<clipPath id="clip0_3_1667">
<rect width="16" height="16" fill="white"/>
</clipPath>
</defs>
</svg>
