<svg xmlns="http://www.w3.org/2000/svg" viewBox="0 0 16 16" class="sageicon"><path fill-rule="evenodd" d="M.667 2A.667.667 0 0 0 0 2.667V6c0 .368.298.667.667.667C1.432 6.667 2 7.235 2 8S1.432 9.333.667 9.333A.667.667 0 0 0 0 10v3.333c0 .368.298.667.667.667h14.666a.667.667 0 0 0 .667-.667V10a.667.667 0 0 0-.667-.667C14.568 9.333 14 8.765 14 8s.568-1.333 1.333-1.333A.667.667 0 0 0 16 6V2.667A.667.667 0 0 0 15.333 2H.667Zm.666 3.413v-2.08h13.334v2.08c-1.166.287-2 1.317-2 2.587 0 1.27.834 2.3 2 2.587v2.08H1.333v-2.08c1.166-.287 2-1.317 2-2.587 0-1.27-.834-2.3-2-2.587Zm9.138 1.058a.667.667 0 1 0-.942-.942l-4 4a.667.667 0 1 0 .942.942l4-4Zm-4.138.196a1 1 0 1 0 0-2 1 1 0 0 0 0 2Zm4.334 3.666a1 1 0 1 1-2 0 1 1 0 0 1 2 0Z"/></svg>