<svg xmlns="http://www.w3.org/2000/svg" viewBox="0 0 16 16" class="sageicon"><path fill-rule="evenodd" d="M4.7 2.7c-.4 0-.7.3-.7.6V10c0 .4.3.7.7.7H14c.4 0 .7-.3.7-.7V3.3c0-.4-.3-.7-.7-.7H4.7v.1Zm-2 .6c0-1.1.9-2 2-2H14c1.1 0 2 .9 2 2V10c0 1.1-.9 2-2 2H4.7c-1.1 0-2-.9-2-2V3.3Z"/><path fill-rule="evenodd" d="M.7 4c.3 0 .6.3.6.7v8c0 .2.1.3.2.5.1.1.3.2.5.2h10.7c.4 0 .7.3.7.7 0 .4-.3.7-.7.7H2c-.5 0-1-.2-1.4-.6-.4-.5-.6-1-.6-1.5v-8c0-.4.3-.7.7-.7Z"/><path fill-rule="evenodd" d="M7.7 4.1c.2-.1.4-.1.6 0l3.3 2c.3.1.4.3.4.6 0 .2-.1.5-.3.6l-3.3 2c-.2.1-.5.1-.7 0-.2-.2-.4-.4-.4-.6v-4c0-.3.2-.5.4-.6Zm1 1.7v1.6l1.3-.7-1.3-.9Z"/></svg>