<svg xmlns="http://www.w3.org/2000/svg" viewBox="0 0 16 16" class="sageicon"><path fill-rule="evenodd" d="M7.681.667c.243 0 .465.147.572.38l1.822 3.947 4.075.633c.24.037.44.217.514.464a.715.715 0 0 1-.161.699L12.59 8.783a.609.609 0 0 1-.902-.012.716.716 0 0 1 .012-.964l.988-1.03-3.128-.485a.642.642 0 0 1-.48-.373L7.68 2.889l-1.398 3.03a.642.642 0 0 1-.48.373l-3.128.486 2.263 2.359c.15.156.219.382.183.603l-.534 3.331 1.522-.855c.312-.175.697-.047.861.286.164.333.044.746-.268.92l-2.665 1.499a.603.603 0 0 1-.672-.052.705.705 0 0 1-.253-.667l.696-4.34L.859 6.79a.715.715 0 0 1-.161-.7.651.651 0 0 1 .515-.463l4.074-.633L7.11 1.047a.635.635 0 0 1 .572-.38ZM8.32 14.65c0-.376.285-.681.637-.681h5.74c.352 0 .637.305.637.681 0 .377-.285.682-.637.682h-5.74c-.352 0-.637-.305-.637-.682Zm.637-4.09c-.352 0-.637.304-.637.68 0 .377.285.683.637.683h5.74c.352 0 .637-.306.637-.682 0-.377-.285-.682-.637-.682h-5.74Z"/></svg>