<svg width="16" height="16" viewBox="0 0 16 16" fill="none" xmlns="http://www.w3.org/2000/svg">
<g clip-path="url(#clip0_4_243)">
<path fill-rule="evenodd" clip-rule="evenodd" d="M4.49126 0.195262C4.61629 0.0702379 4.78586 0 4.96267 0H11.0373C11.2141 0 11.3837 0.0702379 11.5087 0.195262L15.8047 4.49126C15.9298 4.61629 16 4.78586 16 4.96267V11.0373C16 11.2141 15.9298 11.3837 15.8047 11.5087L11.5087 15.8047C11.3837 15.9298 11.2141 16 11.0373 16H4.96267C4.78586 16 4.61629 15.9298 4.49126 15.8047L0.195262 11.5087C0.0702379 11.3837 0 11.2141 0 11.0373V4.96267C0 4.78586 0.0702379 4.61629 0.195262 4.49126L4.49126 0.195262ZM5.23881 1.33333L1.33333 5.23881V10.7612L5.23881 14.6667H10.7612L14.6667 10.7612V5.23881L10.7612 1.33333H5.23881Z" fill="#202327"/>
<path fill-rule="evenodd" clip-rule="evenodd" d="M8 4C8.36819 4 8.66667 4.29848 8.66667 4.66667V8.66667C8.66667 9.03486 8.36819 9.33333 8 9.33333C7.63181 9.33333 7.33333 9.03486 7.33333 8.66667V4.66667C7.33333 4.29848 7.63181 4 8 4Z" fill="#202327"/>
<path d="M8 12C8.36819 12 8.66667 11.7015 8.66667 11.3333C8.66667 10.9651 8.36819 10.6667 8 10.6667C7.63181 10.6667 7.33333 10.9651 7.33333 11.3333C7.33333 11.7015 7.63181 12 8 12Z" fill="#202327"/>
</g>
<defs>
<clipPath id="clip0_4_243">
<rect width="16" height="16" fill="white"/>
</clipPath>
</defs>
</svg>
