<svg xmlns="http://www.w3.org/2000/svg" viewBox="0 0 16 16" class="pdsicon"><path fill-rule="evenodd" d="M4.491.195A.667.667 0 0 1 4.963 0h6.074c.177 0 .347.07.472.195l4.296 4.296a.666.666 0 0 1 .195.472v6.074c0 .177-.07.347-.195.472l-4.296 4.296a.666.666 0 0 1-.472.195H4.963a.666.666 0 0 1-.472-.195L.195 11.509A.667.667 0 0 1 0 11.037V4.963c0-.177.07-.347.195-.472L4.491.195Zm.748 1.138L1.333 5.24v5.522l3.906 3.906h5.522l3.906-3.906V5.24L10.76 1.333H5.24Z"/><path fill-rule="evenodd" d="M8 4c.368 0 .667.298.667.667v4a.667.667 0 0 1-1.334 0v-4C7.333 4.298 7.632 4 8 4Z"/><path d="M8 12a.667.667 0 1 0 0-1.333A.667.667 0 0 0 8 12Z"/></svg>