<svg xmlns="http://www.w3.org/2000/svg" viewBox="0 0 16 16" class="sageicon"><path fill-rule="evenodd" d="M7.588.817c.265-.2.598-.2.864 0l7.312 5.993c.266.2.333.666.067.932-.2.267-.665.333-.931.067L7.986 2.215l-6.913 5.66c-.266.2-.731.2-.93-.066-.2-.266-.2-.733.066-.932L7.588.817ZM5.992 11.338c0-.4.266-.665.665-.665h2.659c.399 0 .665.266.665.665v3.33h2.659V8.675c0-.4.266-.666.665-.666s.664.266.664.666v6.66c0 .399-.265.665-.664.665H2.668c-.399 0-.664-.266-.664-.666v-6.66c0-.399.265-.665.664-.665.4 0 .665.266.665.666v5.993h2.66v-3.33Zm1.33 3.33h1.33v-2.664h-1.33v2.664Z"/></svg>