<svg xmlns="http://www.w3.org/2000/svg" viewBox="0 0 16 16" class="pdsicon"><path d="M7.529 6.195c.26-.26.682-.26.942 0l.862.862.862-.862a.667.667 0 1 1 .943.943L10.276 8l.862.862a.667.667 0 0 1-.943.943l-.862-.862-.862.862a.667.667 0 1 1-.942-.943L8.39 8l-.862-.862a.667.667 0 0 1 0-.943Z"/><path fill-rule="evenodd" d="M4.827 2.9a.667.667 0 0 1 .506-.233h10c.368 0 .667.298.667.666v9.334a.667.667 0 0 1-.667.666h-10a.667.667 0 0 1-.506-.232l-4-4.667a.667.667 0 0 1 0-.868l4-4.667ZM5.64 4 2.211 8l3.429 4h9.027V4H5.64Z"/></svg>