<svg width="16" height="16" viewBox="0 0 16 16" fill="none" xmlns="http://www.w3.org/2000/svg">
<g clip-path="url(#clip0_3_3722)">
<path fill-rule="evenodd" clip-rule="evenodd" d="M8.75 0.666664C8.75 0.252451 8.41421 -0.0833359 8 -0.0833359C7.58579 -0.0833359 7.25 0.252451 7.25 0.666664V1.28982C6.53251 1.36689 5.78755 1.56282 5.15289 1.93747C4.25307 2.46865 3.58332 3.36352 3.58332 4.66667C3.58332 5.28704 3.72724 5.82888 4.00443 6.29325C4.27902 6.75329 4.66021 7.097 5.0765 7.36191C5.71679 7.76937 6.50723 8.02756 7.25 8.23785V12.5618C6.22712 12.4982 5.21647 12.2955 4.24624 11.9582C3.85499 11.8222 3.42757 12.0292 3.29157 12.4204C3.15557 12.8117 3.36249 13.2391 3.75374 13.3751C4.88241 13.7674 6.05934 13.9991 7.25 14.0643V15.3333C7.25 15.7475 7.58579 16.0833 8 16.0833C8.41421 16.0833 8.75 15.7475 8.75 15.3333V14.0477C9.5527 13.9744 10.334 13.7794 10.9749 13.3814C11.868 12.8269 12.4167 11.9204 12.4167 10.6667C12.4167 10.0463 12.2727 9.50445 11.9956 9.04008C11.721 8.58004 11.3398 8.23633 10.9235 7.97142C10.2832 7.56396 9.49277 7.30578 8.75 7.09549V2.80268C9.41936 2.88715 10.0738 3.07129 10.6913 3.35018C11.0688 3.52068 11.513 3.35288 11.6835 2.97539C11.854 2.5979 11.6862 2.15366 11.3087 1.98315C10.497 1.6165 9.63284 1.38394 8.75 1.29296V0.666664ZM7.25 2.80091C6.75197 2.87025 6.28458 3.01127 5.91542 3.22919C5.40358 3.53134 5.08332 3.96981 5.08332 4.66667C5.08332 5.04629 5.16857 5.31695 5.29243 5.52445C5.41888 5.73629 5.61061 5.92383 5.88181 6.09642C6.25134 6.33157 6.71356 6.50818 7.25 6.67344V2.80091ZM8.75 8.65989V12.5399C9.34099 12.4727 9.82804 12.3279 10.1837 12.1071C10.6266 11.8321 10.9167 11.4129 10.9167 10.6667C10.9167 10.287 10.8314 10.0164 10.7076 9.80888C10.5811 9.59704 10.3894 9.4095 10.1182 9.23691C9.74865 9.00176 9.28644 8.82515 8.75 8.65989Z" fill="#202327"/>
</g>
<defs>
<clipPath id="clip0_3_3722">
<rect width="16" height="16" fill="white"/>
</clipPath>
</defs>
</svg>
