<svg xmlns="http://www.w3.org/2000/svg" viewBox="0 0 16 17" class="sageicon"><path fill-rule="evenodd" d="M8.75.75a.75.75 0 0 0-1.5 0v.623c-.717.077-1.462.273-2.097.648-.9.531-1.57 1.426-1.57 2.729 0 .62.144 1.162.421 1.627.275.46.656.803 1.073 1.068.64.408 1.43.666 2.173.876v4.324a11.279 11.279 0 0 1-3.004-.603.75.75 0 1 0-.492 1.416c1.128.393 2.305.624 3.496.69v1.269a.75.75 0 0 0 1.5 0V14.13c.803-.073 1.584-.268 2.225-.666.893-.555 1.442-1.461 1.442-2.715 0-.62-.144-1.162-.421-1.627a3.25 3.25 0 0 0-1.072-1.068c-.64-.408-1.431-.666-2.174-.876V2.886c.67.084 1.324.269 1.941.548a.75.75 0 1 0 .618-1.368 8.277 8.277 0 0 0-2.559-.69V.75Zm-1.5 2.134c-.498.07-.965.21-1.335.429-.511.302-.832.74-.832 1.437 0 .38.086.65.21.858.126.212.318.4.589.572.37.235.832.412 1.368.577V2.884Zm1.5 5.86v3.88c.591-.068 1.078-.213 1.434-.434.443-.275.733-.694.733-1.44 0-.38-.086-.65-.21-.858-.126-.212-.318-.4-.589-.572-.37-.235-.832-.412-1.368-.577Z"/></svg>