<svg width="16" height="16" viewBox="0 0 16 16" fill="none" xmlns="http://www.w3.org/2000/svg">
<path fill-rule="evenodd" clip-rule="evenodd" d="M1.99999 10.1C2.88365 10.1 3.59999 9.38368 3.59999 8.50002C3.59999 7.61637 2.88365 6.90002 1.99999 6.90002C1.11634 6.90002 0.399994 7.61637 0.399994 8.50002C0.399994 9.38368 1.11634 10.1 1.99999 10.1ZM7.99999 10.1C8.88365 10.1 9.59999 9.38368 9.59999 8.50002C9.59999 7.61637 8.88365 6.90002 7.99999 6.90002C7.11634 6.90002 6.39999 7.61637 6.39999 8.50002C6.39999 9.38368 7.11634 10.1 7.99999 10.1ZM15.6 8.50002C15.6 9.38368 14.8836 10.1 14 10.1C13.1163 10.1 12.4 9.38368 12.4 8.50002C12.4 7.61637 13.1163 6.90002 14 6.90002C14.8836 6.90002 15.6 7.61637 15.6 8.50002Z" fill="#202327"/>
</svg>
