<svg xmlns="http://www.w3.org/2000/svg" viewBox="0 0 16 16" class="pdsicon"><path d="M7.733 11.933c-.066 0-.133-.066-.2-.133l-4-4a.644.644 0 0 1 0-.933.644.644 0 0 1 .934 0l2.866 2.866v-8.4c0-.4.267-.666.667-.666s.667.266.667.666v8.4l2.866-2.866a.645.645 0 0 1 .934 0 .645.645 0 0 1 0 .933l-4 4c-.034.033-.067.05-.1.067a.348.348 0 0 0-.1.066C8.2 12 8.067 12 8 12s-.2 0-.267-.067Z"/><path d="M14 11.333c0-.4.267-.666.667-.666s.666.266.666.666v4c0 .4-.266.667-.666.667H1.333c-.4 0-.666-.267-.666-.667v-4c0-.4.266-.666.666-.666s.667.266.667.666v3.334h12v-3.334Z"/></svg>