<svg xmlns="http://www.w3.org/2000/svg" viewBox="0 0 16 16" class="sageicon"><path d="M6.667 10a.667.667 0 0 0-1.334 0c0 1.043.495 1.738 1.088 2.148.557.386 1.193.519 1.579.519a.667.667 0 0 0 0-1.334 1.64 1.64 0 0 1-.82-.281c-.275-.19-.513-.495-.513-1.052Z"/><path fill-rule="evenodd" d="m8 1.333.474-.468a.667.667 0 0 0-.948 0L7.52.87l-.013.013a12.491 12.491 0 0 0-.221.23 36.155 36.155 0 0 0-2.485 2.925c-.679.896-1.37 1.911-1.894 2.923C2.391 7.96 2 9.023 2 10c0 3.832 3.099 6 6 6s6-2.168 6-6c0-.977-.392-2.041-.908-3.039-.524-1.012-1.215-2.027-1.894-2.922A36.172 36.172 0 0 0 8.492.883L8.479.87 8.474.865 8 1.333Zm0 0L7.526.865 8 1.333Zm-.337 1.34c.124-.138.237-.262.337-.37a34.837 34.837 0 0 1 2.136 2.542c.654.862 1.296 1.81 1.772 2.73.484.933.759 1.768.759 2.425 0 2.968-2.368 4.667-4.667 4.667S3.333 12.968 3.333 10c0-.657.276-1.492.759-2.426.476-.919 1.118-1.867 1.773-2.73a34.824 34.824 0 0 1 1.798-2.17Z"/></svg>