<svg xmlns="http://www.w3.org/2000/svg" viewBox="0 0 16 16" class="sageicon"><path fill-rule="evenodd" d="M1.333.667C1.333.298 1.632 0 2 0h6.229a.664.664 0 0 1 .476.207l2.338 2.46H14c.368 0 .667.298.667.666v12A.667.667 0 0 1 14 16H4.667A.667.667 0 0 1 4 15.333v-2H2a.667.667 0 0 1-.667-.666v-12ZM4.671 12H2.667V1.333h4.889V3.94c0 .369.298.667.666.667h2.445V12H4.67Zm.662 1.333v1.334h8V4H12v8.667a.667.667 0 0 1-.667.666h-6ZM4 6.667C4 6.298 4.298 6 4.667 6h4a.667.667 0 0 1 0 1.333h-4A.667.667 0 0 1 4 6.667Zm.667 2a.667.667 0 1 0 0 1.333h4a.667.667 0 0 0 0-1.333h-4Z"/></svg>