<svg xmlns="http://www.w3.org/2000/svg" viewBox="0 0 16 16" class="pdsicon"><path fill-rule="evenodd" d="M3.333 2.667a.666.666 0 0 0-.666.666v5.334a.667.667 0 0 1-1.334 0V3.333a2 2 0 0 1 2-2h9.334a2 2 0 0 1 2 2v5.334a.667.667 0 0 1-1.334 0V3.333a.666.666 0 0 0-.666-.666H3.333ZM8 4c.368 0 .667.298.667.667V8a.667.667 0 0 1-1.334 0V4.667C7.333 4.298 7.632 4 8 4Zm2.667 1.333c.368 0 .666.299.666.667v2A.667.667 0 1 1 10 8V6c0-.368.299-.667.667-.667ZM6 7.333a.667.667 0 0 0-1.333 0V8A.667.667 0 1 0 6 8v-.667ZM.667 10a.667.667 0 0 0-.667.667V12a2 2 0 0 0 2 2h12a2 2 0 0 0 2-2v-1.333a.667.667 0 0 0-.667-.667H.667Zm.666 2v-.667h13.334V12a.666.666 0 0 1-.667.667H2A.666.666 0 0 1 1.333 12Z"/></svg>