<svg width="16" height="16" viewBox="0 0 16 16" fill="none" xmlns="http://www.w3.org/2000/svg">
<path d="M8.4714 1.5286C8.21106 1.26825 7.78894 1.26825 7.5286 1.5286L4.19526 4.86193C3.93491 5.12228 3.93491 5.54439 4.19526 5.80474C4.45561 6.06509 4.87772 6.06509 5.13807 5.80474L8 2.94281L10.8619 5.80474C11.1223 6.06509 11.5444 6.06509 11.8047 5.80474C12.0651 5.54439 12.0651 5.12228 11.8047 4.86193L8.4714 1.5286Z" fill="#202327"/>
<path d="M5.13807 10.1953C4.87772 9.93492 4.45561 9.93492 4.19526 10.1953C3.93491 10.4556 3.93491 10.8777 4.19526 11.1381L7.5286 14.4714C7.78894 14.7318 8.21106 14.7318 8.4714 14.4714L11.8047 11.1381C12.0651 10.8777 12.0651 10.4556 11.8047 10.1953C11.5444 9.93492 11.1223 9.93492 10.8619 10.1953L8 13.0572L5.13807 10.1953Z" fill="#202327"/>
</svg>
