<svg xmlns="http://www.w3.org/2000/svg" viewBox="0 0 16 16" class="pdsicon"><path d="m10.867 10.85-2.2 2.2V2.917l2.2 2.2c.133.133.266.2.466.2s.334-.067.467-.2a.644.644 0 0 0 0-.934L8.467.85C8.4.783 8.333.717 8.267.717a.736.736 0 0 0-.534 0c-.066 0-.133.066-.2.133L4.2 4.183a.644.644 0 0 0 0 .934.644.644 0 0 0 .933 0l2.2-2.2V13.05l-2.2-2.2a.644.644 0 0 0-.933 0 .644.644 0 0 0 0 .933l3.333 3.334c.067.066.134.133.2.133.067.067.2.067.267.067s.2 0 .267-.067c.066-.067.133-.067.2-.133l3.333-3.334a.644.644 0 0 0 0-.933.644.644 0 0 0-.933 0Z"/></svg>