<svg xmlns="http://www.w3.org/2000/svg" viewBox="0 0 16 16" class="pdsicon"><path fill-rule="evenodd" d="M1.4 2C3.2.2 6.133.2 8 2v.067V2C9.8.2 12.8.2 14.6 2c1.8 1.8 1.8 4.8 0 6.6l-6.133 6.133a.605.605 0 0 1-.467.2.605.605 0 0 1-.467-.2L1.4 8.6C-.467 6.8-.467 3.867 1.4 2ZM7 3C5.667 1.667 3.6 1.667 2.267 3c-1.334 1.333-1.334 3.4 0 4.733L7.933 13.4 13.6 7.733c1.333-1.333 1.333-3.4 0-4.733-1.333-1.333-3.4-1.333-4.733 0-.067.133-.2.333-.334.467-.133.2-.333.266-.533.266s-.4-.133-.533-.266C7.333 3.333 7.2 3.133 7 3Z"/></svg>