<svg xmlns="http://www.w3.org/2000/svg" viewBox="0 0 16 16" class="sageicon"><path fill-rule="evenodd" d="M0 7.333C0 3.513 3.697.667 8 .667s8 2.846 8 6.666v.016a6.141 6.141 0 0 1-1.7 4.096l.362 3.145a.667.667 0 0 1-.913.694l-3.726-1.516a7.7 7.7 0 0 1-2.03.232C3.693 13.997 0 11.152 0 7.333ZM8 2C4.17 2 1.333 4.487 1.333 7.333S4.17 12.667 8 12.667h.014a6.366 6.366 0 0 0 1.87-.242.667.667 0 0 1 .434.024l2.89 1.176-.27-2.349a.667.667 0 0 1 .207-.563 4.81 4.81 0 0 0 1.522-3.388C14.66 4.483 11.827 2 8 2Z"/><path fill-rule="evenodd" d="M8 3.333c.368 0 .667.299.667.667v4a.667.667 0 0 1-1.334 0V4c0-.368.299-.667.667-.667Z"/><path d="M8 11.333A.667.667 0 1 0 8 10a.667.667 0 0 0 0 1.333Z"/></svg>