<svg xmlns="http://www.w3.org/2000/svg" viewBox="0 0 16 16" class="pdsicon"><path fill-rule="evenodd" d="M1.333 0h13.334v16H1.333V0Zm1.334 1.333v13.334h10.666V1.333H2.667Zm6 10.595v1.405H7.333v-1.35a8.692 8.692 0 0 1-2.225-.489l-.628-.226.451-1.254.628.225c.566.204 1.191.35 1.774.405v-2.34c-.433-.153-.9-.347-1.287-.63C5.498 7.27 5.1 6.678 5.1 5.82c0-.73.32-1.288.83-1.649.413-.29.917-.431 1.404-.489V2.667h1.334V3.69c.748.086 1.457.291 1.904.537l.584.322-.642 1.168-.584-.321c-.255-.14-.73-.286-1.262-.362v2.313c.378.133.775.293 1.107.506.54.348.98.887.98 1.713 0 .699-.233 1.278-.677 1.698-.394.372-.9.57-1.41.663Zm0-1.369c.22-.066.382-.157.494-.263.143-.135.26-.346.26-.729 0-.254-.099-.418-.37-.592a2.626 2.626 0 0 0-.384-.2v1.784ZM7.333 6.874V5.03c-.276.048-.49.13-.635.232-.16.113-.266.267-.266.56 0 .367.141.584.403.776.14.103.306.192.498.276Z"/></svg>