<svg xmlns="http://www.w3.org/2000/svg" viewBox="0 0 16 16" class="sageicon"><path fill-rule="evenodd" d="M10.438 0H2a.667.667 0 0 0-.667.667v14.666c0 .368.299.667.667.667h12a.667.667 0 0 0 .667-.667V4.667c0-.164-.06-.321-.169-.443l-3.555-4A.667.667 0 0 0 10.438 0Zm-.66 1.333v3.334c0 .368.298.666.666.666h2.89v9.334H2.666V1.333h7.11Z"/><path fill-rule="evenodd" d="M4 6c0-.368.298-.667.667-.667H8a.667.667 0 0 1 0 1.334H4.667A.667.667 0 0 1 4 6ZM4 8.667C4 8.298 4.298 8 4.667 8h6.666a.667.667 0 1 1 0 1.333H4.667A.667.667 0 0 1 4 8.667ZM4 11.333c0-.368.298-.666.667-.666h6.666a.667.667 0 1 1 0 1.333H4.667A.667.667 0 0 1 4 11.333Z"/></svg>