<svg width="16" height="16" viewBox="0 0 16 16" fill="none" xmlns="http://www.w3.org/2000/svg">
<path fill-rule="evenodd" clip-rule="evenodd" d="M12.7091 4.30002C12.0138 4.30002 11.4501 4.86373 11.4501 5.55911C11.4501 6.25449 12.0138 6.81821 12.7091 6.81821C13.4045 6.81821 13.9682 6.25449 13.9682 5.55911C13.9682 4.86373 13.4045 4.30002 12.7091 4.30002ZM1.65003 6.30002H10.2589C10.5766 7.3521 11.5534 8.11821 12.7091 8.11821C14.1225 8.11821 15.2682 6.97246 15.2682 5.55911C15.2682 4.14576 14.1225 3.00002 12.7091 3.00002C11.4878 3.00002 10.4664 3.85556 10.2113 5.00002H1.65003C1.29104 5.00002 1.00003 5.29103 1.00003 5.65002C1.00003 6.009 1.29104 6.30002 1.65003 6.30002ZM3.5591 11.8182C4.25448 11.8182 4.81819 11.2545 4.81819 10.5591C4.81819 9.8637 4.25448 9.29999 3.5591 9.29999C2.86372 9.29999 2.3 9.8637 2.3 10.5591C2.3 11.2545 2.86372 11.8182 3.5591 11.8182ZM14.6182 9.81818L6.0093 9.81818C5.6916 8.7661 4.71481 7.99999 3.5591 7.99999C2.14575 7.99999 1 9.14573 1 10.5591C1 11.9724 2.14575 13.1182 3.5591 13.1182C4.78041 13.1182 5.80189 12.2626 6.05694 11.1182L14.6182 11.1182C14.9772 11.1182 15.2682 10.8272 15.2682 10.4682C15.2682 10.1092 14.9772 9.81818 14.6182 9.81818Z" fill="#202327"/>
</svg>
