<svg xmlns="http://www.w3.org/2000/svg" viewBox="0 0 16 16" class="pdsicon"><path fill-rule="evenodd" d="M1 0a1 1 0 0 0-1 1v6.333a2 2 0 0 0 2 2h3.333V8h-3.5a.5.5 0 0 1-.5-.5V1.333H2.85a.5.5 0 0 1 .354.147l.894.894a1 1 0 0 0 .707.293H8v2.666h1.333v-3a1 1 0 0 0-1-1h-3.39L3.903.293A1 1 0 0 0 3.194 0H1Zm6.667 6.667a1 1 0 0 0-1 1V14a2 2 0 0 0 2 2H14a2 2 0 0 0 2-2V9a1 1 0 0 0-1-1h-3.39l-1.041-1.04a1 1 0 0 0-.707-.293H7.667Zm.333 7.5V8h1.517a.5.5 0 0 1 .353.146l.894.894a1 1 0 0 0 .707.293h3.196v4.834a.5.5 0 0 1-.5.5H8.5a.5.5 0 0 1-.5-.5Z"/></svg>