<svg xmlns="http://www.w3.org/2000/svg" viewBox="0 0 16 16" class="sageicon"><path fill-rule="evenodd" d="M.667.667A.667.667 0 0 0 0 1.333v5.334c0 .368.298.666.667.666h14.666A.667.667 0 0 0 16 6.667V1.333a.667.667 0 0 0-.667-.666H.667ZM1.333 6V2h13.334v4H1.333ZM.667 8.667A.667.667 0 0 0 0 9.333v5.334c0 .368.298.666.667.666h14.666a.667.667 0 0 0 .667-.666V9.333a.667.667 0 0 0-.667-.666H.667ZM1.333 14v-4h13.334v4H1.333Zm1.334-9.905c0-.368.298-.666.666-.666H6a.667.667 0 1 1 0 1.333H3.333a.667.667 0 0 1-.666-.667Zm.666 7.238a.667.667 0 0 0 0 1.334H6a.667.667 0 0 0 0-1.334H3.333Z"/></svg>