<svg xmlns="http://www.w3.org/2000/svg" viewBox="0 0 16 16" class="sageicon"><path fill-rule="evenodd" d="M9.529 5.529 13.057 2h-2.39a.667.667 0 1 1 0-1.333h4a.665.665 0 0 1 .666.666v4.001a.667.667 0 0 1-1.333 0V2.942L10.471 6.47a.667.667 0 1 1-.942-.942ZM2.943 14l3.528-3.529a.667.667 0 0 0-.942-.942L2 13.057v-2.39a.667.667 0 1 0-1.333 0v4a.665.665 0 0 0 .666.666h4.001a.667.667 0 0 0 0-1.333H2.942Zm12.39.666v-4a.667.667 0 0 0-1.333 0v2.391L10.471 9.53a.667.667 0 1 0-.942.942L13.057 14h-2.39a.667.667 0 0 0 0 1.333h4.032a.665.665 0 0 0 .634-.66v-.007ZM5.333 2h-2.39l4.195 4.195a.667.667 0 1 1-.943.943L2 2.943v2.39a.667.667 0 0 1-1.333 0v-4c0-.368.298-.666.666-.666h4a.667.667 0 1 1 0 1.333Z"/></svg>