<svg xmlns="http://www.w3.org/2000/svg" viewBox="0 0 17 16" class="pdsicon"><path fill-rule="evenodd" d="M6.001 1.333A.671.671 0 0 0 5.334 2c0 .356.286.651.638.667h1.724c-.356-.703-.906-1.334-1.695-1.334Zm-2 .667c0 .234.04.458.114.667H2.666c-.736 0-1.333.597-1.333 1.333v1.334c0 .737.597 1.334 1.333 1.334h.003v2.001H1.333C.597 8.67 0 9.266 0 10.003v2.494c0 .538.324 1.024.82 1.23l4.87 2.03.01.005c.684.256 1.425.249 2.064.09l.032-.009 6.505-2.332a1.26 1.26 0 0 0 .743-.695 1.099 1.099 0 0 0-.15-1.105 2.68 2.68 0 0 0-.386-.403c.104-.19.162-.407.162-.638V6.668c.737 0 1.334-.597 1.334-1.334V4c0-.736-.597-1.333-1.334-1.333h-1.447A2.004 2.004 0 0 0 11.337 0C9.991 0 9.15.9 8.67 1.678 8.19.9 7.347 0 6.001 0c-1.102 0-2 .899-2 2Zm8.002 10.003h.693c.456.006.756.155.955.325l-6.24 2.237c-.417.099-.859.09-1.232-.047l-4.846-2.02v-2.495h2.001c.778 0 1.483.301 1.952.833.243.275.615.5 1.065.5h1.651c.38 0 .831.27 1.103.668h-3.77v1.333h4.001c.363 0 .72-.15.959-.424a1.09 1.09 0 0 0 .259-.91h1.449Zm.7-1.333h.634V6.668H4.003v2.054c.873.14 1.685.554 2.283 1.232a.192.192 0 0 0 .055.045l.011.004h1.65c.625 0 1.216.265 1.681.667h3.02ZM2.666 4H14.67v1.334H2.666V4Zm9.338-2c0 .356-.286.651-.638.667H9.642c.356-.703.906-1.334 1.695-1.334.366 0 .667.302.667.667Z"/></svg>