<svg width="16" height="16" viewBox="0 0 16 16" fill="none" xmlns="http://www.w3.org/2000/svg">
<path fill-rule="evenodd" clip-rule="evenodd" d="M10.9334 0C11.817 0 12.5334 0.716344 12.5334 1.6C12.5334 2.48365 11.817 3.2 10.9334 3.2C10.0497 3.2 9.33337 2.48365 9.33337 1.6C9.33337 0.716344 10.0497 0 10.9334 0ZM12.5334 8C12.5334 7.11634 11.817 6.4 10.9334 6.4C10.0497 6.4 9.33337 7.11634 9.33337 8C9.33337 8.88365 10.0497 9.6 10.9334 9.6C11.817 9.6 12.5334 8.88365 12.5334 8ZM12.5334 14.4C12.5334 13.5163 11.817 12.8 10.9334 12.8C10.0497 12.8 9.33337 13.5163 9.33337 14.4C9.33337 15.2837 10.0497 16 10.9334 16C11.817 16 12.5334 15.2837 12.5334 14.4ZM7.19999 14.4C7.19999 13.5163 6.48365 12.8 5.59999 12.8C4.71634 12.8 4 13.5163 4 14.4C4 15.2837 4.71634 16 5.59999 16C6.48365 16 7.19999 15.2837 7.19999 14.4ZM5.59999 6.4C6.48365 6.4 7.19999 7.11634 7.19999 8C7.19999 8.88365 6.48365 9.6 5.59999 9.6C4.71634 9.6 4 8.88365 4 8C4 7.11634 4.71634 6.4 5.59999 6.4ZM7.19999 1.6C7.19999 0.716344 6.48365 0 5.59999 0C4.71634 0 4 0.716344 4 1.6C4 2.48365 4.71634 3.2 5.59999 3.2C6.48365 3.2 7.19999 2.48365 7.19999 1.6Z" fill="#202327"/>
</svg>
