<svg width="16" height="16" viewBox="0 0 16 16" fill="none" xmlns="http://www.w3.org/2000/svg">
<path fill-rule="evenodd" clip-rule="evenodd" d="M1.6 7.2C2.48365 7.2 3.2 6.48365 3.2 5.6C3.2 4.71634 2.48365 4 1.6 4C0.716344 4 0 4.71634 0 5.6C0 6.48365 0.716344 7.2 1.6 7.2ZM1.6 12.5333C2.48365 12.5333 3.2 11.817 3.2 10.9333C3.2 10.0497 2.48365 9.33334 1.6 9.33334C0.716344 9.33334 0 10.0497 0 10.9333C0 11.817 0.716344 12.5333 1.6 12.5333ZM8 12.5333C8.88365 12.5333 9.6 11.817 9.6 10.9333C9.6 10.0497 8.88365 9.33334 8 9.33334C7.11634 9.33334 6.4 10.0497 6.4 10.9333C6.4 11.817 7.11634 12.5333 8 12.5333ZM16 10.9333C16 11.817 15.2837 12.5333 14.4 12.5333C13.5163 12.5333 12.8 11.817 12.8 10.9333C12.8 10.0497 13.5163 9.33334 14.4 9.33334C15.2837 9.33334 16 10.0497 16 10.9333ZM9.6 5.6C9.6 6.48365 8.88365 7.2 8 7.2C7.11634 7.2 6.4 6.48365 6.4 5.6C6.4 4.71634 7.11634 4 8 4C8.88365 4 9.6 4.71634 9.6 5.6ZM14.4 7.2C15.2837 7.2 16 6.48365 16 5.6C16 4.71634 15.2837 4 14.4 4C13.5163 4 12.8 4.71634 12.8 5.6C12.8 6.48365 13.5163 7.2 14.4 7.2Z" fill="#202327"/>
</svg>
