<svg xmlns="http://www.w3.org/2000/svg" viewBox="0 0 16 16" class="pdsicon"><path fill-rule="evenodd" d="M7.326 1.432a.667.667 0 0 0-1.319-.198l-.514 3.433h-2.16a.667.667 0 0 0 0 1.333h1.96l-.6 4H2.667a.667.667 0 0 0 0 1.333h1.826l-.486 3.235a.667.667 0 0 0 1.319.198l.515-3.433h3.318l-.485 3.235a.667.667 0 0 0 1.319.198l.514-3.433h2.16a.667.667 0 1 0 0-1.333h-1.96l.6-4h2.026a.667.667 0 1 0 0-1.333h-1.825l.485-3.235a.667.667 0 1 0-1.319-.198l-.515 3.433H6.841l.485-3.235ZM9.359 10l.6-4H6.641l-.6 4h3.318Z"/></svg>