<svg width="16" height="16" viewBox="0 0 16 16" fill="none" xmlns="http://www.w3.org/2000/svg">
<path fill-rule="evenodd" clip-rule="evenodd" d="M3.33331 4.11112C3.33331 3.68157 3.68154 3.33334 4.11109 3.33334C4.54065 3.33334 4.88887 3.68157 4.88887 4.11112V7.33336L11.1111 7.33336V4.11112C11.1111 3.68157 11.4593 3.33334 11.8889 3.33334C12.3184 3.33334 12.6667 3.68157 12.6667 4.11112V11.8889C12.6667 12.3185 12.3184 12.6667 11.8889 12.6667C11.4593 12.6667 11.1111 12.3185 11.1111 11.8889V8.66669L4.88887 8.66669V11.8889C4.88887 12.3185 4.54065 12.6667 4.11109 12.6667C3.68154 12.6667 3.33331 12.3185 3.33331 11.8889V8.00002V4.11112Z" fill="#202327"/>
</svg>
