<svg xmlns="http://www.w3.org/2000/svg" viewBox="0 0 16 16" class="sageicon"><path d="M8 0A7.338 7.338 0 0 0 .667 7.333v4c0 1.1.9 2 2 2h2c.366 0 .666-.3.666-.666V8c0-.367-.3-.667-.666-.667H2c0-3.306 2.693-6 6-6s6 2.694 6 6h-2.667c-.366 0-.666.3-.666.667v4.667c0 .366.3.666.666.666h2c.234 0 .46-.046.667-.12v.12c0 .734-.6 1.334-1.333 1.334H9.333c-.366 0-.666.3-.666.666 0 .367.3.667.666.667h3.334a2.666 2.666 0 0 0 2.666-2.667v-6A7.338 7.338 0 0 0 8 0ZM4 8.667V12H2.667A.669.669 0 0 1 2 11.333V8.667h2ZM13.333 12H12V8.667h2v2.666c0 .367-.3.667-.667.667Z"/></svg>