<svg width="16" height="16" viewBox="0 0 16 16" fill="none" xmlns="http://www.w3.org/2000/svg">
<path fill-rule="evenodd" clip-rule="evenodd" d="M2.00006 0.666667C2.00006 0.298477 2.29854 0 2.66673 0C3.03492 0 3.33339 0.298477 3.33339 0.666667L3.33339 7.33335L12.6667 7.33334V0.666666C12.6667 0.298477 12.9652 0 13.3334 0C13.7016 0 14.0001 0.298477 14.0001 0.666666V15.3333C14.0001 15.7015 13.7016 16 13.3334 16C12.9652 16 12.6667 15.7015 12.6667 15.3333L12.6667 8.66668H3.3334L3.33339 15.3333C3.33339 15.7015 3.03492 16 2.66673 16C2.29854 16 2.00006 15.7015 2.00006 15.3333V0.666667Z" fill="#202327"/>
</svg>
