<svg width="16" height="16" viewBox="0 0 16 16" fill="none" xmlns="http://www.w3.org/2000/svg">
<g clip-path="url(#clip0_3_1707)">
<path fill-rule="evenodd" clip-rule="evenodd" d="M15.06 6C14.3667 3.56 12.44 1.63333 10 0.94C10 0.420852 9.57915 0 9.06 0H6.94C6.42085 0 6 0.420852 6 0.94C3.56 1.63333 1.63333 3.56 0.94 6C0.420852 6 0 6.42085 0 6.94V9.06C0 9.57915 0.420852 10 0.94 10C1.63333 12.44 3.55333 14.3667 6 15.06C6 15.5791 6.42085 16 6.94 16H9.06C9.57915 16 10 15.5791 10 15.06C12.44 14.3667 14.3667 12.4467 15.06 10C15.5791 10 16 9.57915 16 9.06V6.94C16 6.42085 15.5791 6 15.06 6ZM10 2.34C11.7067 2.94 13.0533 4.29333 13.66 6H11.4667C11.1133 5.39333 10.6067 4.88667 10 4.53333V2.34ZM7.33333 1.33333H8.66667V4.05333C8.44667 4.02 8.22667 4 8 4C7.77333 4 7.55333 4.02 7.33333 4.05333V1.33333ZM6 2.34V4.53333C5.39333 4.88667 4.88667 5.39333 4.53333 6H2.34C2.94667 4.29333 4.29333 2.94667 6 2.34ZM1.33333 7.33333H4.05333C4.02 7.55333 4 7.77333 4 8C4 8.22667 4.02 8.44667 4.05333 8.66667H1.33333V7.33333ZM6 13.66C4.29333 13.06 2.94667 11.7067 2.34 10H4.53333C4.88667 10.6067 5.39333 11.1133 6 11.4667V13.66ZM8.66667 14.6667H7.33333V11.9467C7.55333 11.98 7.77333 12 8 12C8.22667 12 8.44667 11.98 8.66667 11.9467V14.6667ZM8 10.6667C6.52667 10.6667 5.33333 9.47333 5.33333 8C5.33333 6.52667 6.52667 5.33333 8 5.33333C9.47333 5.33333 10.6667 6.52667 10.6667 8C10.6667 9.47333 9.47333 10.6667 8 10.6667ZM10 13.66V11.4667C10.6067 11.1133 11.1133 10.6067 11.4667 10H13.66C13.0533 11.7067 11.7067 13.0533 10 13.66ZM14.6667 8.66667H11.9467C11.98 8.44667 12 8.22667 12 8C12 7.77333 11.98 7.55333 11.9467 7.33333H14.6667V8.66667Z" fill="#202327"/>
</g>
<defs>
<clipPath id="clip0_3_1707">
<rect width="16" height="16" fill="white"/>
</clipPath>
</defs>
</svg>
