<svg xmlns="http://www.w3.org/2000/svg" viewBox="0 0 16 16" class="pdsicon"><path fill-rule="evenodd" d="M15.06 6A7.373 7.373 0 0 0 10 .94.94.94 0 0 0 9.06 0H6.94A.94.94 0 0 0 6 .94 7.373 7.373 0 0 0 .94 6a.94.94 0 0 0-.94.94v2.12c0 .52.42.94.94.94A7.36 7.36 0 0 0 6 15.06c0 .52.42.94.94.94h2.12c.52 0 .94-.42.94-.94A7.36 7.36 0 0 0 15.06 10c.52 0 .94-.42.94-.94V6.94a.94.94 0 0 0-.94-.94ZM10 2.34A6.016 6.016 0 0 1 13.66 6h-2.193A4.07 4.07 0 0 0 10 4.533V2.34ZM7.333 1.333h1.334v2.72A4.423 4.423 0 0 0 8 4c-.227 0-.447.02-.667.053v-2.72ZM6 2.34v2.193A4.07 4.07 0 0 0 4.533 6H2.34A6.032 6.032 0 0 1 6 2.34ZM1.333 7.333h2.72C4.02 7.553 4 7.773 4 8c0 .227.02.447.053.667h-2.72V7.333ZM6 13.66A6.016 6.016 0 0 1 2.34 10h2.193A4.07 4.07 0 0 0 6 11.467v2.193Zm2.667 1.007H7.333v-2.72c.22.033.44.053.667.053.227 0 .447-.02.667-.053v2.72Zm-.667-4a2.666 2.666 0 1 1 0-5.334 2.666 2.666 0 1 1 0 5.334Zm2 2.993v-2.193A4.07 4.07 0 0 0 11.467 10h2.193A6.032 6.032 0 0 1 10 13.66Zm4.667-4.993h-2.72c.033-.22.053-.44.053-.667 0-.227-.02-.447-.053-.667h2.72v1.334Z"/></svg>