<svg width="16" height="16" viewBox="0 0 16 16" fill="none" xmlns="http://www.w3.org/2000/svg">
<g clip-path="url(#clip0_3_1709)">
<path d="M15.3333 6H15.0573C14.366 3.54667 12.454 1.634 10 0.942667V0.666667C10 0.298667 9.702 0 9.33333 0H6.66667C6.298 0 6 0.298667 6 0.666667V0.942667C3.546 1.634 1.634 3.54667 0.942667 6H0.666667C0.298 6 0 6.29867 0 6.66667V9.33333C0 9.70133 0.298 10 0.666667 10H0.942667C1.634 12.4533 3.546 14.366 6 15.0573V15.3333C6 15.7013 6.298 16 6.66667 16H9.33333C9.702 16 10 15.7013 10 15.3333V15.0573C12.454 14.366 14.366 12.4533 15.0573 10H15.3333C15.702 10 16 9.70133 16 9.33333V6.66667C16 6.29867 15.702 6 15.3333 6ZM8 10.6667C6.52933 10.6667 5.33333 9.47067 5.33333 8C5.33333 6.52933 6.52933 5.33333 8 5.33333C9.47067 5.33333 10.6667 6.52933 10.6667 8C10.6667 9.47067 9.47067 10.6667 8 10.6667ZM13.6547 6H11.4587C11.108 5.39533 10.6047 4.892 10 4.54133V2.34533C11.7113 2.94667 13.0533 4.28867 13.6547 6ZM6 2.34533V4.54133C5.39533 4.892 4.892 5.39533 4.54133 6H2.34533C2.94667 4.28867 4.28867 2.94667 6 2.34533ZM2.34533 10H4.54133C4.892 10.6047 5.39533 11.108 6 11.4587V13.6547C4.28867 13.0533 2.94667 11.7113 2.34533 10ZM10 13.6547V11.4587C10.6047 11.108 11.108 10.604 11.4587 10H13.6547C13.0533 11.7113 11.7113 13.0533 10 13.6547Z" fill="#202327"/>
</g>
<defs>
<clipPath id="clip0_3_1709">
<rect width="16" height="16" fill="white"/>
</clipPath>
</defs>
</svg>
