<svg xmlns="http://www.w3.org/2000/svg" viewBox="0 0 16 16" class="sageicon"><path d="M15.333 6h-.276A7.309 7.309 0 0 0 10 .943V.667A.666.666 0 0 0 9.333 0H6.667A.666.666 0 0 0 6 .667v.276A7.309 7.309 0 0 0 .943 6H.667A.666.666 0 0 0 0 6.667v2.666c0 .368.298.667.667.667h.276A7.309 7.309 0 0 0 6 15.057v.276c0 .368.298.667.667.667h2.666a.667.667 0 0 0 .667-.667v-.276A7.309 7.309 0 0 0 15.057 10h.276A.666.666 0 0 0 16 9.333V6.667A.666.666 0 0 0 15.333 6ZM8 10.667A2.67 2.67 0 0 1 5.333 8 2.67 2.67 0 0 1 8 5.333 2.67 2.67 0 0 1 10.667 8 2.67 2.67 0 0 1 8 10.667ZM13.655 6h-2.196A4.016 4.016 0 0 0 10 4.541V2.345A5.967 5.967 0 0 1 13.655 6ZM6 2.345v2.196A4.016 4.016 0 0 0 4.541 6H2.345A5.967 5.967 0 0 1 6 2.345ZM2.345 10h2.196c.351.605.854 1.108 1.459 1.459v2.196A5.967 5.967 0 0 1 2.345 10ZM10 13.655v-2.196A4.022 4.022 0 0 0 11.459 10h2.196A5.967 5.967 0 0 1 10 13.655Z"/></svg>