<svg xmlns="http://www.w3.org/2000/svg" viewBox="0 0 16 16" class="pdsicon"><path fill-rule="evenodd" d="M8 1.988c1.958 0 2.19.007 2.963.043.465.005.926.09 1.362.252.318.118.607.305.843.549.244.236.431.525.549.843.161.436.247.897.252 1.362.036.773.043 1.005.043 2.963 0 1.958-.007 2.19-.043 2.963-.005.465-.09.926-.252 1.362a2.428 2.428 0 0 1-1.392 1.392 4.05 4.05 0 0 1-1.362.252c-.773.036-1.005.043-2.963.043-1.958 0-2.19-.007-2.963-.043a4.05 4.05 0 0 1-1.362-.252 2.266 2.266 0 0 1-.843-.549 2.266 2.266 0 0 1-.549-.843 4.048 4.048 0 0 1-.252-1.362C1.995 10.19 1.988 9.958 1.988 8c0-1.958.007-2.19.043-2.963.005-.465.09-.926.252-1.362.118-.318.305-.607.549-.843.236-.244.525-.431.843-.549a4.048 4.048 0 0 1 1.362-.252C5.81 1.995 6.042 1.988 8 1.988ZM8 .667c-1.991 0-2.241.008-3.023.044a5.405 5.405 0 0 0-1.78.34A3.75 3.75 0 0 0 1.05 3.2a5.405 5.405 0 0 0-.34 1.78C.675 5.759.667 6.009.667 8s.008 2.241.044 3.023c.012.609.127 1.21.34 1.78A3.75 3.75 0 0 0 3.2 14.95c.57.213 1.172.328 1.78.34.779.036 1.029.044 3.02.044s2.241-.008 3.023-.044a5.406 5.406 0 0 0 1.78-.34A3.752 3.752 0 0 0 14.95 12.8c.213-.57.328-1.172.34-1.78.036-.779.044-1.029.044-3.02s-.008-2.241-.044-3.023a5.407 5.407 0 0 0-.34-1.78A3.75 3.75 0 0 0 12.8 1.05a5.406 5.406 0 0 0-1.78-.34C10.241.675 9.991.667 8 .667Zm0 3.567a3.766 3.766 0 1 0 0 7.532 3.766 3.766 0 0 0 0-7.532Zm0 6.21a2.445 2.445 0 1 1 0-4.89 2.445 2.445 0 0 1 0 4.89Zm4.795-6.359a.88.88 0 1 1-1.76 0 .88.88 0 0 1 1.76 0Z"/></svg>