<svg xmlns="http://www.w3.org/2000/svg" viewBox="0 0 16 16" class="pdsicon"><path fill-rule="evenodd" d="M8 4.9c2.3 0 4.6.9 6.2 2.5.1.1.3.1.5 0l1.2-1.2c.1-.1.1-.2.1-.3 0-.1 0-.2-.1-.2C11.5 1.4 4.5 1.4.1 5.7c-.1 0-.1.1-.1.2s0 .2.1.3l1.2 1.2c.1.1.3.1.5 0C3.4 5.8 5.7 4.9 8 4.9Z"/><path fill-rule="evenodd" d="M8 8.6c1.3 0 2.5.5 3.5 1.4.1.1.3.1.5 0l1.2-1.2c.1-.1.1-.2.1-.2 0-.1 0-.2-.1-.2-2.9-2.7-7.3-2.7-10.2 0-.1-.1-.2 0-.2.1s0 .2.1.2L4.1 10c.1.1.3.1.5 0 .9-.9 2.2-1.4 3.4-1.4Z"/><path fill-rule="evenodd" d="M10.5 11.1c0 .1 0 .2-.1.2l-2.1 2.2c-.1.1-.1.1-.2.1s-.2 0-.2-.1l-2.1-2.2c-.1-.1-.1-.2-.1-.2 0-.1 0-.2.1-.2 1.3-1.2 3.3-1.2 4.6 0 .1 0 .1.1.1.2Z"/></svg>