<svg xmlns="http://www.w3.org/2000/svg" viewBox="0 0 16 16" class="pdsicon"><path d="M12.3 11.8h-10C1 11.8 0 10.7 0 9.5v-3c0-1.3 1-2.3 2.3-2.3h9.9c1.3 0 2.3 1 2.3 2.3v2.9c.1 1.3-.9 2.4-2.2 2.4Zm-10-7c-1 0-1.8.8-1.8 1.8v2.9c0 1 .8 1.8 1.8 1.8h9.9c1 0 1.8-.8 1.8-1.8v-3c0-1-.8-1.8-1.8-1.8H2.3v.1Z" opacity=".35"/><path d="M15.2 7.1v2.5c.5-.2.8-.7.8-1.2 0-.6-.3-1.1-.8-1.3Z" opacity=".4"/><path d="M1.2 6.5c0-.6.5-1.2 1.2-1.2h9.9c.6 0 1.2.5 1.2 1.2v2.9c0 .6-.5 1.2-1.2 1.2h-10c-.6 0-1.2-.5-1.2-1.2V6.5h.1Z"/></svg>