<svg width="16" height="16" viewBox="0 0 16 16" fill="none" xmlns="http://www.w3.org/2000/svg">
<g clip-path="url(#clip0_4_308)">
<path fill-rule="evenodd" clip-rule="evenodd" d="M12 1.01731e-05H10.0143C10.0045 -0.000207419 9.99467 -0.000206263 9.98492 1.01731e-05H7.99998C7.63179 1.01731e-05 7.33331 0.298487 7.33331 0.666677C7.33331 1.03487 7.63179 1.33334 7.99998 1.33334H9.12715L5.49079 14.6667H3.99998C3.63179 14.6667 3.33331 14.9652 3.33331 15.3333C3.33331 15.7015 3.63179 16 3.99998 16H5.98529C5.99538 16.0002 6.00544 16.0002 6.01547 16H7.99998C8.36817 16 8.66665 15.7015 8.66665 15.3333C8.66665 14.9652 8.36817 14.6667 7.99998 14.6667H6.87282L10.5092 1.33334H12C12.3682 1.33334 12.6666 1.03487 12.6666 0.666677C12.6666 0.298487 12.3682 1.01731e-05 12 1.01731e-05Z" fill="#202327"/>
</g>
<defs>
<clipPath id="clip0_4_308">
<rect width="16" height="16" fill="white"/>
</clipPath>
</defs>
</svg>
