<svg xmlns="http://www.w3.org/2000/svg" viewBox="0 0 16 16" class="pdsicon"><path fill-rule="evenodd" d="M4 .667C4 .298 4.298 0 4.667 0h6.666c.368 0 .667.298.667.667v2.666a.667.667 0 0 1-.667.667H10v3.762l3.622 4.427A2.334 2.334 0 0 1 11.816 16H4.184a2.334 2.334 0 0 1-1.806-3.81L6 7.761V4H4.667A.667.667 0 0 1 4 3.333V.667Zm1.333.666v1.334h1.334c.368 0 .666.298.666.666V8a.667.667 0 0 1-.15.422L3.41 13.033a1 1 0 0 0 .774 1.634h7.632a1 1 0 0 0 .774-1.633L8.817 8.421A.667.667 0 0 1 8.667 8V3.333c0-.368.298-.666.666-.666h1.334V1.333H5.333Z"/></svg>