<svg width="16" height="16" viewBox="0 0 16 16" fill="none" xmlns="http://www.w3.org/2000/svg">
<path fill-rule="evenodd" clip-rule="evenodd" d="M6.2 4.2V5.8H14.8V4.2H6.2ZM6 3H15C15.5523 3 16 3.44772 16 4V6C16 6.55228 15.5523 7 15 7H6C5.44771 7 5 6.55228 5 6V4C5 3.44772 5.44772 3 6 3ZM1.2 11.8V10.2H2.8V11.8H1.2ZM3 9H1C0.447715 9 0 9.44772 0 10V12C0 12.5523 0.447715 13 1 13H3C3.55228 13 4 12.5523 4 12V10C4 9.44772 3.55228 9 3 9ZM6.2 11.8V10.2H14.8V11.8H6.2ZM15 9H6C5.44772 9 5 9.44772 5 10V12C5 12.5523 5.44771 13 6 13H15C15.5523 13 16 12.5523 16 12V10C16 9.44772 15.5523 9 15 9ZM1.2 5.8V4.2H2.8V5.8H1.2ZM3 3H1C0.447715 3 0 3.44772 0 4V6C0 6.55228 0.447715 7 1 7H3C3.55228 7 4 6.55228 4 6V4C4 3.44772 3.55228 3 3 3Z" fill="#202327"/>
</svg>
