<svg xmlns="http://www.w3.org/2000/svg" viewBox="0 0 16 16" class="sageicon"><path d="M15.333 0H.667C.267 0 0 .267 0 .667v14.666c0 .4.267.667.667.667h14.666c.4 0 .667-.267.667-.667V.667c0-.4-.267-.667-.667-.667Zm-10.6 13.667H2.4V6h2.4v7.667h-.067Zm-1.2-8.734c-.733 0-1.4-.6-1.4-1.4 0-.733.6-1.4 1.4-1.4.734 0 1.4.6 1.4 1.4 0 .8-.6 1.4-1.4 1.4Zm10.134 8.734h-2.4V9.933c0-.866 0-2-1.2-2-1.267 0-1.4.934-1.4 1.934v3.8h-2.4V6h2.266v1.067c.334-.6 1.067-1.2 2.267-1.2 2.4 0 2.867 1.6 2.867 3.666v4.134Z"/></svg>