<svg width="16" height="16" viewBox="0 0 16 16" fill="none" xmlns="http://www.w3.org/2000/svg">
<g clip-path="url(#clip0_4_307)">
<path fill-rule="evenodd" clip-rule="evenodd" d="M1.33333 2.66666C1.33333 2.29847 1.63181 1.99999 2 1.99999C2.36819 1.99999 2.66667 2.29847 2.66667 2.66666C2.66667 3.03485 2.36819 3.33332 2 3.33332C1.63181 3.33332 1.33333 3.03485 1.33333 2.66666ZM2 0.666656C0.895431 0.666656 0 1.56209 0 2.66666C0 3.77123 0.895431 4.66666 2 4.66666C3.10457 4.66666 4 3.77123 4 2.66666C4 1.56209 3.10457 0.666656 2 0.666656ZM1.33333 7.99999C1.33333 7.6318 1.63181 7.33332 2 7.33332C2.36819 7.33332 2.66667 7.6318 2.66667 7.99999C2.66667 8.36818 2.36819 8.66666 2 8.66666C1.63181 8.66666 1.33333 8.36818 1.33333 7.99999ZM2 5.99999C0.895431 5.99999 0 6.89542 0 7.99999C0 9.10456 0.895431 9.99999 2 9.99999C3.10457 9.99999 4 9.10456 4 7.99999C4 6.89542 3.10457 5.99999 2 5.99999ZM2 12.6667C1.63181 12.6667 1.33333 12.9651 1.33333 13.3333C1.33333 13.7015 1.63181 14 2 14C2.36819 14 2.66667 13.7015 2.66667 13.3333C2.66667 12.9651 2.36819 12.6667 2 12.6667ZM0 13.3333C0 12.2288 0.895431 11.3333 2 11.3333C3.10457 11.3333 4 12.2288 4 13.3333C4 14.4379 3.10457 15.3333 2 15.3333C0.895431 15.3333 0 14.4379 0 13.3333ZM6 1.99999C5.63181 1.99999 5.33333 2.29847 5.33333 2.66666C5.33333 3.03485 5.63181 3.33332 6 3.33332H15.3333C15.7015 3.33332 16 3.03485 16 2.66666C16 2.29847 15.7015 1.99999 15.3333 1.99999H6ZM5.33333 7.99999C5.33333 7.6318 5.63181 7.33332 6 7.33332H15.3333C15.7015 7.33332 16 7.6318 16 7.99999C16 8.36818 15.7015 8.66666 15.3333 8.66666H6C5.63181 8.66666 5.33333 8.36818 5.33333 7.99999ZM6 12.6667C5.63181 12.6667 5.33333 12.9651 5.33333 13.3333C5.33333 13.7015 5.63181 14 6 14H15.3333C15.7015 14 16 13.7015 16 13.3333C16 12.9651 15.7015 12.6667 15.3333 12.6667H6Z" fill="#202327"/>
</g>
<defs>
<clipPath id="clip0_4_307">
<rect width="16" height="16" fill="white"/>
</clipPath>
</defs>
</svg>
