<svg xmlns="http://www.w3.org/2000/svg" viewBox="0 0 16 16" class="pdsicon"><path fill-rule="evenodd" d="M1.333 2.667a.667.667 0 1 1 1.334 0 .667.667 0 0 1-1.334 0Zm.667-2a2 2 0 1 0 0 4 2 2 0 0 0 0-4ZM1.333 8a.667.667 0 1 1 1.334 0 .667.667 0 0 1-1.334 0ZM2 6a2 2 0 1 0 0 4 2 2 0 0 0 0-4Zm0 6.667A.667.667 0 1 0 2 14a.667.667 0 0 0 0-1.333Zm-2 .666a2 2 0 1 1 4 0 2 2 0 0 1-4 0ZM6 2a.667.667 0 0 0 0 1.333h9.333a.667.667 0 1 0 0-1.333H6Zm-.667 6c0-.368.299-.667.667-.667h9.333a.667.667 0 1 1 0 1.334H6A.667.667 0 0 1 5.333 8ZM6 12.667A.667.667 0 1 0 6 14h9.333a.667.667 0 0 0 0-1.333H6Z"/></svg>