<svg xmlns="http://www.w3.org/2000/svg" viewBox="0 0 16 16" class="sageicon"><path fill-rule="evenodd" d="M1.04 3.92v.475h2.106v-.474l-.492-.042c-.09-.006-.096-.024-.096-.12V.94h-1.44l-.066.491.522.108c.06.018.078.054.078.126V3.76c0 .09-.012.114-.096.12l-.516.042ZM5.333 2a.667.667 0 0 0 0 1.333h10a.667.667 0 1 0 0-1.333h-10Zm0 5.333a.667.667 0 0 0 0 1.334h10a.667.667 0 1 0 0-1.334h-10Zm-.666 6c0-.368.298-.666.666-.666h10a.667.667 0 1 1 0 1.333h-10a.667.667 0 0 1-.666-.667Zm-3.94-3.56v-.558l.805-.786.053-.051c.568-.551.811-.787.811-1.12 0-.221-.108-.383-.426-.383-.33 0-.468.108-.468.534l-.816-.072c.005-.954.732-1.11 1.362-1.11.93 0 1.26.396 1.26.96 0 .562-.387.934-.824 1.352l-.004.004-.678.649h.882c.06 0 .084-.012.096-.073l.084-.474H3.5v1.129H.728Zm2.818 4.419c0-.54-.281-.847-.792-.925v-.024a.94.94 0 0 0 .69-.936c0-.642-.354-.996-1.278-.996-.63 0-1.344.162-1.344 1.11l.822.072c0-.426.156-.534.48-.534.336 0 .438.186.438.414 0 .384-.234.594-.666.648l-.294.036v.6c.18-.03.294-.042.444-.042.372 0 .6.15.6.517 0 .42-.288.54-.624.54-.42 0-.672-.174-.9-.396l-.48.528c.306.336.846.552 1.452.552.858 0 1.452-.372 1.452-1.164Z"/></svg>