<svg xmlns="http://www.w3.org/2000/svg" viewBox="0 0 16 16" class="pdsicon"><path fill-rule="evenodd" d="M3.333 6c0-2.968 2.368-4.667 4.667-4.667S12.667 3.032 12.667 6c0 .657-.275 1.492-.759 2.426-.476.919-1.118 1.867-1.772 2.73A34.83 34.83 0 0 1 8 13.697a34.818 34.818 0 0 1-2.135-2.542c-.655-.862-1.297-1.81-1.773-2.73-.483-.933-.759-1.768-.759-2.425Zm4.192 9.135L8 14.667l.474.468a.666.666 0 0 1-.949 0Zm0 0L8 14.667l.475.468.004-.005.013-.013.047-.048.174-.182a36.173 36.173 0 0 0 2.485-2.925c.679-.896 1.37-1.911 1.894-2.923C13.608 8.04 14 6.977 14 6c0-3.832-3.099-6-6-6S2 2.168 2 6c0 .977.391 2.041.908 3.039.524 1.012 1.215 2.027 1.894 2.922a36.156 36.156 0 0 0 2.66 3.108l.046.048.013.013.004.005ZM6.667 6a1.333 1.333 0 1 1 2.666 0 1.333 1.333 0 0 1-2.666 0ZM8 3.333a2.667 2.667 0 1 0 0 5.334 2.667 2.667 0 0 0 0-5.334Z"/></svg>