<svg xmlns="http://www.w3.org/2000/svg" viewBox="0 0 16 16" class="pdsicon"><path fill-rule="evenodd" d="M8.073 0h-.07A3.967 3.967 0 0 0 4 3.927v1.406h1.333V3.937a2.634 2.634 0 0 1 2.66-2.604h.07a2.634 2.634 0 0 1 2.603 2.66v1.34H12v-1.33A3.967 3.967 0 0 0 8.073 0Zm-4.74 8a.667.667 0 0 0-.666.667V14c0 .368.298.667.666.667h9.334a.667.667 0 0 0 .666-.667V8.667A.667.667 0 0 0 12.666 8H3.333Zm-2 .667a2 2 0 0 1 2-2h9.334a2 2 0 0 1 2 2V14a2 2 0 0 1-2 2H3.332a2 2 0 0 1-2-2V8.667Zm6.667 2A.667.667 0 1 0 8 12a.667.667 0 0 0 0-1.333Zm-2 .666a2 2 0 1 1 4 0 2 2 0 0 1-4 0Z"/></svg>