<svg xmlns="http://www.w3.org/2000/svg" viewBox="0 0 16 16" class="sageicon"><path fill-rule="evenodd" d="M6 11.333c0-1.133.867-2 2-2s2 .867 2 2c0 1.134-.867 2-2 2s-2-.866-2-2Zm2-.666c-.4 0-.667.266-.667.666S7.6 12 8 12s.667-.267.667-.667-.267-.666-.667-.666Z"/><path fill-rule="evenodd" d="M8.067 0H8C6.933 0 5.933.4 5.2 1.133c-.733.734-1.2 1.734-1.2 2.8v2.734H2c-.4 0-.667.266-.667.666v8c0 .4.267.667.667.667h12c.4 0 .667-.267.667-.667v-8c0-.4-.267-.666-.667-.666h-2V4c0-1.067-.4-2.067-1.133-2.8C10.133.467 9.133 0 8.067 0Zm-5.4 8v6.667h10.666V8H2.667Zm2.666-1.333h5.334V4c0-.667-.267-1.4-.734-1.867-.533-.533-1.2-.8-1.866-.8H8c-.667 0-1.4.267-1.867.734-.533.533-.8 1.2-.8 1.866v2.734Z"/></svg>