<svg xmlns="http://www.w3.org/2000/svg" viewBox="0 0 16 16" class="pdsicon"><path d="M15.133 3.533c.134.134.2.267.2.467s-.066.333-.2.467l-2.666 2.666a.645.645 0 0 1-.934 0 .645.645 0 0 1 0-.933l1.534-1.533H2V8c0 .4-.267.667-.667.667S.667 8.4.667 8V4c0-.4.266-.667.666-.667h11.734L11.533 1.8a.645.645 0 0 1 0-.933.645.645 0 0 1 .934 0l2.666 2.666ZM14 8c0-.4.267-.667.667-.667s.666.267.666.667v4c0 .4-.266.667-.666.667H2.933L4.467 14.2a.644.644 0 0 1 0 .933.644.644 0 0 1-.934 0L.867 12.467c-.067-.067-.134-.134-.134-.2-.066-.067-.066-.2-.066-.267s0-.2.066-.267c0-.066.067-.133.134-.2l2.666-2.666a.644.644 0 0 1 .934 0 .644.644 0 0 1 0 .933l-1.534 1.533H14V8Z"/></svg>