<svg width="16" height="16" viewBox="0 0 16 16" fill="none" xmlns="http://www.w3.org/2000/svg">
<path fill-rule="evenodd" clip-rule="evenodd" d="M0.623811 1.88208C0.982345 1.54198 1.46681 1.33333 2 1.33333H14C15.1046 1.33333 16 2.22876 16 3.33333V12.6667C16 13.7712 15.1046 14.6667 14 14.6667H2C0.895431 14.6667 0 13.7712 0 12.6667V3.33333C0 2.77101 0.232062 2.2629 0.605641 1.89953C0.611611 1.89358 0.617669 1.88776 0.623811 1.88208ZM1.33333 3.5069V12.6667C1.33333 13.0349 1.63181 13.3333 2 13.3333H14C14.3682 13.3333 14.6667 13.0349 14.6667 12.6667V3.50698L8.44846 9.15995C8.19418 9.39111 7.80584 9.39111 7.55156 9.15994L1.33333 3.5069ZM13.6089 2.66666H2.39121L8.00002 7.76567L13.6089 2.66666Z" fill="#202327"/>
</svg>
