<svg xmlns="http://www.w3.org/2000/svg" viewBox="0 0 16 16" class="sageicon"><path fill-rule="evenodd" d="M0 2c0-.368.298-.667.667-.667h14.666a.667.667 0 1 1 0 1.334H.667A.667.667 0 0 1 0 2Zm8.667 4c0-.368.298-.667.666-.667h6a.667.667 0 1 1 0 1.334h-6A.667.667 0 0 1 8.667 6Zm.666 3.333a.667.667 0 0 0 0 1.334h6a.667.667 0 0 0 0-1.334h-6ZM0 14c0-.368.298-.667.667-.667h14.666a.667.667 0 0 1 0 1.334H.667A.667.667 0 0 1 0 14Zm.667-6.667a.667.667 0 0 0 0 1.334h4v.666a.667.667 0 0 0 1.138.472L7.138 8.47a.667.667 0 0 0 0-.942L5.805 6.195a.667.667 0 0 0-1.138.472v.666h-4Z"/></svg>