<svg xmlns="http://www.w3.org/2000/svg" viewBox="0 0 16 16" class="sageicon"><path fill-rule="evenodd" d="M0 2c0-.368.298-.667.667-.667h14.666a.667.667 0 1 1 0 1.334H.667A.667.667 0 0 1 0 2Zm0 4c0-.368.298-.667.667-.667h6a.667.667 0 0 1 0 1.334h-6A.667.667 0 0 1 0 6Zm.667 3.333a.667.667 0 0 0 0 1.334h6a.667.667 0 0 0 0-1.334h-6ZM0 14c0-.368.298-.667.667-.667h14.666a.667.667 0 0 1 0 1.334H.667A.667.667 0 0 1 0 14Zm11.333-7.333v.666h4a.667.667 0 1 1 0 1.334h-4v.666a.667.667 0 0 1-1.138.472L8.862 8.47a.667.667 0 0 1 0-.942l1.333-1.334a.667.667 0 0 1 1.138.472Z"/></svg>