<svg xmlns="http://www.w3.org/2000/svg" viewBox="0 0 16 16" class="pdsicon"><path fill-rule="evenodd" d="M13.017.766a.667.667 0 0 1 .316.567V12a.667.667 0 0 1-.965.596L7.22 10.022l1.302 3.23a2 2 0 0 1-1.108 2.6l-.25-.617.25.618a2 2 0 0 1-2.6-1.107L2.871 9.967a3.333 3.333 0 0 1 .461-6.635h3.843L12.368.737a.667.667 0 0 1 .65.03Zm-6.809 7.9h1.125c.104 0 .206.025.298.071L12 10.921V2.412L7.631 4.596a.667.667 0 0 1-.298.07h-4a2 2 0 0 0-.014 4h2.889ZM5.774 10h-1.45l1.726 4.247a.666.666 0 0 0 1.235-.497L5.774 10ZM14 8.667v-4a2 2 0 0 1 0 4Z"/></svg>