<svg width="16" height="16" viewBox="0 0 16 16" fill="none" xmlns="http://www.w3.org/2000/svg">
<g clip-path="url(#clip0_3_1661)">
<path fill-rule="evenodd" clip-rule="evenodd" d="M13.0167 0.765979C12.9201 0.706324 12.8099 0.672319 12.6965 0.667186C12.5831 0.662053 12.4702 0.685961 12.3687 0.736645L7.176 3.33331H3.33333C2.44928 3.33331 1.60143 3.6845 0.976311 4.30962C0.351189 4.93474 0 5.78259 0 6.66665C0 7.5507 0.351189 8.39855 0.976311 9.02367C1.60143 9.64879 2.44928 9.99998 3.33333 9.99998H7.176L12.3687 12.6C12.4706 12.6509 12.5839 12.6749 12.6977 12.6696C12.8115 12.6643 12.922 12.6299 13.0188 12.5697C13.1155 12.5096 13.1952 12.4256 13.2503 12.3258C13.3054 12.2261 13.334 12.1139 13.3333 12V1.33331C13.3333 1.21959 13.3042 1.10776 13.2488 1.00846C13.1934 0.909155 13.1135 0.825683 13.0167 0.765979ZM14 4.66667V8.66667C14.5304 8.66667 15.0391 8.45595 15.4142 8.08088C15.7893 7.70581 16 7.1971 16 6.66667C16 6.13623 15.7893 5.62753 15.4142 5.25245C15.0391 4.87738 14.5304 4.66667 14 4.66667ZM3.87533 11.3333H6.76133L7.90333 14.168C8.01929 14.4925 8.00516 14.8492 7.86388 15.1635C7.7226 15.4777 7.46515 15.7251 7.1455 15.8537C6.82585 15.9823 6.46882 15.9822 6.14925 15.8534C5.82968 15.7246 5.5724 15.477 5.43133 15.1627L3.87533 11.3333Z" fill="#202327"/>
</g>
<defs>
<clipPath id="clip0_3_1661">
<rect width="16" height="16" fill="white"/>
</clipPath>
</defs>
</svg>
