<svg width="16" height="16" viewBox="0 0 16 16" fill="none" xmlns="http://www.w3.org/2000/svg">
<path fill-rule="evenodd" clip-rule="evenodd" d="M0 3.33334C0 2.96515 0.298477 2.66667 0.666667 2.66667H15.3333C15.7015 2.66667 16 2.96515 16 3.33334C16 3.70153 15.7015 4 15.3333 4H0.666667C0.298477 4 0 3.70153 0 3.33334ZM0 8.00001C0 7.63182 0.298477 7.33335 0.666667 7.33335H15.3333C15.7015 7.33335 16 7.63182 16 8.00001C16 8.3682 15.7015 8.66668 15.3333 8.66668H0.666667C0.298477 8.66668 0 8.3682 0 8.00001ZM0.666667 12C0.298477 12 0 12.2985 0 12.6667C0 13.0349 0.298477 13.3333 0.666667 13.3333H15.3333C15.7015 13.3333 16 13.0349 16 12.6667C16 12.2985 15.7015 12 15.3333 12H0.666667Z" fill="#202327"/>
</svg>
