<svg width="16" height="16" viewBox="0 0 16 16" fill="none" xmlns="http://www.w3.org/2000/svg">
<path fill-rule="evenodd" clip-rule="evenodd" d="M0 8C0 7.63181 0.298477 7.33334 0.666667 7.33334H15.3333C15.7015 7.33334 16 7.63181 16 8C16 8.36819 15.7015 8.66667 15.3333 8.66667H0.666667C0.298477 8.66667 0 8.36819 0 8Z" fill="#202327"/>
<path fill-rule="evenodd" clip-rule="evenodd" d="M0 3.33334C0 2.96515 0.298477 2.66667 0.666667 2.66667H11.3333C11.7015 2.66667 12 2.96515 12 3.33334C12 3.70153 11.7015 4.00001 11.3333 4.00001H0.666667C0.298477 4.00001 0 3.70153 0 3.33334Z" fill="#202327"/>
<path fill-rule="evenodd" clip-rule="evenodd" d="M0 12.6667C0 12.2985 0.298477 12 0.666667 12H8.66667C9.03486 12 9.33333 12.2985 9.33333 12.6667C9.33333 13.0349 9.03486 13.3333 8.66667 13.3333H0.666667C0.298477 13.3333 0 13.0349 0 12.6667Z" fill="#202327"/>
</svg>
