<svg width="16" height="16" viewBox="0 0 16 16" fill="none" xmlns="http://www.w3.org/2000/svg">
<g clip-path="url(#clip0_3_3760)">
<path fill-rule="evenodd" clip-rule="evenodd" d="M14.4734 14.86L10.4734 10.86C10.2134 10.6 9.79338 10.6 9.53338 10.86C9.27338 11.12 9.27338 11.54 9.53338 11.8L13.5334 15.8C13.7934 16.06 14.2134 16.06 14.4734 15.8C14.7334 15.54 14.7334 15.12 14.4734 14.86Z" fill="#202327"/>
<path fill-rule="evenodd" clip-rule="evenodd" d="M10.86 5.13998C11.12 5.39998 11.54 5.39998 11.8 5.13998C12.06 4.87998 12.06 4.45998 11.8 4.19998L8.46667 0.86665C8.40667 0.80665 8.33333 0.753316 8.24667 0.719983C8.08667 0.653316 7.9 0.653316 7.74 0.719983C7.66667 0.753316 7.59333 0.799983 7.52667 0.859983L4.19333 4.19332C3.93333 4.45332 3.93333 4.87332 4.19333 5.13332C4.45333 5.39332 4.87333 5.39332 5.13333 5.13332L7.33333 2.93998V9.05332L1.52667 14.86C1.26667 15.12 1.26667 15.54 1.52667 15.8C1.78667 16.06 2.20667 16.06 2.46667 15.8L8.46667 9.79998C8.59333 9.67998 8.66667 9.50665 8.66667 9.33332V2.93998L10.86 5.13998Z" fill="#202327"/>
</g>
<defs>
<clipPath id="clip0_3_3760">
<rect width="13.3333" height="15.3333" fill="white" transform="translate(1.33337 0.666656)"/>
</clipPath>
</defs>
</svg>
