<svg xmlns="http://www.w3.org/2000/svg" viewBox="0 0 16 16" class="sageicon"><path fill-rule="evenodd" d="M12 6.667c0 2.266-1.733 4-4 4s-4-1.734-4-4V4c0-2.267 1.733-4 4-4s4 1.733 4 4v2.667ZM8 1.333A2.675 2.675 0 0 0 5.333 4v2.667c0 1.466 1.2 2.666 2.667 2.666 1.467 0 2.667-1.2 2.667-2.666V4c0-1.467-1.2-2.667-2.667-2.667ZM14 6c.4 0 .667.267.667.667 0 3.466-2.6 6.333-6 6.666v1.334h2.666c.4 0 .667.266.667.666s-.267.667-.667.667H4.667c-.4 0-.667-.267-.667-.667s.267-.666.667-.666h2.666v-1.334c-3.4-.333-6-3.2-6-6.666C1.333 6.267 1.6 6 2 6s.667.267.667.667C2.667 9.6 5.067 12 8 12c2.933 0 5.333-2.4 5.333-5.333 0-.4.267-.667.667-.667Z"/></svg>