<svg xmlns="http://www.w3.org/2000/svg" viewBox="0 0 16 16" class="pdsicon"><path fill-rule="evenodd" d="m6.893 10.053 7.58-7.58a.67.67 0 1 0-.946-.946l-1.614 1.62A3.96 3.96 0 0 0 8.053 0h-.126A4 4 0 0 0 4 4v2.667A3.94 3.94 0 0 0 5.38 9.68l-.953.947a5.334 5.334 0 0 1-1.76-3.96.667.667 0 0 0-1.334 0 6.667 6.667 0 0 0 2.147 4.906l-1.953 1.954a.666.666 0 0 0 0 .946.667.667 0 0 0 .946 0l4.414-4.42h.006Zm-1.56-3.386V4a2.667 2.667 0 0 1 1.62-2.453A2.853 2.853 0 0 1 8 1.333a2.667 2.667 0 0 1 2.447 1.627c.138.33.213.683.22 1.04v.393l-4.34 4.34a2.593 2.593 0 0 1-.994-2.066Zm6 .353a.667.667 0 0 0-.826.447A2.58 2.58 0 0 1 8.773 9.2a.667.667 0 0 0 .22 1.307c.065.007.13.007.194 0a3.92 3.92 0 0 0 2.666-2.667.668.668 0 0 0-.52-.82Zm2.196-.825a.667.667 0 0 1 1.138.472 6.666 6.666 0 0 1-6 6.666v1.334h2.666a.667.667 0 1 1 0 1.333H4.667a.666.666 0 1 1 0-1.333h2.666v-1.38a7.126 7.126 0 0 1-1.126-.2.669.669 0 0 1 .36-1.287c.466.133.948.2 1.433.2a5.333 5.333 0 0 0 5.333-5.333c0-.177.07-.347.196-.472Z"/></svg>