<svg xmlns="http://www.w3.org/2000/svg" viewBox="0 0 16 16" class="sageicon"><path fill-rule="evenodd" d="M0 4.667C0 4.298.298 4 .667 4h14.666c.368 0 .667.298.667.667v10.666a.667.667 0 0 1-.667.667H.667A.667.667 0 0 1 0 15.333V4.667Zm1.333.666v9.334h13.334V5.333H1.333Z"/><path fill-rule="evenodd" d="M8 8.667a1.333 1.333 0 1 0 0 2.667 1.333 1.333 0 0 0 0-2.667ZM5.333 10a2.667 2.667 0 1 1 5.334 0 2.667 2.667 0 0 1-5.333 0ZM2 2.667C2 2.298 2.298 2 2.667 2h10.666a.667.667 0 1 1 0 1.333H2.667A.667.667 0 0 1 2 2.667ZM4.667.667c0-.369.298-.667.666-.667h5.333a.667.667 0 1 1 0 1.333H5.333a.667.667 0 0 1-.667-.666Z"/></svg>