<svg width="16" height="16" viewBox="0 0 16 16" fill="none" xmlns="http://www.w3.org/2000/svg">
<g clip-path="url(#clip0_3_3757)">
<path fill-rule="evenodd" clip-rule="evenodd" d="M0 4.66667C0 4.29848 0.292115 4 0.652457 4H15.0065C15.3669 4 15.659 4.29848 15.659 4.66667V15.3333C15.659 15.7015 15.3669 16 15.0065 16H0.652457C0.292115 16 0 15.7015 0 15.3333V4.66667ZM1.30491 5.33333V14.6667H14.3541V5.33333H1.30491Z" fill="#202327"/>
<path fill-rule="evenodd" clip-rule="evenodd" d="M7.82962 8.66683C7.10893 8.66683 6.5247 9.26378 6.5247 10.0002C6.5247 10.7365 7.10893 11.3335 7.82962 11.3335C8.5503 11.3335 9.13453 10.7365 9.13453 10.0002C9.13453 9.26378 8.5503 8.66683 7.82962 8.66683ZM5.21979 10.0002C5.21979 8.5274 6.38825 7.3335 7.82962 7.3335C9.27099 7.3335 10.4394 8.5274 10.4394 10.0002C10.4394 11.4729 9.27099 12.6668 7.82962 12.6668C6.38825 12.6668 5.21979 11.4729 5.21979 10.0002Z" fill="#202327"/>
<path fill-rule="evenodd" clip-rule="evenodd" d="M1.9574 2.66667C1.9574 2.29848 2.24951 2 2.60985 2H13.0492C13.4095 2 13.7016 2.29848 13.7016 2.66667C13.7016 3.03486 13.4095 3.33333 13.0492 3.33333H2.60985C2.24951 3.33333 1.9574 3.03486 1.9574 2.66667Z" fill="#202327"/>
<path fill-rule="evenodd" clip-rule="evenodd" d="M4.56708 0.666667C4.56708 0.298477 4.85919 0 5.21954 0H10.4392C10.7995 0 11.0917 0.298477 11.0917 0.666667C11.0917 1.03486 10.7995 1.33333 10.4392 1.33333H5.21954C4.85919 1.33333 4.56708 1.03486 4.56708 0.666667Z" fill="#202327"/>
</g>
<defs>
<clipPath id="clip0_3_3757">
<rect width="15.659" height="16" fill="white"/>
</clipPath>
</defs>
</svg>
