<svg width="16" height="16" viewBox="0 0 16 16" fill="none" xmlns="http://www.w3.org/2000/svg">
<g clip-path="url(#clip0_3_3754)">
<path fill-rule="evenodd" clip-rule="evenodd" d="M0 2.66667C0 2.29848 0.290143 2 0.648053 2H14.9052C15.2631 2 15.5533 2.29848 15.5533 2.66667V13.3333C15.5533 13.7015 15.2631 14 14.9052 14H0.648053C0.290143 14 0 13.7015 0 13.3333V2.66667ZM1.29611 3.33333V12.6667H14.2572V3.33333H1.29611Z" fill="#202327"/>
<path fill-rule="evenodd" clip-rule="evenodd" d="M7.77678 6.66683C7.06096 6.66683 6.48068 7.26378 6.48068 8.00016C6.48068 8.73654 7.06096 9.33349 7.77678 9.33349C8.4926 9.33349 9.07289 8.73654 9.07289 8.00016C9.07289 7.26378 8.4926 6.66683 7.77678 6.66683ZM5.18457 8.00016C5.18457 6.5274 6.34514 5.3335 7.77678 5.3335C9.20842 5.3335 10.369 6.5274 10.369 8.00016C10.369 9.47292 9.20842 10.6668 7.77678 10.6668C6.34514 10.6668 5.18457 9.47292 5.18457 8.00016Z" fill="#202327"/>
</g>
<defs>
<clipPath id="clip0_3_3754">
<rect width="15.5533" height="16" fill="white"/>
</clipPath>
</defs>
</svg>
