<svg width="16" height="16" viewBox="0 0 16 16" fill="none" xmlns="http://www.w3.org/2000/svg">
<path fill-rule="evenodd" clip-rule="evenodd" d="M5.33331 0C4.96512 0 4.66665 0.298477 4.66665 0.666667C4.66665 1.03486 4.96512 1.33333 5.33331 1.33333H10.6666C11.0348 1.33333 11.3333 1.03486 11.3333 0.666667C11.3333 0.298477 11.0348 0 10.6666 0H5.33331ZM2.66665 3.33333C2.66665 2.96514 2.96512 2.66667 3.33331 2.66667H12.6666C13.0348 2.66667 13.3333 2.96514 13.3333 3.33333C13.3333 3.70152 13.0348 4 12.6666 4H3.33331C2.96512 4 2.66665 3.70152 2.66665 3.33333ZM1.33331 6C1.33331 5.63181 1.63179 5.33333 1.99998 5.33333H14C14.3682 5.33333 14.6666 5.63181 14.6666 6V15.3333C14.6666 15.7015 14.3682 16 14 16H1.99998C1.63179 16 1.33331 15.7015 1.33331 15.3333V6ZM2.66665 6.66667V14.6667H13.3333V6.66667H2.66665Z" fill="#202327"/>
</svg>
