<svg width="16" height="16" viewBox="0 0 16 16" fill="none" xmlns="http://www.w3.org/2000/svg">
<g clip-path="url(#clip0_3_1694)">
<path fill-rule="evenodd" clip-rule="evenodd" d="M6 8C4.15933 8 2.66667 5.84067 2.66667 4V3.33333C2.66667 1.49267 4.15933 0 6 0C7.84067 0 9.33333 1.49267 9.33333 3.33333V4C9.33333 5.84067 7.84067 8 6 8ZM8 12C8 11.122 8.24667 10.304 8.668 9.60267C7.866 9.44467 6.96133 9.33333 6 9.33333C4.11733 9.33333 2.44733 9.75867 1.35067 10.1287C0.54 10.4027 0 11.166 0 12.0213V14.6667H8.84C8.312 13.9107 8 12.992 8 12ZM13.6967 10.754L12.6667 8.66667L11.6367 10.754L9.33333 11.0887L11 12.7133L10.6067 15.0073L12.6667 13.924L14.7267 15.0073L14.3333 12.7133L16 11.0887L13.6967 10.754Z" fill="#202327"/>
</g>
<defs>
<clipPath id="clip0_3_1694">
<rect width="16" height="16" fill="white"/>
</clipPath>
</defs>
</svg>
