<svg xmlns="http://www.w3.org/2000/svg" viewBox="0 0 16 16" class="sageicon"><path fill-rule="evenodd" d="M4.452 8.435c.123.158.258.31.403.453-.938.165-1.754.396-2.385.609A2.661 2.661 0 0 0 .667 12.02v2.646c0 .368.298.666.667.666H8A.667.667 0 1 0 8 14H2v-1.979c0-.573.362-1.08.897-1.26C3.95 10.404 5.547 10 7.333 10c1.192 0 2.2-.694 2.882-1.565.684-.874 1.118-2.016 1.118-3.102v-.666a4 4 0 0 0-8 0v.666c0 1.086.434 2.228 1.119 3.102ZM7.333 2a2.667 2.667 0 0 0-2.666 2.667v.666c0 .755.312 1.613.834 2.28.524.668 1.183 1.054 1.832 1.054.65 0 1.308-.386 1.832-1.055.523-.666.835-1.524.835-2.279v-.666A2.667 2.667 0 0 0 7.333 2Zm-6 12.667v.666-.666Z"/><path d="m13.697 10.754-1.03-2.087-1.03 2.087-2.304.335L11 12.713l-.393 2.294 2.06-1.083 2.06 1.083-.394-2.294L16 11.09l-2.303-.335Z"/></svg>