<svg width="16" height="16" viewBox="0 0 16 16" fill="none" xmlns="http://www.w3.org/2000/svg">
<g clip-path="url(#clip0_3_3752)">
<path fill-rule="evenodd" clip-rule="evenodd" d="M6.12494 4.875C6.47012 4.875 6.74994 5.15482 6.74994 5.5V10.5C6.74994 10.8452 6.47012 11.125 6.12494 11.125C5.77976 11.125 5.49994 10.8452 5.49994 10.5V5.5C5.49994 5.15482 5.77976 4.875 6.12494 4.875Z" fill="#202327"/>
<path fill-rule="evenodd" clip-rule="evenodd" d="M9.87494 4.875C10.2201 4.875 10.4999 5.15482 10.4999 5.5V10.5C10.4999 10.8452 10.2201 11.125 9.87494 11.125C9.52976 11.125 9.24994 10.8452 9.24994 10.5V5.5C9.24994 5.15482 9.52976 4.875 9.87494 4.875Z" fill="#202327"/>
<path fill-rule="evenodd" clip-rule="evenodd" d="M8 1.75C4.54822 1.75 1.75 4.54822 1.75 8C1.75 11.4518 4.54822 14.25 8 14.25C11.4518 14.25 14.25 11.4518 14.25 8C14.25 4.54822 11.4518 1.75 8 1.75ZM0.5 8C0.5 3.85786 3.85786 0.5 8 0.5C12.1421 0.5 15.5 3.85786 15.5 8C15.5 12.1421 12.1421 15.5 8 15.5C3.85786 15.5 0.5 12.1421 0.5 8Z" fill="#202327"/>
</g>
<defs>
<clipPath id="clip0_3_3752">
<rect width="16" height="16" fill="white"/>
</clipPath>
</defs>
</svg>
