<svg width="16" height="16" viewBox="0 0 16 16" fill="none" xmlns="http://www.w3.org/2000/svg">
<g clip-path="url(#clip0_3_3348)">
<path d="M16 7.3C16 7.2 16 7.1 15.9 6.9C15.8 6.8 15.8 6.8 15.7 6.7L13.3 5V0.7C13.3 0.3 13 0 12.6 0H3.3C2.9 0 2.7 0.3 2.7 0.7V5L0.3 6.8C0.2 6.9 0.1 7 0.1 7C0 7.1 0 7.2 0 7.3V15.4C0 15.7 0.3 16 0.7 16H15.3C15.7 16 16 15.7 16 15.3C16 15.3 16 7.4 16 7.3ZM4 1.3H12V8.3L8 10.5L4 8.4V1.3ZM1.3 14.6V8.4L12.7 14.6H1.3ZM14.7 14.1L9.4 11.2L14.7 8.3V14.1Z" fill="#202327"/>
<path d="M8.49998 8.9V8.4C8.69998 8.3 8.99998 8.2 9.19998 8.1C9.49998 7.9 9.79998 7.5 9.79998 6.8C9.79998 5.9 9.09998 5.5 8.49998 5.3V3.9C8.69998 4 8.89998 4 9.19998 4.1C9.49998 4.2 9.79998 4.2 9.89998 3.9C9.99998 3.6 9.89998 3.4 9.69998 3.3C9.49998 3.2 8.89998 3 8.49998 2.9V2.8C8.49998 2.5 8.29998 2.3 7.99998 2.3C7.69998 2.3 7.39998 2.5 7.39998 2.8V3C7.09998 3.1 6.99998 3.1 6.49998 3.3C5.99998 3.5 5.89998 3.9 5.89998 4.4C5.89998 5.4 6.59998 5.8 7.39998 6.1V7.5C7.09998 7.4 6.59998 7.3 6.29998 7.2C5.99998 7.1 5.79998 7.3 5.69998 7.6C5.59998 7.9 5.69998 8.1 5.99998 8.2C6.39998 8.3 6.89998 8.5 7.39998 8.5V9C7.39998 9.3 7.69998 9.5 7.99998 9.5C8.29998 9.5 8.49998 9.2 8.49998 8.9ZM8.49998 6.4C8.79998 6.5 8.79998 6.7 8.79998 6.8C8.79998 7.1 8.69998 7.2 8.59998 7.3L8.49998 7.4V6.4ZM7.49998 5C7.09998 4.8 6.99998 4.6 6.99998 4.4C6.99998 4.2 7.09998 4.1 7.19998 4C7.29998 3.9 7.39998 3.9 7.49998 3.9V5Z" fill="#202327"/>
</g>
<defs>
<clipPath id="clip0_3_3348">
<rect width="16" height="16" fill="white"/>
</clipPath>
</defs>
</svg>
