<svg xmlns="http://www.w3.org/2000/svg" viewBox="0 0 16 16" class="pdsicon"><path d="M16 7.3c0-.1 0-.2-.1-.4l-.2-.2L13.3 5V.7c0-.4-.3-.7-.7-.7H3.3c-.4 0-.6.3-.6.7V5L.3 6.8.1 7c-.1.1-.1.2-.1.3v8.1c0 .3.3.6.7.6h14.6c.4 0 .7-.3.7-.7v-8Zm-12-6h8v7l-4 2.2-4-2.1V1.3ZM1.3 14.6V8.4l11.4 6.2H1.3Zm13.4-.5-5.3-2.9 5.3-2.9v5.8Z"/><path d="M8.5 8.9v-.5c.2-.1.5-.2.7-.3.3-.2.6-.6.6-1.3 0-.9-.7-1.3-1.3-1.5V3.9c.2.1.4.1.7.2.3.1.6.1.7-.2.1-.3 0-.5-.2-.6-.2-.1-.8-.3-1.2-.4v-.1c0-.3-.2-.5-.5-.5s-.6.2-.6.5V3c-.3.1-.4.1-.9.3-.5.2-.6.6-.6 1.1 0 1 .7 1.4 1.5 1.7v1.4c-.3-.1-.8-.2-1.1-.3-.3-.1-.5.1-.6.4-.1.3 0 .5.3.6.4.1.9.3 1.4.3V9c0 .3.3.5.6.5s.5-.3.5-.6Zm0-2.5c.3.1.3.3.3.4 0 .3-.1.4-.2.5l-.1.1v-1ZM7.5 5c-.4-.2-.5-.4-.5-.6 0-.2.1-.3.2-.4.1-.1.2-.1.3-.1V5Z"/></svg>