<svg width="16" height="16" viewBox="0 0 16 16" fill="none" xmlns="http://www.w3.org/2000/svg">
<path fill-rule="evenodd" clip-rule="evenodd" d="M7.01599 3.76562H11.5292C13.9521 3.76562 14.8645 4.99215 14.7236 6.79709C14.4913 9.77256 12.6923 11.4179 10.3061 11.4179H9.10143C8.77441 11.4179 8.55436 11.634 8.46537 12.2215L7.94852 15.6326C7.91497 15.8541 7.79843 15.9843 7.62333 16H4.79339C4.52711 16 4.43237 15.7963 4.50207 15.3551L6.23024 4.41292C6.29948 3.97442 6.53938 3.76562 7.01599 3.76562Z" fill="#009CDE"/>
<path fill-rule="evenodd" clip-rule="evenodd" d="M4.19407 0H8.71177C9.98419 0 11.4932 0.0413066 12.5028 0.931666C13.1772 1.52645 13.5311 2.47406 13.4494 3.49137C13.1948 6.66153 11.4315 8.55011 9 8.83534C8.78562 8.86049 8.56604 8.87317 8.34184 8.87317H6.11372C5.73448 8.87317 5.4831 9.12446 5.37615 9.80506L4.75439 13.7603C4.71407 14.017 4.60282 14.1682 4.39975 14.1864H1.61682C1.30802 14.1864 1.19823 13.9502 1.27903 13.4385L3.28297 0.750573C3.36328 0.242106 3.6414 0 4.19407 0Z" fill="#003087"/>
<path fill-rule="evenodd" clip-rule="evenodd" d="M5.44092 9.40634L6.2299 4.41289C6.29914 3.97438 6.53903 3.76562 7.01564 3.76562H11.5289C12.276 3.76562 12.8796 3.88225 13.3527 4.09724C12.8992 7.16729 10.9135 8.8732 8.3131 8.8732H6.08498C5.79162 8.8732 5.57253 9.02305 5.44092 9.40634Z" fill="#012169"/>
</svg>
