<svg xmlns="http://www.w3.org/2000/svg" viewBox="0 0 16 16" class="sageicon"><path fill-rule="evenodd" d="M4.5 1.333a.433.433 0 0 0-.323.163A.77.77 0 0 0 4 2v12a.77.77 0 0 0 .177.504.433.433 0 0 0 .323.163h7c.102 0 .22-.046.323-.163A.77.77 0 0 0 12 14V2a.77.77 0 0 0-.177-.504.433.433 0 0 0-.323-.163h-7ZM3.173.618C3.508.236 3.983 0 4.5 0h7c.517 0 .992.236 1.327.618.332.38.506.878.506 1.382v12c0 .504-.174 1.002-.506 1.382-.335.383-.81.618-1.327.618h-7c-.517 0-.992-.236-1.327-.618A2.102 2.102 0 0 1 2.667 14V2c0-.504.174-1.002.506-1.382Z"/><path d="M8 13.333A.667.667 0 1 0 8 12a.667.667 0 0 0 0 1.333Z"/></svg>