<svg xmlns="http://www.w3.org/2000/svg" viewBox="0 0 16 16" class="pdsicon"><g clip-path="url(#a)"><path d="M15 7.4c-.1-.2-.3-.3-.5-.5L2.7.2C2.3 0 1.8 0 1.4.2c-.1.1-.3.2-.4.4-.1.2-.2.4-.2.6v13.5c0 .2.1.4.2.6.1.2.3.3.5.5.2.1.4.2.6.2.2 0 .4-.1.6-.2L14.5 9c.2 0 .4-.2.5-.4.1-.2.2-.4.2-.6 0-.2-.1-.4-.2-.6Zm-1.4.6-2.4 1.4L9.8 8l1.4-1.4L13.6 8ZM10 10.1l-5.3 3L8.8 9l1.2 1.1ZM4.7 2.9l5.3 3L8.8 7 4.7 2.9ZM7.9 8l-5.7 5.7V2.3L7.9 8Z"/></g><defs><clipPath id="a"><path d="M0 0h16v16H0z"/></clipPath></defs></svg>