<svg xmlns="http://www.w3.org/2000/svg" viewBox="0 0 16 16" class="pdsicon"><path fill-rule="evenodd" d="M7.83 1.333C4.225 1.333 1.304 4.318 1.304 8s2.921 6.667 6.524 6.667c3.604 0 6.525-2.985 6.525-6.667S11.433 1.333 7.83 1.333ZM0 8c0-4.418 3.505-8 7.83-8 4.324 0 7.829 3.582 7.829 8s-3.505 8-7.83 8C3.505 16 0 12.418 0 8Z"/><path fill-rule="evenodd" d="M6.217 4.746a.64.64 0 0 1 .67.033L10.8 7.445a.67.67 0 0 1 .29.555.67.67 0 0 1-.29.555L6.887 11.22a.64.64 0 0 1-.67.034.67.67 0 0 1-.345-.588V5.333c0-.246.133-.471.345-.587Z"/></svg>