<svg xmlns="http://www.w3.org/2000/svg" viewBox="0 0 16 16" class="sageicon"><path fill-rule="evenodd" d="M12.985 2.073a4 4 0 0 0-5.147.432L6.367 3.976l5.657 5.657 1.471-1.47a4 4 0 0 0 .432-5.147l1.683-1.683-.943-.942-1.682 1.682Zm-5.652 7.65L6.276 8.668 7.61 7.333l-.942-.942-1.334 1.333-1.357-1.357-1.471 1.47a4 4 0 0 0-.432 5.147L.39 14.667l.942.943 1.683-1.683a4 4 0 0 0 5.146-.432l1.471-1.471-1.357-1.357L9.61 9.333l-.942-.943-1.334 1.334Zm-.942.944L5.333 9.609l-.942-.942-.415-.415-.529.529a2.667 2.667 0 0 0 3.772 3.772l.529-.529-.415-.414-.942-.943Zm2.39-7.22a2.667 2.667 0 0 1 3.772 3.772l-.529.529-3.772-3.772.529-.529Z"/></svg>