<svg xmlns="http://www.w3.org/2000/svg" viewBox="0 0 16 16" class="sageicon"><path fill-rule="evenodd" d="M4.423 1.334a1.058 1.058 0 0 0-1.09 1 1.058 1.058 0 0 0 1.111 1h2.573a5.514 5.514 0 0 0-.362-.628c-.505-.751-1.218-1.372-2.21-1.372h-.022ZM8 4l.642-.179A.667.667 0 0 1 8 4.667H4.454A2.391 2.391 0 0 1 2 2.357l.667-.023L2 2.312A2.391 2.391 0 0 1 4.455.001c1.63.004 2.692 1.048 3.306 1.961a7.147 7.147 0 0 1 .876 1.843l.003.011.001.004v.002L8 4.001Zm-.642.18Z"/><path fill-rule="evenodd" d="M12.332 1.62a1.058 1.058 0 0 0-.777-.286c-.993 0-1.706.62-2.21 1.372-.144.214-.265.43-.363.628h2.593a1.058 1.058 0 0 0 1.09-1 1.058 1.058 0 0 0-.332-.715ZM8 4l-.643-.178V3.82l.002-.004.003-.01a2.813 2.813 0 0 1 .05-.16 7.147 7.147 0 0 1 .826-1.684C8.852 1.05 9.914.005 11.545.001a2.391 2.391 0 0 1 2.454 2.355 2.391 2.391 0 0 1-2.454 2.311H8a.667.667 0 0 1-.643-.845L8 4.001ZM2 8c.368 0 .667.299.667.667V14a.667.667 0 0 0 .666.667h9.333a.666.666 0 0 0 .667-.667V8.667a.667.667 0 0 1 1.333 0V14a2 2 0 0 1-2 2H3.333a2 2 0 0 1-2-2V8.667C1.333 8.3 1.632 8 2 8Z"/><path fill-rule="evenodd" d="M0 4c0-.368.298-.666.667-.666h14.665c.369 0 .667.298.667.667v2.666a.667.667 0 0 1-.667.667H.668A.667.667 0 0 1 0 6.667V4.001Zm1.333.667v1.334h13.333V4.667H1.333Z"/><path fill-rule="evenodd" d="M8 3.334c.368 0 .666.298.666.667v11.332a.667.667 0 0 1-1.333 0V4.001c0-.369.298-.667.667-.667Z"/></svg>