<svg xmlns="http://www.w3.org/2000/svg" viewBox="0 0 16 16" class="sageicon"><path d="M15.247 7.667c-.067-.12-1.067-1.827-2.76-3.214l1.986-1.986a.664.664 0 1 0-.94-.94l-2.146 2.146C10.407 3.087 9.273 2.667 8 2.667c-4.34 0-7.127 4.8-7.247 5a.65.65 0 0 0 0 .66c.067.12 1.067 1.826 2.76 3.213l-1.986 1.987c-.26.26-.26.68 0 .94.133.133.3.2.473.2s.34-.067.473-.194l2.147-2.146c.973.586 2.107 1.006 3.38 1.006 4.34 0 7.127-4.8 7.247-5a.696.696 0 0 0 0-.666ZM2.12 8C2.793 6.987 5.02 4 8 4c.873 0 1.68.26 2.407.653l-1.06 1.06c-.4-.233-.854-.38-1.347-.38A2.666 2.666 0 0 0 5.333 8c0 .493.147.947.38 1.347l-1.246 1.246C3.313 9.673 2.487 8.547 2.12 8Zm7.213 0c0 .733-.6 1.333-1.333 1.333-.12 0-.233-.02-.34-.046L9.287 7.66c.026.107.046.22.046.34ZM6.667 8c0-.733.6-1.333 1.333-1.333.12 0 .233.02.34.046L6.713 8.34A1.395 1.395 0 0 1 6.667 8ZM8 12c-.873 0-1.68-.26-2.407-.653l1.06-1.06c.4.233.854.38 1.347.38A2.666 2.666 0 0 0 10.667 8c0-.493-.147-.947-.38-1.347l1.246-1.246c1.154.92 1.98 2.046 2.34 2.593-.666 1.013-2.893 4-5.873 4Z"/></svg>