<svg xmlns="http://www.w3.org/2000/svg" viewBox="0 0 16 16" class="sageicon"><path fill-rule="evenodd" d="M1.585 7.818A13.344 13.344 0 0 0 3.241 9.85c1.221 1.221 2.863 2.333 4.76 2.333 1.895 0 3.537-1.112 4.758-2.333a13.347 13.347 0 0 0 1.656-2.03 13.348 13.348 0 0 0-1.656-2.031C11.539 4.566 9.896 3.454 8 3.454c-1.896 0-3.538 1.111-4.758 2.332a13.345 13.345 0 0 0-1.657 2.031Zm13.688 0 .631-.361-.001-.002-.003-.005-.008-.014a13.813 13.813 0 0 0-.138-.225 14.797 14.797 0 0 0-1.967-2.452C12.462 3.434 10.467 2 8 2 5.532 2 3.538 3.434 2.213 4.759A14.8 14.8 0 0 0 .246 7.21a8.859 8.859 0 0 0-.138.225L.1 7.45l-.003.005v.001s-.001.001.63.362l-.631-.36a.727.727 0 0 0 0 .721l.631-.36-.631.36.001.003.003.004.008.014a5.202 5.202 0 0 0 .138.226 14.8 14.8 0 0 0 1.967 2.452c1.325 1.325 3.32 2.758 5.787 2.758 2.468 0 4.462-1.433 5.787-2.758a14.797 14.797 0 0 0 1.967-2.452 8.904 8.904 0 0 0 .138-.226l.008-.014.003-.004V8.18l-.63-.362Zm0 0 .631.361a.728.728 0 0 0 0-.722l-.631.361Z"/><path fill-rule="evenodd" d="M8 6.364a1.455 1.455 0 1 0 0 2.909 1.455 1.455 0 0 0 0-2.91ZM5.091 7.818a2.91 2.91 0 1 1 5.818 0 2.91 2.91 0 0 1-5.818 0Z"/></svg>