<svg width="16" height="16" viewBox="0 0 16 16" fill="none" xmlns="http://www.w3.org/2000/svg">
<g clip-path="url(#clip0_3_3742)">
<path d="M15.2467 7.66665C15.18 7.54665 14.18 5.83998 12.4867 4.45332L14.4733 2.46665C14.7333 2.20665 14.7333 1.78665 14.4733 1.52665C14.2133 1.26665 13.7933 1.26665 13.5333 1.52665L11.3867 3.67332C10.4067 3.08665 9.27333 2.66665 8 2.66665C3.66 2.66665 0.87333 7.46665 0.75333 7.66665C0.63333 7.87332 0.63333 8.11998 0.75333 8.32665C0.819997 8.44665 1.82 10.1533 3.51333 11.54L1.52666 13.5267C1.26666 13.7866 1.26666 14.2066 1.52666 14.4667C1.66 14.6 1.82666 14.6666 2 14.6666C2.17333 14.6666 2.34 14.6 2.47333 14.4733L4.62 12.3266C5.59333 12.9133 6.72666 13.3333 8 13.3333C12.34 13.3333 15.1267 8.53332 15.2467 8.33332C15.36 8.12665 15.36 7.87332 15.2467 7.66665ZM2.12 7.99998C2.79333 6.98665 5.02 3.99998 8 3.99998C8.87333 3.99998 9.68 4.25998 10.4067 4.65332L9.34666 5.71332C8.94666 5.47998 8.49333 5.33332 8 5.33332C6.52666 5.33332 5.33333 6.52665 5.33333 7.99998C5.33333 8.49332 5.48 8.94665 5.71333 9.34665L4.46666 10.5933C3.31333 9.67332 2.48666 8.54665 2.12 7.99998ZM9.33333 7.99998C9.33333 8.73332 8.73333 9.33332 8 9.33332C7.88 9.33332 7.76666 9.31332 7.66 9.28665L9.28666 7.65998C9.31333 7.76665 9.33333 7.87998 9.33333 7.99998ZM6.66666 7.99998C6.66666 7.26665 7.26666 6.66665 8 6.66665C8.12 6.66665 8.23333 6.68665 8.34 6.71332L6.71333 8.33998C6.68666 8.23332 6.66666 8.11998 6.66666 7.99998ZM8 12C7.12666 12 6.32 11.74 5.59333 11.3466L6.65333 10.2866C7.05333 10.52 7.50666 10.6666 8 10.6666C9.47333 10.6666 10.6667 9.47332 10.6667 7.99998C10.6667 7.50665 10.52 7.05332 10.2867 6.65332L11.5333 5.40665C12.6867 6.32665 13.5133 7.45332 13.8733 7.99998C13.2067 9.01332 10.98 12 8 12Z" fill="#202327"/>
</g>
<defs>
<clipPath id="clip0_3_3742">
<rect width="16" height="16" fill="white"/>
</clipPath>
</defs>
</svg>
