<svg xmlns="http://www.w3.org/2000/svg" viewBox="0 0 16 16" class="pdsicon"><path fill-rule="evenodd" d="m8.243 6.77 5.442-3.025a.2.2 0 0 0 0-.35L8.324.418a.667.667 0 0 0-.648 0L2.315 3.396a.2.2 0 0 0 0 .35l5.442 3.023a.5.5 0 0 0 .486 0Zm-.91 1.406a.2.2 0 0 0-.103-.174L1.63 4.89a.2.2 0 0 0-.297.175v6.602a.667.667 0 0 0 .343.582l5.36 2.978a.2.2 0 0 0 .297-.175V8.176Zm1.334 0a.2.2 0 0 1 .103-.174l5.6-3.111a.2.2 0 0 1 .297.175v6.6a.667.667 0 0 1-.343.583l-5.36 2.978a.2.2 0 0 1-.297-.175V8.176Z"/></svg>