<svg xmlns="http://www.w3.org/2000/svg" viewBox="0 0 16 16" class="pdsicon"><path d="M8 12.667a.667.667 0 1 0 0-1.334.667.667 0 0 0 0 1.334ZM6.838 4.983a3.651 3.651 0 0 1 1.75-.304c.56.053.888.253 1.025.475.33.535.2 1.281-.683 2.03-.988.837-1.597 1.478-1.597 2.483a.667.667 0 1 0 1.334 0c0-.329.113-.608 1.125-1.466 1.116-.946 1.791-2.395.955-3.748-.446-.723-1.265-1.029-2.034-1.101a4.982 4.982 0 0 0-2.414.412.667.667 0 1 0 .54 1.22Z"/><path fill-rule="evenodd" d="M0 8a8 8 0 1 1 16 0A8 8 0 0 1 0 8Zm8-6.667a6.667 6.667 0 1 0 0 13.334A6.667 6.667 0 0 0 8 1.333Z"/></svg>