<svg xmlns="http://www.w3.org/2000/svg" viewBox="0 0 16 16" class="pdsicon"><path fill-rule="evenodd" d="M4.255 2.616a.667.667 0 1 0-.51-1.232C2.533 1.885 1.581 2.698.94 3.83.306 4.954 0 6.35 0 8v6.666c0 .369.298.667.667.667H6a.667.667 0 0 0 .667-.667V8A.667.667 0 0 0 6 7.333H1.353c.071-1.174.334-2.112.748-2.846.485-.858 1.2-1.477 2.154-1.871ZM1.333 14V8.667h4V14h-4ZM13.588 2.616a.667.667 0 0 0-.51-1.232c-1.212.501-2.164 1.314-2.804 2.447-.635 1.123-.94 2.52-.94 4.169v6.666c0 .369.298.667.666.667h5.333a.667.667 0 0 0 .667-.667V8a.667.667 0 0 0-.667-.667h-4.647c.071-1.174.334-2.112.749-2.846.484-.858 1.199-1.477 2.153-1.871ZM10.667 14V8.667h4V14h-4Z"/></svg>