<svg width="16" height="16" viewBox="0 0 16 16" fill="none" xmlns="http://www.w3.org/2000/svg">
<path fill-rule="evenodd" clip-rule="evenodd" d="M14.4241 4.64247C14.3592 4.28005 14.0128 4.03889 13.6504 4.10382C13.2879 4.16876 13.0468 4.5152 13.1117 4.87761L13.6229 7.73093C11.9765 6.61133 10.0191 6 8.00005 6C5.34859 6 2.80368 7.05423 0.929317 8.9286C0.668967 9.18895 0.668967 9.61106 0.929317 9.8714C1.18967 10.1318 1.61178 10.1318 1.87213 9.8714C3.49643 8.2471 5.70219 7.33333 8.00005 7.33333C9.84286 7.33333 11.6264 7.92102 13.0983 8.99188L9.8416 9.57584C9.47919 9.64083 9.23808 9.9873 9.30306 10.3497C9.36805 10.7121 9.71452 10.9532 10.0769 10.8882L14.6875 10.0615C14.8276 10.0429 14.963 9.97982 15.0707 9.87216C15.2336 9.70937 15.2946 9.48329 15.2538 9.27307L14.4241 4.64247Z" fill="#202327"/>
</svg>
