<svg width="16" height="16" viewBox="0 0 16 16" fill="none" xmlns="http://www.w3.org/2000/svg">
<g clip-path="url(#clip0_3_3749)">
<path fill-rule="evenodd" clip-rule="evenodd" d="M7.99999 1.99999C4.68618 1.99999 1.99999 4.68618 1.99999 7.99999C1.99999 11.3138 4.68618 14 7.99999 14C10.4596 14 12.5747 12.5203 13.5011 10.3998C13.6485 10.0624 14.0415 9.90835 14.3789 10.0557C14.7163 10.2031 14.8703 10.5961 14.7229 10.9335C13.592 13.5223 11.0084 15.3333 7.99999 15.3333C3.9498 15.3333 0.666656 12.0502 0.666656 7.99999C0.666656 3.9498 3.9498 0.666656 7.99999 0.666656C9.61387 0.666656 11.1071 1.18867 12.3183 2.07222L13.5286 0.861936C13.7052 0.685354 13.9656 0.622267 14.2035 0.698477C14.4413 0.774688 14.6165 0.977414 14.6576 1.22374L15.3243 5.22374C15.3597 5.43611 15.2903 5.6525 15.1381 5.80475C14.9858 5.95699 14.7694 6.02633 14.5571 5.99094L10.5571 5.32427C10.3107 5.28322 10.108 5.10794 10.0318 4.87013C9.9556 4.63231 10.0187 4.37185 10.1953 4.19527L11.3615 3.02906C10.4023 2.37919 9.24568 1.99999 7.99999 1.99999Z" fill="#202327"/>
</g>
<defs>
<clipPath id="clip0_3_3749">
<rect width="16" height="16" fill="white"/>
</clipPath>
</defs>
</svg>
