<svg width="16" height="16" viewBox="0 0 16 16" fill="none" xmlns="http://www.w3.org/2000/svg">
<g clip-path="url(#clip0_3_3793)">
<path d="M11.1381 4.86193C11.3984 5.12228 11.3984 5.54439 11.1381 5.80474L8.94281 8L11.1381 10.1953C11.3984 10.4556 11.3984 10.8777 11.1381 11.1381C10.8777 11.3984 10.4556 11.3984 10.1953 11.1381L8 8.94281L5.80474 11.1381C5.54439 11.3984 5.12228 11.3984 4.86193 11.1381C4.60158 10.8777 4.60158 10.4556 4.86193 10.1953L7.05719 8L4.86193 5.80474C4.60158 5.54439 4.60158 5.12228 4.86193 4.86193C5.12228 4.60158 5.54439 4.60158 5.80474 4.86193L8 7.05719L10.1953 4.86193C10.4556 4.60158 10.8777 4.60158 11.1381 4.86193Z" fill="#202327"/>
<path fill-rule="evenodd" clip-rule="evenodd" d="M8 0C3.58172 0 0 3.58172 0 8C0 12.4183 3.58172 16 8 16C12.4183 16 16 12.4183 16 8C16 3.58172 12.4183 0 8 0ZM1.33333 8C1.33333 4.3181 4.3181 1.33333 8 1.33333C11.6819 1.33333 14.6667 4.3181 14.6667 8C14.6667 11.6819 11.6819 14.6667 8 14.6667C4.3181 14.6667 1.33333 11.6819 1.33333 8Z" fill="#202327"/>
</g>
<defs>
<clipPath id="clip0_3_3793">
<rect width="16" height="16" fill="white"/>
</clipPath>
</defs>
</svg>
