<svg width="16" height="16" viewBox="0 0 16 16" fill="none" xmlns="http://www.w3.org/2000/svg">
<path d="M13.1381 3.80473C13.3984 3.54438 13.3984 3.12227 13.1381 2.86192C12.8777 2.60157 12.4556 2.60157 12.1953 2.86192L8 7.05718L3.80474 2.86192C3.54439 2.60157 3.12228 2.60157 2.86193 2.86192C2.60158 3.12227 2.60158 3.54438 2.86193 3.80473L7.0572 7.99999L2.86193 12.1953C2.60158 12.4556 2.60158 12.8777 2.86193 13.1381C3.12228 13.3984 3.54439 13.3984 3.80474 13.1381L8 8.9428L12.1953 13.1381C12.4556 13.3984 12.8777 13.3984 13.1381 13.1381C13.3984 12.8777 13.3984 12.4556 13.1381 12.1953L8.94281 7.99999L13.1381 3.80473Z" fill="#202327"/>
</svg>
