<svg xmlns="http://www.w3.org/2000/svg" viewBox="0 0 16 16" class="sageicon"><path fill-rule="evenodd" d="M2.118 13.322a.645.645 0 0 1-.584-.182.66.66 0 0 1-.18-.6l.666-3.333a.676.676 0 0 1 .18-.34l8-8c.26-.26.68-.26.94 0l2.667 2.666c.26.26.26.68 0 .94l-8 8a.677.677 0 0 1-.34.18l-3.334.667-.015.002ZM12.393 4l-1.726-1.727-1.06 1.06 1.726 1.727L12.393 4Zm-3.726.273L3.28 9.66l-.427 2.16 2.154-.433L10.393 6 8.667 4.273ZM1.333 14.667h13.334c.366 0 .666.3.666.666 0 .367-.3.667-.666.667H1.333a.669.669 0 0 1-.666-.667c0-.366.3-.666.666-.666Z"/></svg>