<svg xmlns="http://www.w3.org/2000/svg" viewBox="0 0 16 16" class="pdsicon"><path fill-rule="evenodd" d="M8.7 2c-1.48 0-2.834.541-3.878 1.439a.667.667 0 0 1-.87-1.01A7.255 7.255 0 0 1 8.7.666C12.735.667 16 3.953 16 8c0 4.047-3.265 7.333-7.3 7.333-3.787 0-6.895-2.893-7.264-6.593l-.229.317a.667.667 0 0 1-1.081-.78l1.57-2.178a.667.667 0 0 1 1.091.014l1.488 2.178a.667.667 0 1 1-1.101.752l-.428-.626C2.96 11.54 5.546 14 8.7 14c3.293 0 5.968-2.683 5.968-6s-2.675-6-5.968-6Z"/><path fill-rule="evenodd" d="M6 8.09c0-.736.597-1.333 1.333-1.333h3.334c.736 0 1.333.597 1.333 1.333V10c0 .736-.597 1.333-1.333 1.333H7.333A1.333 1.333 0 0 1 6 10V8.09Zm4.667 0H7.333V10h3.334V8.09Z"/><path fill-rule="evenodd" d="M9.039 5.333c-.165.001-.31.06-.405.146a.353.353 0 0 0-.13.26v2.27H7.17V5.735c.002-.486.22-.934.577-1.252A1.95 1.95 0 0 1 9.037 4l.002.667L9.041 4a1.95 1.95 0 0 1 1.29.483c.357.318.575.766.576 1.252V8.009H9.574v-2.27a.353.353 0 0 0-.13-.26.618.618 0 0 0-.405-.146Z"/></svg>