<svg xmlns="http://www.w3.org/2000/svg" viewBox="0 0 16 16" class="pdsicon"><path d="M2.44 3.216A7.264 7.264 0 0 1 8 .666c4.035 0 7.333 3.3 7.333 7.334 0 4.035-3.298 7.333-7.333 7.333S.667 12.035.667 8A.667.667 0 0 1 2 8c0 3.299 2.701 6 6 6 3.298 0 6-2.701 6-6 0-3.298-2.702-6-6-6a5.93 5.93 0 0 0-4.553 2.09l1.795-.305A.667.667 0 1 1 5.465 5.1l-3.278.556a.664.664 0 0 1-.78-.557L.852 1.825a.667.667 0 0 1 1.315-.223l.273 1.614Z"/><path d="M8 4c.368 0 .667.298.667.667v3.057l2.471 2.471a.667.667 0 1 1-.943.943L7.53 8.471A.667.667 0 0 1 7.333 8V4.667C7.333 4.298 7.632 4 8 4Z"/></svg>