<svg xmlns="http://www.w3.org/2000/svg" viewBox="0 0 16 16" class="sageicon"><path fill-rule="evenodd" d="M8 1.333a6.667 6.667 0 1 0 0 13.334A6.667 6.667 0 0 0 8 1.333ZM0 8a8 8 0 1 1 16 0A8 8 0 0 1 0 8Zm8-5.333c.368 0 .667.298.667.666v.358c.748.086 1.457.292 1.904.538a.667.667 0 1 1-.642 1.168c-.255-.14-.73-.285-1.262-.362v2.313c.378.133.775.293 1.107.506.54.348.98.887.98 1.713 0 .699-.233 1.278-.677 1.698-.394.372-.9.57-1.41.663v.739a.667.667 0 0 1-1.334 0v-.685a8.678 8.678 0 0 1-2.226-.49.667.667 0 0 1 .453-1.255c.565.204 1.19.352 1.773.406V8.304c-.433-.153-.9-.347-1.286-.63-.549-.403-.948-.995-.948-1.853 0-.73.32-1.288.831-1.649.413-.29.916-.43 1.403-.489v-.35c0-.368.299-.666.667-.666ZM7.333 5.03c-.276.048-.49.13-.635.232-.16.113-.266.267-.266.56 0 .367.141.584.403.776.14.103.306.192.498.276V5.03Zm1.334 3.746v1.783c.22-.066.382-.157.494-.263.143-.135.26-.346.26-.729 0-.254-.099-.417-.37-.592a2.626 2.626 0 0 0-.384-.2Z"/></svg>