<svg width="16" height="16" viewBox="0 0 16 16" fill="none" xmlns="http://www.w3.org/2000/svg">
<g clip-path="url(#clip0_3_1650)">
<path fill-rule="evenodd" clip-rule="evenodd" d="M0.666667 0C0.298477 0 0 0.298477 0 0.666667V6.66667C0 6.84348 0.0702379 7.01305 0.195262 7.13807L8.19526 15.1381C8.45561 15.3984 8.87772 15.3984 9.13807 15.1381L15.1381 9.13807C15.3984 8.87772 15.3984 8.45561 15.1381 8.19526L7.13807 0.195262C7.01305 0.0702379 6.84348 0 6.66667 0H0.666667ZM4.66667 3.33333C3.93029 3.33333 3.33333 3.93029 3.33333 4.66667C3.33333 5.40305 3.93029 6 4.66667 6C5.40305 6 6 5.40305 6 4.66667C6 3.93029 5.40305 3.33333 4.66667 3.33333Z" fill="#202327"/>
</g>
<defs>
<clipPath id="clip0_3_1650">
<rect width="16" height="16" fill="white"/>
</clipPath>
</defs>
</svg>
