<svg xmlns="http://www.w3.org/2000/svg" viewBox="0 0 16 16" class="sageicon"><path fill-rule="evenodd" d="M12 10.67a2.652 2.652 0 0 0-2 .92l-.76-1.85a2.64 2.64 0 0 0 2.52-1.65l1.43-3.49a3.36 3.36 0 0 0 0-2.55 3.33 3.33 0 0 0-1.82-1.8L10.75 0 8 6.71 5.25 0l-.62.25A3.45 3.45 0 0 0 3.54 1a3.41 3.41 0 0 0-.72 1.08 3.29 3.29 0 0 0-.26 1.28c.006.425.091.846.25 1.24l1.43 3.49a2.64 2.64 0 0 0 2.52 1.65L6 11.59a2.66 2.66 0 1 0 .65 1.92L8 10.22l1.35 3.29A2.66 2.66 0 1 0 12 10.67Zm-.56-8.83c.218.202.392.447.51.72a2 2 0 0 1 0 1.53l-1.44 3.5a1.33 1.33 0 0 1-.57.65 1.4 1.4 0 0 1-.85.16l-.33-.05 2.68-6.51Zm-5.39 6.4a1.33 1.33 0 0 1-.57-.65L4 4.1a2.07 2.07 0 0 1-.15-.77 2.3 2.3 0 0 1 .16-.77 2 2 0 0 1 .43-.64.6.6 0 0 0 .08-.08l2.71 6.51-.33.05a1.4 1.4 0 0 1-.85-.16ZM4 14.67a1.34 1.34 0 1 1 1.33-1.34A1.33 1.33 0 0 1 4 14.67Zm8 0a1.34 1.34 0 1 1 1.33-1.34A1.33 1.33 0 0 1 12 14.67Z"/></svg>