<svg xmlns="http://www.w3.org/2000/svg" viewBox="0 0 16 16" class="pdsicon"><path fill-rule="evenodd" d="M.4.867C.333.867.267.933.2 1a.605.605 0 0 0-.2.467v4c0 .4.267.666.667.666s.666-.266.666-.666v-2.4L4.867 6.6a.644.644 0 0 0 .933 0 .644.644 0 0 0 0-.933L2.267 2.133h2.4c.4 0 .666-.266.666-.666S5.067.8 4.667.8h-4C.6.8.467.8.4.867ZM4 14.133c-.4 0-.667.267-.667.667s.267.667.667.667h8c.4 0 .667-.267.667-.667s-.267-.667-.667-.667H4ZM6.667 1.467c0-.4.266-.667.666-.667h8c.4 0 .667.267.667.667v10.666c0 .4-.267.667-.667.667H.667c-.4 0-.667-.267-.667-.667v-4c0-.4.267-.666.667-.666s.666.266.666.666v3.334h13.334V2.133H7.333c-.4 0-.666-.266-.666-.666Z"/></svg>