<svg xmlns="http://www.w3.org/2000/svg" viewBox="0 0 16 16" class="pdsicon"><path fill-rule="evenodd" d="M4.667 2h-2.39l3.528 3.529a.667.667 0 1 1-.943.942L1.333 2.943v2.39a.667.667 0 1 1-1.333 0v-4a.665.665 0 0 1 .194-.47L.197.861a.665.665 0 0 1 .47-.194h4a.667.667 0 0 1 0 1.333ZM12 14H4.667a.667.667 0 0 0 0 1.333H12A.667.667 0 1 0 12 14Zm4-10a.667.667 0 0 0-1.333 0v7.333H7.333a.667.667 0 0 0 0 1.334h8A.667.667 0 0 0 16 12V4ZM.667 7.333c.368 0 .666.299.666.667v3.333h2.39L13.058 2H7.333a.667.667 0 0 1 0-1.333h7.334a.667.667 0 0 1 .471 1.138L1.805 15.138a.667.667 0 0 1-.943-.943l1.529-1.528H.667A.667.667 0 0 1 0 12V8c0-.368.298-.667.667-.667Z"/></svg>