<svg width="16" height="16" viewBox="0 0 16 16" fill="none" xmlns="http://www.w3.org/2000/svg">
<path d="M13.775 12.725L11.45 10.4C12.125 9.49998 12.5 8.44998 12.5 7.24998C12.5 4.32498 10.175 1.99998 7.25 1.99998C4.325 1.99998 2 4.32498 2 7.24998C2 10.175 4.325 12.5 7.25 12.5C8.45 12.5 9.5 12.125 10.4 11.45L12.725 13.775C12.875 13.925 13.1 14 13.25 14C13.475 14 13.625 13.925 13.775 13.775C14.075 13.475 14.075 13.025 13.775 12.725ZM7.25 11C5.15 11 3.5 9.34998 3.5 7.24998C3.5 5.14998 5.15 3.49998 7.25 3.49998C9.35 3.49998 11 5.14998 11 7.24998C11 9.34998 9.35 11 7.25 11Z" fill="#202327"/>
</svg>
