<svg xmlns="http://www.w3.org/2000/svg" viewBox="0 0 16 16" class="pdsicon"><path d="M14.66 1.96a.791.791 0 0 0-.033-.173c-.006-.02-.013-.04-.026-.067a.558.558 0 0 0-.134-.193.657.657 0 0 0-.433-.187c-.013-.007-.033-.007-.046-.007a.577.577 0 0 0-.214.04L1.108 6.04a.665.665 0 0 0-.073 1.22l5.133 2.567 2.566 5.133c.12.227.347.373.6.373h.04a.657.657 0 0 0 .587-.433l4.666-12.667c.027-.066.034-.14.04-.213 0-.027-.006-.047-.006-.06Zm-3.28 1.713L6.535 8.52 3.008 6.753l8.373-3.08Zm-2.14 9.314L7.48 9.46l4.848-4.847-3.087 8.374Z"/></svg>