<svg xmlns="http://www.w3.org/2000/svg" viewBox="0 0 16 16" class="sageicon"><path fill-rule="evenodd" d="M4.644.662c0-.366.296-.662.662-.662h5.296a.662.662 0 0 1 0 1.324H5.306a.662.662 0 0 1-.662-.662ZM3.32 2.648a.662.662 0 0 0 0 1.324h9.268a.662.662 0 1 0 0-1.324H3.32Zm-.331 2.318a1.65 1.65 0 0 0-1.154.468c-.31.3-.502.721-.502 1.187v7.724c0 .914.741 1.655 1.656 1.655h9.93c.915 0 1.656-.741 1.656-1.655V6.62c0-.914-.741-1.655-1.655-1.655H2.989Zm-.552 9.379v-7.58l5.146 4.678c.21.191.532.191.742 0l5.146-4.679v7.58a.552.552 0 0 1-.552.553H2.99a.552.552 0 0 1-.552-.552Zm.875-8.276h9.284l-4.642 4.22-4.642-4.22Z"/></svg>