<svg xmlns="http://www.w3.org/2000/svg" viewBox="0 0 16 16" class="sageicon"><path d="M14.667 6.667h-.821a5.96 5.96 0 0 0-.77-1.857l.58-.581a1.334 1.334 0 0 0-1.885-1.886l-.581.582a5.962 5.962 0 0 0-1.857-.771v-.82a1.333 1.333 0 1 0-2.666 0v.82c-.658.15-1.286.41-1.857.77l-.581-.58a1.333 1.333 0 0 0-1.886 1.885l.582.581c-.36.57-.621 1.199-.771 1.857h-.82a1.333 1.333 0 1 0 0 2.666h.82c.15.658.41 1.286.77 1.857l-.58.581a1.333 1.333 0 0 0 1.885 1.886l.581-.582c.57.36 1.199.621 1.857.771v.82a1.333 1.333 0 0 0 2.666 0v-.82a5.96 5.96 0 0 0 1.857-.77l.581.58a1.334 1.334 0 0 0 1.886-1.885l-.582-.581c.36-.57.621-1.199.771-1.857h.82a1.333 1.333 0 0 0 0-2.666Zm-6.667 4a2.667 2.667 0 1 1 0-5.334 2.667 2.667 0 0 1 0 5.334Z"/></svg>