<svg xmlns="http://www.w3.org/2000/svg" viewBox="0 0 16 16" class="sageicon"><path fill-rule="evenodd" d="M8 0a2 2 0 0 0-2 2v.348c-.2.07-.393.151-.582.241l-.247-.246a2 2 0 1 0-2.828 2.828l.246.247c-.09.189-.17.383-.24.582H2a2 2 0 0 0 0 4h.348c.07.2.151.393.241.582l-.246.247a2 2 0 1 0 2.828 2.828l.247-.246c.188.09.383.17.582.24V14a2 2 0 0 0 4 0v-.348c.2-.07.393-.151.582-.241l.247.246a2 2 0 1 0 2.828-2.828l-.246-.247c.09-.189.17-.383.24-.582H14a2 2 0 0 0 0-4h-.348c-.07-.2-.151-.393-.241-.582l.246-.247a2 2 0 1 0-2.828-2.828l-.247.246A5.976 5.976 0 0 0 10 2.35V2a2 2 0 0 0-2-2Zm-.667 2a.666.666 0 1 1 1.334 0v.841c0 .304.205.57.5.646.427.11.829.278 1.2.497a.667.667 0 0 0 .81-.103l.594-.595a.666.666 0 1 1 .943.943l-.595.594a.667.667 0 0 0-.103.81c.219.371.387.773.497 1.2.076.295.342.5.646.5H14a.666.666 0 1 1 0 1.334h-.841a.667.667 0 0 0-.646.5c-.11.427-.278.83-.496 1.2a.667.667 0 0 0 .102.81l.595.594a.666.666 0 1 1-.943.943l-.594-.595a.667.667 0 0 0-.81-.103c-.371.219-.773.387-1.2.497a.667.667 0 0 0-.5.646V14a.666.666 0 1 1-1.334 0v-.841a.667.667 0 0 0-.5-.646 4.635 4.635 0 0 1-1.2-.496.667.667 0 0 0-.81.102l-.594.595a.666.666 0 1 1-.943-.943l.595-.594a.667.667 0 0 0 .103-.81 4.644 4.644 0 0 1-.497-1.2.667.667 0 0 0-.646-.5H2a.666.666 0 1 1 0-1.334h.841c.304 0 .57-.205.646-.5.11-.427.278-.829.497-1.2a.667.667 0 0 0-.103-.81l-.595-.594a.666.666 0 1 1 .943-.943l.594.595a.667.667 0 0 0 .81.103c.371-.219.773-.387 1.2-.497a.667.667 0 0 0 .5-.646V2Zm-.666 6a1.333 1.333 0 1 1 2.666 0 1.333 1.333 0 0 1-2.666 0ZM8 5.333a2.667 2.667 0 1 0 0 5.334 2.667 2.667 0 0 0 0-5.334Z"/></svg>