<svg width="16" height="16" viewBox="0 0 16 16" fill="none" xmlns="http://www.w3.org/2000/svg">
<path fill-rule="evenodd" clip-rule="evenodd" d="M8.59998 1.40001C8.79998 1.30001 9.09998 1.30001 9.29998 1.50001L15.6 6.80001C15.8 6.90001 15.8 7.10001 15.8 7.30001C15.8 7.50001 15.7 7.70001 15.6 7.80001L9.29998 13.1C9.09998 13.3 8.79998 13.3 8.59998 13.2C8.39998 13.1 8.19998 12.9 8.19998 12.6V10C6.29997 10 5.19998 10.3 4.29998 10.8C3.29998 11.3 2.59998 12.2 1.39998 13.8C1.19998 14 0.899976 14.1 0.599976 14C0.299976 13.9 0.0999756 13.7 0.0999756 13.4C0.0999756 10 1.19998 7.80001 2.99998 6.40001C4.49998 5.20001 6.39998 4.80001 8.09998 4.70001V2.00001C8.19998 1.70001 8.29998 1.50001 8.59998 1.40001ZM9.49998 3.40001V5.30001C9.49998 5.70001 9.19998 6.00001 8.79998 6.00001C6.99998 6.00001 5.19998 6.40001 3.79998 7.40001C2.79998 8.20001 1.99998 9.40001 1.59998 11.2C2.19998 10.5 2.79998 10 3.59998 9.50001C4.89998 8.80001 6.39998 8.60001 8.79998 8.60001C9.19998 8.60001 9.49998 8.90001 9.49998 9.30001V11.2L14.1 7.30001L9.49998 3.40001Z" fill="#202327"/>
</svg>
