<svg xmlns="http://www.w3.org/2000/svg" viewBox="0 0 16 16" class="pdsicon"><path fill-rule="evenodd" d="M15.744.154c.161.138.256.35.256.573v6.546c0 .401-.299.727-.667.727-.368 0-.666-.326-.666-.727V1.659l-4.505 1.228a.614.614 0 0 1-.373-.015L5.973 1.484 1.333 2.75V14.34l4.505-1.228a.614.614 0 0 1 .373.015l2 .727c.35.127.538.54.421.92-.116.381-.494.587-.843.46l-1.816-.66-5.145 1.403a.624.624 0 0 1-.572-.132.753.753 0 0 1-.256-.573V2.182c0-.334.208-.625.505-.706L5.838.022a.614.614 0 0 1 .373.015l3.816 1.388L15.172.022c.199-.055.41-.006.572.132Zm-.606 10.24c.26.285.26.745 0 1.03L13.61 13.09l1.528 1.668c.26.284.26.744 0 1.028a.628.628 0 0 1-.943 0l-1.528-1.668-1.529 1.668a.628.628 0 0 1-.943 0 .775.775 0 0 1 0-1.029l1.529-1.667-1.529-1.668a.775.775 0 0 1 0-1.028.628.628 0 0 1 .943 0l1.529 1.667 1.528-1.667a.628.628 0 0 1 .943 0Z"/></svg>