<svg xmlns="http://www.w3.org/2000/svg" viewBox="0 0 16 16" class="sageicon"><path fill-rule="evenodd" d="M11.3 7.3c.4 0 .7.3.7.7a2.732 2.732 0 0 0 2.7 2.7c.4 0 .7.3.7.7 0 .4-.3.7-.7.7-1.1 0-2.1-.4-2.8-1.2-.2-.2-.4-.4-.5-.6-.1.2-.3.4-.5.6-.8.7-1.8 1.1-2.9 1.1-.4 0-.7-.3-.7-.7 0-.4.3-.7.7-.7a2.732 2.732 0 0 0 2.7-2.7c0-.3.3-.6.6-.6Z"/><path fill-rule="evenodd" d="M7.3 11.3c0-.4.3-.7.7-.7 1.1 0 2.1.4 2.8 1.2.2.2.4.4.5.6.1-.2.3-.4.5-.6.8-.8 1.8-1.2 2.8-1.2.4 0 .7.3.7.7 0 .4-.3.7-.7.7-.7 0-1.4.3-1.9.8S12 14 12 14.7c0 .4-.3.7-.7.7-.4 0-.7-.3-.7-.7 0-.7-.3-1.4-.8-1.9-.4-.5-1.1-.8-1.8-.8-.4 0-.7-.3-.7-.7ZM4.7.7c.3 0 .6.3.6.6A2.732 2.732 0 0 0 8 4c.4 0 .7.3.7.7 0 .3-.3.6-.7.6-1.1 0-2.1-.4-2.8-1.2-.2-.1-.4-.3-.5-.6-.2.3-.3.5-.5.7-.4.3-.9.6-1.3.8-.5.2-1 .3-1.5.3-.4 0-.7-.3-.7-.6 0-.4.3-.7.6-.7.4 0 .7-.1 1-.2.4-.1.7-.3.9-.6.3-.2.5-.5.6-.8.1-.4.2-.7.2-1.1 0-.3.3-.6.7-.6Z"/><path fill-rule="evenodd" d="M.7 4.7c0-.4.3-.7.6-.7.5 0 1 .1 1.5.3.5.2.9.5 1.3.9.2.2.4.4.5.6l.6-.6C5.9 4.4 6.9 4 8 4c.4 0 .7.3.7.7 0 .3-.3.6-.7.6A2.732 2.732 0 0 0 5.3 8c0 .4-.3.7-.7.7-.3 0-.6-.3-.6-.7 0-.4-.1-.7-.2-1-.1-.3-.3-.6-.6-.9-.2-.2-.5-.4-.8-.6-.4-.1-.7-.2-1.1-.2-.3 0-.6-.3-.6-.6ZM1.3 12.7c0-.4.3-.7.7-.7h2.7c.4 0 .7.3.7.7 0 .4-.3.7-.7.7H2c-.4-.1-.7-.4-.7-.7Z"/><path fill-rule="evenodd" d="M3.3 10.7c.4 0 .7.3.7.6V14c0 .4-.3.7-.7.7-.4 0-.6-.3-.6-.7v-2.7c0-.3.3-.6.6-.6ZM10.7 3.3c0-.4.3-.7.7-.7H14c.4 0 .7.3.7.7 0 .4-.3.7-.7.7h-2.7c-.3 0-.6-.3-.6-.7Z"/><path fill-rule="evenodd" d="M12.7 1.3c.4 0 .7.3.7.7v2.7c0 .4-.3.7-.7.7-.4-.1-.7-.4-.7-.7V2c0-.4.3-.7.7-.7Z"/></svg>