<svg xmlns="http://www.w3.org/2000/svg" viewBox="0 0 16 16" class="sageicon"><path d="M12.7 5.3c-.1 0-.3-.1-.4-.1-.1-.1-.1-.2-.1-.4 0-.3-.1-.5-.3-.7-.2-.2-.4-.3-.7-.3-.1 0-.3-.1-.4-.1-.1-.1-.1-.2-.1-.4 0-.1.1-.3.1-.4.1-.1.2-.1.4-.1.3 0 .5-.1.7-.3.2-.2.3-.4.3-.7 0-.1.1-.3.1-.4.1-.1.2-.1.4-.1.1 0 .3.1.4.1.1.1.1.2.1.4 0 .3.1.5.3.7.2.2.4.3.7.3.1 0 .3.1.4.1.1.1.1.2.1.4 0 .1-.1.3-.1.4-.1.1-.2.1-.4.1-.3 0-.5.1-.7.3-.2.2-.3.4-.3.7 0 .1-.1.3-.1.4-.2.1-.3.1-.4.1ZM3.3 14.7c-.1 0-.3-.1-.4-.1-.1-.1-.1-.2-.1-.4 0-.3-.1-.5-.3-.7-.2-.2-.4-.3-.7-.3-.1 0-.3-.1-.4-.1-.1-.1-.1-.2-.1-.4 0-.1.1-.3.1-.4.1-.1.2-.1.4-.1.3 0 .5-.1.7-.3.2-.2.3-.4.3-.7 0-.1.1-.3.1-.4.1-.1.2-.1.4-.1.1 0 .3.1.4.1.1.1.1.2.1.4 0 .3.1.5.3.7.2.2.4.3.7.3.1 0 .3.1.4.1.1.1.1.2.1.4 0 .1-.1.3-.1.4-.1.1-.2.1-.4.1-.3 0-.5.1-.7.3-.2.2-.3.4-.3.7 0 .1-.1.3-.1.4-.1 0-.2.1-.4.1ZM11.3 15.3c-.2 0-.3-.1-.5-.2-.1-.1-.2-.3-.2-.5 0-.7-.3-1.4-.8-1.9-.4-.4-1.1-.7-1.8-.7-.2 0-.3-.1-.5-.2-.1-.1-.2-.3-.2-.5s.1-.3.2-.5c.1-.1.3-.2.5-.2a2.732 2.732 0 0 0 2.7-2.7c0-.2.1-.3.2-.5.1-.1.3-.2.5-.2s.3.1.5.2c0 .3.1.4.1.6a2.732 2.732 0 0 0 2.7 2.7c.2 0 .3.1.5.2s.2.3.2.5-.1.3-.2.5-.4.1-.5.1a2.732 2.732 0 0 0-2.7 2.7c0 .2-.1.3-.2.5-.1.1-.3.1-.5.1ZM4.7 8.7c-.2 0-.3-.1-.5-.2-.1-.2-.2-.3-.2-.5a2.732 2.732 0 0 0-2.7-2.7c-.1 0-.3 0-.4-.2-.2-.1-.2-.3-.2-.4 0-.2.1-.3.2-.5.1-.1.3-.2.4-.2A2.732 2.732 0 0 0 4 1.3c0-.1.1-.3.2-.4.1-.1.3-.2.5-.2s.3.1.5.2c.1.1.1.3.1.4A2.732 2.732 0 0 0 8 4c.2 0 .3.1.5.2.1.1.2.3.2.5s-.1.3-.2.5c-.2.1-.3.1-.5.1A2.732 2.732 0 0 0 5.3 8c0 .2-.1.3-.2.5-.1.1-.3.2-.4.2Z"/></svg>