<svg xmlns="http://www.w3.org/2000/svg" viewBox="0 0 16 17" class="pdsicon"><path fill-rule="evenodd" d="M11.333.13v13.073l-6.19-3.87H3.127l2.315 5.12a.405.405 0 0 0 .741-.327L4.706 10.88l1.213-.552 1.482 3.252A1.738 1.738 0 0 1 4.227 15l-.001-.002-2.67-5.906A2.667 2.667 0 0 1 2.665 4h2.476L11.333.13ZM10 2.536 5.525 5.333H2.667a1.333 1.333 0 1 0 0 2.667h2.858L10 10.797v-8.26ZM16 6h-2.667v1.333H16V6Zm-.739-2.756-2.309 1.333-.667-1.154 2.31-1.334.666 1.155Zm0 6.845-2.309-1.333-.667 1.155 2.31 1.333.666-1.155Z"/></svg>