<svg xmlns="http://www.w3.org/2000/svg" viewBox="0 0 16 16" class="pdsicon"><path fill-rule="evenodd" d="M8 1.333c.29 0 .547.188.635.464L9.976 6H14a.667.667 0 0 1 .405 1.196L11.19 9.659l1.343 4.135a.667.667 0 0 1-1.025.745L8 11.991 4.492 14.54a.667.667 0 0 1-1.025-.745L4.81 9.659 1.595 7.196A.667.667 0 0 1 2 6h4.024l1.34-4.203A.667.667 0 0 1 8 1.333Zm0 2.86-.854 2.676a.667.667 0 0 1-.635.464H3.967l2.028 1.554a.667.667 0 0 1 .229.736l-.855 2.632 2.24-1.627c.233-.17.55-.17.783 0l2.24 1.627-.856-2.632a.667.667 0 0 1 .229-.736l2.028-1.554H9.49a.667.667 0 0 1-.635-.464L8 4.193Z"/></svg>