<svg width="16" height="16" viewBox="0 0 16 16" fill="none" xmlns="http://www.w3.org/2000/svg">
<path fill-rule="evenodd" clip-rule="evenodd" d="M6.86168 4.76483C6.86168 4.07912 7.42432 3.81539 8.35619 3.81539C9.69245 3.81539 11.3804 4.21978 12.7166 4.94066V0.808791C11.2573 0.228571 9.81553 0 8.35619 0C4.78696 0 2.41333 1.86374 2.41333 4.97582C2.41333 9.82857 9.09465 9.05494 9.09465 11.1473C9.09465 11.956 8.39135 12.2198 7.40674 12.2198C5.9474 12.2198 4.08366 11.622 2.60674 10.8132V14.9978C4.2419 15.7011 5.89465 16 7.40674 16C11.0639 16 13.5782 14.189 13.5782 11.0418C13.5606 5.8022 6.86168 6.73407 6.86168 4.76483Z" fill="#635BFF"/>
</svg>
