<svg xmlns="http://www.w3.org/2000/svg" viewBox="0 0 16 16" class="pdsicon"><path fill-rule="evenodd" d="M.762 0A.762.762 0 0 0 0 .762v1.524a.762.762 0 0 0 1.524 0v-.762h4.571v11.428H3.81a.762.762 0 1 0 0 1.524H9.905a.762.762 0 1 0 0-1.524H7.619V1.524h4.572v.762a.762.762 0 1 0 1.523 0V.762A.762.762 0 0 0 12.952 0H.762Zm11.665 15.28V16H16v-1.454h-.82l-.108.61c-.015.078-.046.093-.123.093H13.81l.874-.835.006-.006c.562-.539 1.061-1.017 1.061-1.742 0-.727-.425-1.237-1.624-1.237-.812 0-1.748.2-1.755 1.431l1.052.093c0-.55.177-.689.603-.689.41 0 .55.21.55.496 0 .427-.314.73-1.045 1.44l-.07.067-1.036 1.014Z"/></svg>