<svg xmlns="http://www.w3.org/2000/svg" viewBox="0 0 16 16" class="sageicon"><path d="M10.4 9.249a1.516 1.516 0 0 1-.55 1.222c-.445.337-.982.53-1.54.552v.98h-.655v-.961c-.702 0-1.398-.14-2.046-.411V9.369c.32.153.656.274 1 .363.341.097.691.16 1.045.187V8.436l-.32-.124a3.571 3.571 0 0 1-1.342-.81A1.555 1.555 0 0 1 5.6 6.417a1.414 1.414 0 0 1 .543-1.14c.44-.326.966-.515 1.513-.541v-.734h.655v.713c.682.02 1.353.17 1.98.44l-.45 1.119a5.178 5.178 0 0 0-1.533-.373v1.41c.462.163.907.371 1.327.622.235.146.432.344.579.579.127.224.191.478.186.736ZM7.04 6.418a.452.452 0 0 0 .146.347c.14.118.3.212.471.28V5.92c-.411.06-.617.226-.617.497ZM8.96 9.321a.43.43 0 0 0-.162-.34 2.116 2.116 0 0 0-.488-.287v1.19c.433-.073.65-.26.65-.563Z"/><path fill-rule="evenodd" d="M2.06.096c.366.046.625.379.579.744l-.361 2.87 2.83-.788a.667.667 0 0 1 .357 1.285L1.67 5.264a.667.667 0 0 1-.84-.725L1.316.674a.667.667 0 0 1 .745-.578Z"/><path fill-rule="evenodd" d="M10.342 1.758a6.667 6.667 0 0 0-8.259 3.17A.667.667 0 1 1 .9 4.315a8 8 0 1 1-.9 3.69.667.667 0 1 1 1.333 0 6.667 6.667 0 1 0 9.01-6.246Z"/></svg>