<svg width="16" height="16" viewBox="0 0 16 16" fill="none" xmlns="http://www.w3.org/2000/svg">
<g clip-path="url(#clip0_3_3344)">
<path fill-rule="evenodd" clip-rule="evenodd" d="M8 -1C3.05 -1 -1 3.05 -1 8C-1 12.95 3.05 17 8 17C12.95 17 17 12.95 17 8C17 3.05 12.95 -1 8 -1ZM7.625 8.75C6.65 8.75 5.75 8.975 5.15 9.2C4.85 9.275 4.625 9.575 4.625 9.875V11H7.25C7.475 11 7.625 11.15 7.625 11.375C7.625 11.6 7.475 11.75 7.25 11.75H4.25C4.025 11.75 3.875 11.6 3.875 11.375V9.875C3.875 9.2 4.25 8.675 4.925 8.45C5.15843 8.35663 5.42093 8.29232 5.71249 8.22088L5.7125 8.22088L5.71255 8.22087C5.88935 8.17755 6.07683 8.13162 6.275 8.075L6.05 7.85C5.675 7.325 5.45 6.725 5.45 6.125V5.75C5.45 4.475 6.425 3.5 7.7 3.5C8.975 3.5 9.95 4.475 9.95 5.75V6.125C9.95 6.725 9.725 7.4 9.35 7.85C8.825 8.375 8.3 8.75 7.625 8.75ZM12.5 12.125C12.5 12.35 12.35 12.5 12.125 12.5H9.125C8.9 12.5 8.75 12.35 8.75 12.125V10.25C8.75 10.025 8.9 9.875 9.125 9.875H9.5V9.125C9.5 8.525 10.025 8 10.625 8C11.225 8 11.75 8.525 11.75 9.125V9.875H12.125C12.35 9.875 12.5 10.025 12.5 10.25V12.125ZM10.625 8.75C10.85 8.75 11 8.9 11 9.125V9.875H10.25V9.125C10.25 8.9 10.4 8.75 10.625 8.75ZM9.5 11.75V10.625H11.75V11.75H9.5ZM7.625 4.25C8.45 4.25 9.125 4.925 9.125 5.75V6.125C9.125 6.575 8.975 7.025 8.675 7.4C8.375 7.775 8 8 7.625 8C7.25 8 6.875 7.775 6.575 7.4C6.275 7.025 6.125 6.575 6.125 6.125V5.75C6.125 4.925 6.8 4.25 7.625 4.25Z" fill="#202327"/>
</g>
<defs>
<clipPath id="clip0_3_3344">
<rect width="16" height="16" rx="8" fill="white"/>
</clipPath>
</defs>
</svg>
