<svg xmlns="http://www.w3.org/2000/svg" viewBox="0 0 18 18" class="sageicon"><path fill-rule="evenodd" d="M9 0C4.05 0 0 4.05 0 9s4.05 9 9 9 9-4.05 9-9-4.05-9-9-9Zm-.375 9.75c-.975 0-1.875.225-2.475.45a.72.72 0 0 0-.525.675V12H8.25c.225 0 .375.15.375.375s-.15.375-.375.375h-3c-.225 0-.375-.15-.375-.375v-1.5c0-.675.375-1.2 1.05-1.425.233-.093.496-.158.787-.23.177-.042.365-.088.563-.145L7.05 8.85c-.375-.525-.6-1.125-.6-1.725V6.75c0-1.275.975-2.25 2.25-2.25s2.25.975 2.25 2.25v.375c0 .6-.225 1.275-.6 1.725-.525.525-1.05.9-1.725.9Zm4.875 3.375c0 .225-.15.375-.375.375h-3c-.225 0-.375-.15-.375-.375V11.25c0-.225.15-.375.375-.375h.375v-.75c0-.6.525-1.125 1.125-1.125s1.125.525 1.125 1.125v.75h.375c.225 0 .375.15.375.375v1.875ZM11.625 9.75c.225 0 .375.15.375.375v.75h-.75v-.75c0-.225.15-.375.375-.375Zm-1.125 3v-1.125h2.25v1.125H10.5Zm-1.875-7.5c.825 0 1.5.675 1.5 1.5v.375c0 .45-.15.9-.45 1.275-.3.375-.675.6-1.05.6s-.75-.225-1.05-.6c-.3-.375-.45-.825-.45-1.275V6.75c0-.825.675-1.5 1.5-1.5Z"/></svg>