<svg xmlns="http://www.w3.org/2000/svg" viewBox="0 0 16 16" class="pdsicon"><path fill-rule="evenodd" d="M12.873 3.37V4H16V2.727h-.717l-.095.535c-.013.068-.04.081-.108.081h-.995l.764-.731.006-.005c.491-.471.928-.89.928-1.524C15.783.447 15.411 0 14.362 0c-.71 0-1.53.176-1.535 1.253l.92.081c0-.48.155-.603.528-.603.358 0 .48.183.48.434 0 .373-.274.64-.914 1.26l-.06.059-.908.887ZM.667 2.668A.667.667 0 0 0 0 3.333v1.334a.667.667 0 1 0 1.333 0V4h4v10h-2a.667.667 0 0 0 0 1.333h5.334a.667.667 0 1 0 0-1.333h-2V4h4v.667a.667.667 0 1 0 1.333 0V3.333a.667.667 0 0 0-.667-.666H.667Z"/></svg>