<svg xmlns="http://www.w3.org/2000/svg" viewBox="0 0 16 16" class="pdsicon"><path fill-rule="evenodd" d="M14.623.473c.365.05.62.385.57.75l-.532 3.933a.667.667 0 0 1-.75.572l-4-.534a.667.667 0 0 1 .177-1.321l2.567.342A5.926 5.926 0 0 0 8 2C4.702 2 2 4.702 2 8A.667.667 0 1 1 .667 8C.667 3.965 3.965.667 8 .667c2.228 0 4.24.981 5.576 2.567l.297-2.19a.667.667 0 0 1 .75-.571ZM15.333 8A.667.667 0 1 0 14 8c0 3.299-2.701 6-6 6a5.926 5.926 0 0 1-4.655-2.215l2.567.342a.667.667 0 0 0 .176-1.321l-4-.533a.667.667 0 0 0-.749.57l-.533 3.934a.667.667 0 0 0 1.321.18l.297-2.192A7.264 7.264 0 0 0 8 15.333c4.035 0 7.333-3.298 7.333-7.333Z"/></svg>