<svg width="16" height="16" viewBox="0 0 16 16" fill="none" xmlns="http://www.w3.org/2000/svg">
<g clip-path="url(#clip0_3_3780)">
<path fill-rule="evenodd" clip-rule="evenodd" d="M14.6666 13.3333C14.6666 13.5101 14.5964 13.6797 14.4714 13.8047C14.3463 13.9298 14.1768 14 14 14L1.99995 14C1.82314 14 1.65357 13.9298 1.52855 13.8047C1.40352 13.6797 1.33329 13.5101 1.33329 13.3333L1.33329 2.66666C1.33329 2.48985 1.40352 2.32028 1.52855 2.19526C1.65357 2.07023 1.82314 2 1.99995 2L14 2C14.1768 2 14.3463 2.07023 14.4714 2.19526C14.5964 2.32028 14.6666 2.48985 14.6666 2.66666L14.6666 13.3333ZM15.4142 14.7475C15.7892 14.3725 16 13.8638 16 13.3333L16 2.66666C16 2.13623 15.7892 1.62752 15.4142 1.25245C15.0391 0.877377 14.5304 0.666662 14 0.666662L1.99995 0.666662C1.46952 0.666662 0.960813 0.877376 0.58574 1.25245C0.210668 1.62752 -4.5619e-05 2.13623 -4.56253e-05 2.66666L-4.57525e-05 13.3333C-4.57588e-05 13.8638 0.210668 14.3725 0.58574 14.7475C0.960814 15.1226 1.46952 15.3333 1.99995 15.3333L14 15.3333C14.5304 15.3333 15.0391 15.1226 15.4142 14.7475Z" fill="#202327"/>
<path d="M11.9999 7.99999C11.9999 7.6318 12.2984 7.33332 12.6666 7.33332C13.0348 7.33332 13.3333 7.6318 13.3333 7.99999C13.3333 8.36818 13.0348 8.66666 12.6666 8.66666C12.2984 8.66666 11.9999 8.36818 11.9999 7.99999Z" fill="#202327"/>
</g>
<defs>
<clipPath id="clip0_3_3780">
<rect width="16" height="16" fill="white"/>
</clipPath>
</defs>
</svg>
