<svg width="16" height="16" viewBox="0 0 16 16" fill="none" xmlns="http://www.w3.org/2000/svg">
<g clip-path="url(#clip0_3_3753)">
<path fill-rule="evenodd" clip-rule="evenodd" d="M2.66667 14.6667C2.48986 14.6667 2.32029 14.5964 2.19527 14.4714C2.07024 14.3464 2.00001 14.1768 2.00001 14V2C2.00001 1.82319 2.07024 1.65362 2.19527 1.5286C2.32029 1.40357 2.48986 1.33333 2.66667 1.33333H13.3333C13.5101 1.33333 13.6797 1.40357 13.8047 1.5286C13.9298 1.65362 14 1.82319 14 2V14C14 14.1768 13.9298 14.3464 13.8047 14.4714C13.6797 14.5964 13.5101 14.6667 13.3333 14.6667H2.66667ZM1.25246 15.4142C1.62753 15.7893 2.13624 16 2.66667 16H13.3333C13.8638 16 14.3725 15.7893 14.7476 15.4142C15.1226 15.0391 15.3333 14.5304 15.3333 14V2C15.3333 1.46957 15.1226 0.960858 14.7476 0.585786C14.3725 0.210713 13.8638 0 13.3333 0H2.66667C2.13624 0 1.62753 0.210713 1.25246 0.585786C0.877385 0.960859 0.666672 1.46957 0.666672 2V14C0.666672 14.5304 0.877385 15.0391 1.25246 15.4142Z" fill="#202327"/>
<path d="M8.00001 12C8.3682 12 8.66668 12.2985 8.66668 12.6667C8.66668 13.0349 8.3682 13.3333 8.00001 13.3333C7.63182 13.3333 7.33334 13.0349 7.33334 12.6667C7.33334 12.2985 7.63182 12 8.00001 12Z" fill="#202327"/>
</g>
<defs>
<clipPath id="clip0_3_3753">
<rect width="16" height="16" fill="white"/>
</clipPath>
</defs>
</svg>
