<svg xmlns="http://www.w3.org/2000/svg" viewBox="0 0 16 16" class="sageicon"><path d="M7.814 13.312a.694.694 0 1 0 1.305-.472l-3.36-9.184A1 1 0 0 0 4.82 3h-.18a1 1 0 0 0-.94.656L.337 12.851a.685.685 0 1 0 1.29.461l.841-2.414a.2.2 0 0 1 .19-.134h4.104a.2.2 0 0 1 .188.133l.864 2.415ZM4.508 5.085a.2.2 0 0 1 .377-.001l1.434 4.03a.2.2 0 0 1-.189.267H3.286a.2.2 0 0 1-.189-.266l1.41-4.03ZM10.23 11.812c0 1.155.88 2.188 2.249 2.188.922 0 1.532-.412 1.898-.837.082-.095.28.09.29.216.024.302.271.393.574.393h.019c.39 0 .686-.347.667-.736a9.617 9.617 0 0 1-.01-.464V8.91c0-1.428-.783-2.674-2.795-2.674-1.258 0-2.296.728-2.643 1.83-.095.303.118.598.425.676.38.097.743-.182.924-.53.241-.463.685-.76 1.322-.76 1.02 0 1.453.592 1.453 1.306 0 .259-.112.486-.517.547l-1.817.289c-1.16.182-2.04.912-2.04 2.218Zm2.43.988c-.67 0-1.09-.517-1.09-1.064 0-.653.42-1.003.979-1.094l1.822-.296a.2.2 0 0 1 .232.197v.1c0 1.595-.867 2.157-1.942 2.157Z"/></svg>