<svg xmlns="http://www.w3.org/2000/svg" viewBox="0 0 16 16" class="sageicon"><path fill-rule="evenodd" d="M2.095.99c.12-.2.337-.323.572-.323h10.666c.235 0 .451.123.572.323l2 3.334a.667.667 0 0 1 .095.341 2.661 2.661 0 0 1-4.443 1.983A2.651 2.651 0 0 1 8 6.649a2.65 2.65 0 0 1-3.557-.001A2.661 2.661 0 0 1 0 4.665c0-.12.033-.238.095-.341l2-3.334ZM3.045 2 1.342 4.835a1.328 1.328 0 0 0 2.506.431.667.667 0 0 1 1.193.002 1.318 1.318 0 0 0 2.36 0 .667.667 0 0 1 1.195 0 1.318 1.318 0 0 0 2.361 0 .667.667 0 0 1 1.193-.002 1.328 1.328 0 0 0 2.506-.431L12.956 2H3.044ZM2.667 8c.368 0 .666.298.666.667V14H6v-3.333c0-.368.298-.667.667-.667h2.666c.369 0 .667.299.667.667V14h2.667V8.667a.667.667 0 1 1 1.333 0v6a.667.667 0 0 1-.667.666H2.667A.667.667 0 0 1 2 14.667v-6C2 8.298 2.298 8 2.667 8Zm4.666 6h1.334v-2.667H7.333V14Z"/></svg>