<svg xmlns="http://www.w3.org/2000/svg" viewBox="0 0 16 16" class="sageicon"><path fill-rule="evenodd" d="M.667 0A.667.667 0 0 0 0 .667V8c0 .368.298.667.667.667H3.49l1.866 6.842c.079.29.342.491.643.491a2.667 2.667 0 0 0 2.667-2.667V10H13a2.667 2.667 0 0 0 2.636-3.072l-.718-4.667A2.667 2.667 0 0 0 12.285 0H.667Zm2.666 1.333h-2v6h2v-6Zm1.334 6.578V1.333h7.617A1.333 1.333 0 0 1 13.6 2.464l.718 4.667A1.333 1.333 0 0 1 13 8.667H8a.667.667 0 0 0-.667.666v4a1.333 1.333 0 0 1-.849 1.243L4.667 7.91Z"/></svg>