<svg width="16" height="16" viewBox="0 0 16 16" fill="none" xmlns="http://www.w3.org/2000/svg">
<path d="M6.79265 5.958V8.706C6.44656 8.61473 6.0844 8.60229 5.73287 8.6696C5.38133 8.73691 5.04938 8.88225 4.76148 9.09491C4.47359 9.30757 4.23708 9.58212 4.06941 9.89834C3.90173 10.2146 3.80716 10.5644 3.79265 10.922C3.77283 11.2299 3.81916 11.5385 3.92854 11.827C4.03792 12.1155 4.2078 12.3773 4.42677 12.5947C4.64573 12.8121 4.90871 12.98 5.19801 13.0873C5.48731 13.1946 5.79622 13.2387 6.10399 13.2167C6.41486 13.2405 6.72721 13.1966 7.01945 13.0879C7.31169 12.9792 7.57686 12.8084 7.79663 12.5873C8.0164 12.3661 8.18554 12.0999 8.29236 11.8069C8.39918 11.514 8.44113 11.2014 8.41532 10.8907V0H11.1333C11.5953 2.87667 13.034 3.544 14.96 3.852V6.60867C13.6253 6.49921 12.3377 6.0643 11.21 5.342V10.7867C11.21 13.2533 9.74999 16 6.12532 16C5.44529 15.997 4.7727 15.8583 4.14697 15.592C3.52125 15.3258 2.95497 14.9373 2.48134 14.4493C2.00771 13.9613 1.63626 13.3837 1.38875 12.7503C1.14125 12.1169 1.02268 11.4405 1.03999 10.7607C1.06152 10.0529 1.23282 9.35776 1.54259 8.72103C1.85236 8.0843 2.29356 7.52046 2.83712 7.06666C3.38068 6.61287 4.01424 6.27943 4.69605 6.08834C5.37786 5.89724 6.09243 5.85282 6.79265 5.958Z" fill="#202327"/>
</svg>
