<svg width="16" height="16" viewBox="0 0 16 16" fill="none" xmlns="http://www.w3.org/2000/svg">
<g clip-path="url(#clip0_4_323)">
<path fill-rule="evenodd" clip-rule="evenodd" d="M4.66667 1.33333H4V8C4 10.2091 5.79086 12 8 12C10.2091 12 12 10.2091 12 8V1.33333H11.3333C10.9651 1.33333 10.6667 1.03486 10.6667 0.666667C10.6667 0.298477 10.9651 0 11.3333 0H12.6667H14C14.3682 0 14.6667 0.298477 14.6667 0.666667C14.6667 1.03486 14.3682 1.33333 14 1.33333H13.3333V8C13.3333 10.9455 10.9455 13.3333 8.00001 13.3333C5.05448 13.3333 2.66667 10.9455 2.66667 8V1.33333H2C1.63181 1.33333 1.33333 1.03486 1.33333 0.666667C1.33333 0.298477 1.63181 0 2 0H3.33333H4.66667C5.03486 0 5.33333 0.298477 5.33333 0.666667C5.33333 1.03486 5.03486 1.33333 4.66667 1.33333ZM0.666667 14.6667C0.298477 14.6667 0 14.9651 0 15.3333C0 15.7015 0.298477 16 0.666667 16H15.3333C15.7015 16 16 15.7015 16 15.3333C16 14.9651 15.7015 14.6667 15.3333 14.6667H0.666667Z" fill="#202327"/>
</g>
<defs>
<clipPath id="clip0_4_323">
<rect width="16" height="16" fill="white"/>
</clipPath>
</defs>
</svg>
