<svg width="16" height="16" viewBox="0 0 16 16" fill="none" xmlns="http://www.w3.org/2000/svg">
<path fill-rule="evenodd" clip-rule="evenodd" d="M2.88826 4.87761C2.95319 4.5152 2.71203 4.16876 2.34961 4.10382C1.98719 4.03889 1.64076 4.28005 1.57582 4.64247L0.746617 9.2706C0.741618 9.29599 0.738105 9.32162 0.73608 9.34733C0.722424 9.52069 0.776305 9.69837 0.897723 9.83763C0.961271 9.91077 1.04096 9.97044 1.13259 10.0106C1.18264 10.0325 1.23484 10.0481 1.28792 10.0571L5.92304 10.8882C6.28545 10.9532 6.63193 10.7121 6.69691 10.3497C6.76189 9.9873 6.52078 9.64083 6.15837 9.57584L2.90135 8.99182C4.37335 7.92111 6.15706 7.33333 8.00001 7.33333C10.2979 7.33333 12.5036 8.2471 14.1279 9.8714C14.3883 10.1318 14.8104 10.1318 15.0707 9.8714C15.3311 9.61106 15.3311 9.18895 15.0707 8.9286C13.1964 7.05423 10.6515 6 8.00001 6C5.98089 6 4.02356 6.61135 2.37709 7.73066L2.88826 4.87761Z" fill="#202327"/>
</svg>
