<svg xmlns="http://www.w3.org/2000/svg" viewBox="0 0 16 16" class="sageicon"><path fill-rule="evenodd" d="M1.333 7.333c0-.368.299-.666.667-.666h12c.368 0 .666.298.666.666v8A.667.667 0 0 1 14 16H2a.667.667 0 0 1-.667-.667v-8ZM2.667 8v6.667h10.666V8H2.667Z"/><path fill-rule="evenodd" d="M8 10.667A.667.667 0 1 0 8 12a.667.667 0 0 0 0-1.333Zm-2 .666a2 2 0 1 1 4 0 2 2 0 0 1-4 0ZM8.003 0h.07A3.967 3.967 0 0 1 12 4.007a.667.667 0 1 1-1.333-.014 2.634 2.634 0 0 0-2.604-2.66h-.07a2.634 2.634 0 0 0-2.66 2.604v3.396a.667.667 0 1 1-1.333 0V3.927A3.967 3.967 0 0 1 8.003 0Z"/></svg>