<svg xmlns="http://www.w3.org/2000/svg" viewBox="0 0 16 16" class="sageicon"><path fill-rule="evenodd" d="M16 1.333a.667.667 0 0 0-.828-.646l-5.145 1.286L6.21.7a.667.667 0 0 0-.373-.014L.505 2.02A.667.667 0 0 0 0 2.667v12a.667.667 0 0 0 .828.646l5.334-1.333a.667.667 0 1 0-.324-1.293l-4.505 1.126V3.187l4.64-1.16L9.79 3.3c.12.04.25.045.373.014l4.505-1.126v5.146a.667.667 0 1 0 1.333 0v-6Zm-2.862 6.862a.667.667 0 0 0-.943 0l-4 4a.667.667 0 0 0-.195.472v2c0 .368.298.666.667.666h2c.177 0 .346-.07.471-.195l4-4a.667.667 0 0 0 0-.943l-2-2ZM9.333 14v-1.057l3.334-3.334 1.057 1.058L10.39 14H9.333Z"/></svg>