<svg xmlns="http://www.w3.org/2000/svg" viewBox="0 0 16 16" class="sageicon"><path d="M9.518 2.758 7.805 4.47a.667.667 0 1 1-.943-.942l1.722-1.723a4.007 4.007 0 0 1 5.598 0l-.465.477.477-.465a4.008 4.008 0 0 1 0 5.598l-.006.005-1.717 1.717a.667.667 0 1 1-.942-.943l1.713-1.713a2.674 2.674 0 0 0 .003-3.727 2.674 2.674 0 0 0-3.727.003ZM4.471 6.862c.26.26.26.682 0 .943L2.758 9.518a2.674 2.674 0 0 0-.003 3.727 2.674 2.674 0 0 0 3.727-.003l1.713-1.713a.667.667 0 1 1 .943.942l-1.722 1.723a4.008 4.008 0 0 1-5.598 0l.465-.477-.477.465a4.007 4.007 0 0 1 0-5.598l.006-.005 1.717-1.717c.26-.26.682-.26.942 0Z"/><path d="M11.138 5.805a.667.667 0 0 0-.943-.943l-5.333 5.333a.667.667 0 1 0 .943.943l5.333-5.333Z"/></svg>