<svg width="16" height="16" viewBox="0 0 16 16" fill="none" xmlns="http://www.w3.org/2000/svg">
<g clip-path="url(#clip0_3_3794)">
<path fill-rule="evenodd" clip-rule="evenodd" d="M10.8791 8.33961C11.9675 7.48528 12.6667 6.15762 12.6667 4.66667C12.6667 2.08934 10.5773 0 8 0C5.42267 0 3.33333 2.08934 3.33333 4.66667C3.33333 6.15762 4.03253 7.48528 5.12092 8.33961C2.15207 9.27786 0 12.0542 0 15.3333C0 15.7015 0.298477 16 0.666667 16C1.03486 16 1.33333 15.7015 1.33333 15.3333C1.33333 12.0195 4.01952 9.33333 7.33333 9.33333H8.66667C11.9805 9.33333 14.6667 12.0195 14.6667 15.3333C14.6667 15.7015 14.9651 16 15.3333 16C15.7015 16 16 15.7015 16 15.3333C16 12.0542 13.8479 9.27786 10.8791 8.33961ZM4.66667 4.66667C4.66667 2.82572 6.15905 1.33333 8 1.33333C9.84095 1.33333 11.3333 2.82572 11.3333 4.66667C11.3333 6.50762 9.84095 8 8 8C6.15905 8 4.66667 6.50762 4.66667 4.66667Z" fill="#202327"/>
</g>
<defs>
<clipPath id="clip0_3_3794">
<rect width="16" height="16" fill="white"/>
</clipPath>
</defs>
</svg>
