<svg width="16" height="16" viewBox="0 0 16 16" fill="none" xmlns="http://www.w3.org/2000/svg">
<g clip-path="url(#clip0_128_177)">
<path fill-rule="evenodd" clip-rule="evenodd" d="M11.6666 3.69668C11.6666 5.68668 10.0666 8.00001 7.99998 8.00001C5.93331 8.00001 4.33331 5.68668 4.33331 3.69668C4.33331 2.72422 4.71962 1.79159 5.40725 1.10396C6.09489 0.416323 7.02752 0.030014 7.99998 0.030014C8.97244 0.030014 9.90507 0.416323 10.5927 1.10396C11.2803 1.79159 11.6666 2.72422 11.6666 3.69668ZM2.89716 10.8972C3.89701 9.89734 5.25265 9.33493 6.66665 9.33334H9.33331C10.7473 9.33493 12.1029 9.89734 13.1028 10.8972C14.1026 11.897 14.6651 13.2527 14.6666 14.6667C14.6667 14.808 14.6219 14.9457 14.5386 15.0599C14.4553 15.1741 14.3379 15.2589 14.2033 15.302C12.1788 15.8258 10.0903 16.0608 7.99998 16C5.90964 16.0608 3.82121 15.8258 1.79665 15.302C1.66204 15.2589 1.54462 15.1741 1.46134 15.0599C1.37805 14.9457 1.33322 14.808 1.33331 14.6667C1.3349 13.2527 1.89731 11.897 2.89716 10.8972Z" fill="#202327"/>
</g>
<defs>
<clipPath id="clip0_128_177">
<rect width="16" height="16" fill="white"/>
</clipPath>
</defs>
</svg>
