<svg xmlns="http://www.w3.org/2000/svg" viewBox="0 0 16 16" class="pdsicon"><path fill-rule="evenodd" d="M15.167 9.867a1.334 1.334 0 0 1 .833 1.24v3.546h-4V13.32h2.667v-2.213l-2.494-1a1.312 1.312 0 0 1-.606-.487 1.302 1.302 0 0 1-.234-.747V7.9l.334-.187a1.967 1.967 0 0 0 1-1.72V4.66c0-.353-.094-.693-.267-1a1.985 1.985 0 0 0-.733-.733 2.02 2.02 0 0 0-2 0l-.58.333-.667-1.153.58-.334a3.377 3.377 0 0 1 3.333 0c.507.294.927.714 1.22 1.22A3.32 3.32 0 0 1 14 4.66v1.333c0 .58-.16 1.16-.447 1.66a3.327 3.327 0 0 1-.886.994v.226l2.5.994Zm-7.427-.16 2.087.833c.246.1.46.267.613.493.147.22.227.48.227.747v2.88H0v-2.88a1.344 1.344 0 0 1 .84-1.247L2.927 9.7C1.273 9.253.793 8.407.74 8.293l-.22-.426.34-.347C1.18 7.2 2 6.187 2 5.327c0-.894.347-1.727.973-2.36a3.34 3.34 0 0 1 2.36-.974 3.34 3.34 0 0 1 2.36.974 3.34 3.34 0 0 1 .974 2.36c0 .86.82 1.873 1.14 2.2l.34.34-.22.433c-.062.11-.537.954-2.187 1.407ZM1.333 11.78v1.54h7.994v-1.547l-2.494-1A1.312 1.312 0 0 1 6 9.54v-.887l.58-.073c.973-.127 1.54-.4 1.847-.613-.454-.58-1.094-1.574-1.094-2.64a1.97 1.97 0 0 0-.586-1.414c-.754-.753-2.074-.753-2.827 0-.38.38-.587.88-.587 1.414 0 1.066-.64 2.066-1.093 2.633.307.213.867.48 1.847.613l.58.08v.887a1.34 1.34 0 0 1-.84 1.24l-2.494 1Z"/></svg>