<svg xmlns="http://www.w3.org/2000/svg" viewBox="0 0 16 16" class="sageicon"><path d="M15.333 14.667h-2.666c-.4 0-.667-.267-.667-.667s.267-.667.667-.667h2v-2.2l-2.467-1c-.267-.066-.467-.266-.6-.466-.133-.2-.2-.467-.2-.734v-.6a.7.7 0 0 1 .333-.6c.334-.2.534-.4.734-.733.133-.333.2-.667.2-1V4.667c0-.334-.067-.667-.267-1-.2-.334-.4-.534-.733-.734-.6-.333-1.4-.333-2 0-.334.2-.734.067-.934-.266-.2-.334-.066-.734.267-.934 1-.6 2.333-.6 3.333 0 .534.267.934.734 1.2 1.2.334.534.467 1.134.467 1.734V6c0 .6-.133 1.133-.467 1.667-.2.4-.533.733-.866 1v.2l2.466 1c.267.066.467.266.6.466.134.2.2.467.2.734V14c.067.333-.2.667-.6.667ZM10 14.667H.667C.267 14.667 0 14.4 0 14v-2.2c0-.267.067-.533.2-.733.133-.2.333-.4.6-.467l2.533-1.067v-.2c-.333-.266-.666-.6-.866-1A3.009 3.009 0 0 1 2 6.667V5.333C2 4.467 2.333 3.6 3 3c.6-.667 1.467-1 2.333-1 .867 0 1.734.333 2.334 1 .666.6 1 1.467 1 2.333v1.334c0 .6-.134 1.133-.467 1.666-.2.4-.533.734-.867 1v.2l2.467 1c.267.067.467.267.6.467.133.2.2.467.2.733V14c.067.333-.2.667-.6.667Zm-8.667-1.334h8V11.8l-2.466-1c-.267-.067-.467-.267-.6-.467a1.28 1.28 0 0 1-.267-.8v-.6a.7.7 0 0 1 .333-.6c.334-.2.534-.4.734-.733.2-.267.266-.6.266-.933V5.333c0-.533-.2-1.066-.6-1.4-.733-.8-2.066-.8-2.8 0-.4.334-.6.867-.6 1.4v1.334c0 .333.067.666.267 1 .2.333.4.533.733.733.2.067.334.333.334.533v.6c0 .267-.067.534-.2.734-.134.2-.334.4-.6.466L1.333 11.8v1.533Z"/></svg>