<svg xmlns="http://www.w3.org/2000/svg" viewBox="0 0 16 16" class="sageicon"><path fill-rule="evenodd" d="M15.133 1.8a.644.644 0 0 0 0-.933.644.644 0 0 0-.933 0l-2.867 2.866c-.066-.466-.266-.866-.6-1.133-.333-.4-.866-.6-1.4-.6H2c-.533 0-1.067.2-1.4.6-.4.333-.6.867-.6 1.4v8c0 .533.2 1.067.6 1.4.2.2.4.333.6.4l-.333.333a.645.645 0 0 0 0 .934.645.645 0 0 0 .933 0L15.133 1.8ZM2.4 12.667l7.6-7.6V4c0-.2-.067-.333-.2-.467a.605.605 0 0 0-.467-.2H2c-.2 0-.333.067-.467.2a.605.605 0 0 0-.2.467v8c0 .2.067.333.2.467.134.133.267.2.467.2h.4Zm13.333-8.534c.2.134.267.334.267.534v6.666c0 .2-.067.4-.267.534-.133.133-.4.133-.6.133l-3.8-1.133V12c0 .533-.2 1.067-.6 1.4-.333.4-.866.6-1.4.6H5.467c-.4 0-.667-.267-.667-.667s.267-.666.667-.666h3.866c.2 0 .334-.067.467-.2A.605.605 0 0 0 10 12v-2c0-.2.067-.4.267-.533.133-.134.4-.134.6-.134l3.8 1.067V5.533l-.8.2c-.334.134-.734-.133-.8-.466-.134-.334.133-.734.466-.8l1.6-.467c.2 0 .467 0 .6.133Z"/></svg>