<svg width="16" height="16" viewBox="0 0 16 16" fill="none" xmlns="http://www.w3.org/2000/svg">
<path d="M7.99996 6.66668C8.36815 6.66668 8.66663 6.96515 8.66663 7.33334V10C8.66663 10.3682 8.36815 10.6667 7.99996 10.6667C7.63177 10.6667 7.33329 10.3682 7.33329 10V7.33334C7.33329 6.96515 7.63177 6.66668 7.99996 6.66668Z" fill="#202327"/>
<path d="M8.66663 12C8.66663 12.3682 8.36815 12.6667 7.99996 12.6667C7.63177 12.6667 7.33329 12.3682 7.33329 12C7.33329 11.6318 7.63177 11.3333 7.99996 11.3333C8.36815 11.3333 8.66663 11.6318 8.66663 12Z" fill="#202327"/>
<path fill-rule="evenodd" clip-rule="evenodd" d="M7.99996 1.33334C8.24748 1.33334 8.47462 1.47048 8.58991 1.68951L15.2566 14.3562C15.3653 14.5628 15.358 14.8113 15.2373 15.0112C15.1167 15.2112 14.9002 15.3333 14.6666 15.3333H1.33329C1.09977 15.3333 0.883268 15.2112 0.762573 15.0112C0.641877 14.8113 0.634584 14.5628 0.743347 14.3562L7.41001 1.68951C7.5253 1.47048 7.75244 1.33334 7.99996 1.33334ZM13.5624 14L7.99996 3.4314L2.43754 14H13.5624Z" fill="#202327"/>
</svg>
