<svg width="16" height="16" viewBox="0 0 16 16" fill="none" xmlns="http://www.w3.org/2000/svg">
<g clip-path="url(#clip0_3_1680)">
<path d="M14 0H2C1.46957 0 0.960859 0.210714 0.585786 0.585786C0.210714 0.960859 0 1.46957 0 2L0 11.3333C0 11.8638 0.210714 12.3725 0.585786 12.7475C0.960859 13.1226 1.46957 13.3333 2 13.3333H6.66667V14.6667H4C3.63181 14.6667 3.33333 14.9651 3.33333 15.3333C3.33333 15.7015 3.63181 16 4 16H12C12.3682 16 12.6667 15.7015 12.6667 15.3333C12.6667 14.9651 12.3682 14.6667 12 14.6667H9.33333V13.3333H14C14.5304 13.3333 15.0391 13.1226 15.4142 12.7475C15.7893 12.3725 16 11.8638 16 11.3333V2C16 1.46957 15.7893 0.960859 15.4142 0.585786C15.0391 0.210714 14.5304 0 14 0ZM14.6667 10.6667H1.33333V2C1.33333 1.82319 1.40357 1.65362 1.5286 1.5286C1.65362 1.40357 1.82319 1.33333 2 1.33333H14C14.1768 1.33333 14.3464 1.40357 14.4714 1.5286C14.5964 1.65362 14.6667 1.82319 14.6667 2V10.6667Z" fill="#202327"/>
</g>
<defs>
<clipPath id="clip0_3_1680">
<rect width="16" height="16" fill="white"/>
</clipPath>
</defs>
</svg>
