<svg width="16" height="16" viewBox="0 0 16 16" fill="none" xmlns="http://www.w3.org/2000/svg">
<g clip-path="url(#clip0_3_1674)">
<path fill-rule="evenodd" clip-rule="evenodd" d="M2 1.33333C1.63152 1.33333 1.33333 1.63152 1.33333 2V9.33333H14.6667V2C14.6667 1.63152 14.3685 1.33333 14 1.33333H2ZM14.6667 10.6667H1.33333V11.3333C1.33333 11.7018 1.63152 12 2 12L8 12L14 12C14.3685 12 14.6667 11.7018 14.6667 11.3333V10.6667ZM0 10V11.3333C0 12.4382 0.895144 13.3333 2 13.3333H7.33333V14.6667H4C3.63181 14.6667 3.33333 14.9651 3.33333 15.3333C3.33333 15.7015 3.63181 16 4 16H8H12C12.3682 16 12.6667 15.7015 12.6667 15.3333C12.6667 14.9651 12.3682 14.6667 12 14.6667H8.66667V13.3333H14C15.1049 13.3333 16 12.4382 16 11.3333V10V2C16 0.895143 15.1049 0 14 0H2C0.895144 0 0 0.895143 0 2V10Z" fill="#202327"/>
</g>
<defs>
<clipPath id="clip0_3_1674">
<rect width="16" height="16" fill="white"/>
</clipPath>
</defs>
</svg>
