<svg width="16" height="16" viewBox="0 0 16 16" fill="none" xmlns="http://www.w3.org/2000/svg">
<g clip-path="url(#clip0_4_497)">
<path fill-rule="evenodd" clip-rule="evenodd" d="M3.33333 0.666687H0V3.33335V4.66669V15.3334H16V4.66669V3.33335V0.666687H4.66667H3.33333ZM3.33333 2.00002H1.33333V3.33335H3.33333V2.00002ZM4.66667 4.66669H3.33333H1.33333V14H14.6667V4.66669H4.66667ZM4.66667 3.33335V2.00002H14.6667V3.33335H4.66667ZM2.66667 6.66669H8V12H2.66667V6.66669ZM4 8.00002V10.6667H6.66667V8.00002H4ZM13.3333 6.66669H9.33333V8.00002H13.3333V6.66669ZM9.33333 9.33335H12V10.6667H9.33333V9.33335Z" fill="#202327"/>
</g>
<defs>
<clipPath id="clip0_4_497">
<rect width="16" height="16" fill="white"/>
</clipPath>
</defs>
</svg>
