<svg xmlns="http://www.w3.org/2000/svg" viewBox="0 0 16 16" class="sageicon"><path fill-rule="evenodd" d="M5.39 1.864a6.672 6.672 0 0 0-4.024 5.47h1.986c.12-2.1.805-4.026 2.038-5.47ZM1.366 8.667a6.672 6.672 0 0 0 4.024 5.47c-1.233-1.445-1.919-3.372-2.038-5.47H1.366Zm9.244 5.47a6.672 6.672 0 0 0 4.024-5.47h-1.986c-.12 2.099-.805 4.025-2.038 5.47Zm4.024-6.804a6.672 6.672 0 0 0-4.024-5.47c1.233 1.445 1.919 3.371 2.038 5.47h1.986ZM8 0a8 8 0 1 0 0 16A8 8 0 0 0 8 0Zm-.667 14.146c-1.564-1.184-2.497-3.141-2.645-5.48h2.645v5.48ZM4.688 7.333h2.645V1.854C5.77 3.038 4.836 4.995 4.688 7.334Zm3.979 6.813v-5.48h2.645c-.148 2.339-1.08 4.295-2.645 5.48Zm0-6.813h2.645c-.148-2.338-1.08-4.295-2.645-5.479v5.48Z"/></svg>