<svg xmlns="http://www.w3.org/2000/svg" viewBox="0 0 16 16" class="sageicon"><path d="M15.867 4.8s-.134-1.133-.667-1.6c-.6-.667-1.267-.667-1.6-.667C11.333 2.4 8 2.4 8 2.4s-3.333 0-5.6.133C2.067 2.6 1.4 2.6.8 3.2.333 3.667.133 4.8.133 4.8S0 6.067 0 7.4v1.2c0 1.267.133 2.6.133 2.6s.134 1.133.667 1.6c.6.667 1.4.6 1.733.667C3.8 13.6 8 13.6 8 13.6s3.333 0 5.6-.2c.333-.067 1-.067 1.6-.667.467-.466.667-1.6.667-1.6S16 9.867 16 8.533v-1.2c0-1.266-.133-2.533-.133-2.533Zm-9.534 5.267V5.6l4.334 2.267-4.334 2.2Z"/></svg>